<?xml version="1.0" encoding="utf-8"?>
<!-- Generator: Adobe Illustrator 21.1.0, SVG Export Plug-In . SVG Version: 6.00 Build 0)  -->
<svg version="1.1" id="圖層_1" xmlns="http://www.w3.org/2000/svg" xmlns:xlink="http://www.w3.org/1999/xlink" x="0px" y="0px"
	 width="50px" height="40px" viewBox="0 0 50 40" style="enable-background:new 0 0 50 40;" xml:space="preserve">
<style type="text/css">
	.st0{clip-path:url(#SVGID_2_);fill:#FFFFFF;}
</style>
<g>
	<defs>
		<rect id="SVGID_1_" x="1.9" y="4.5" width="45.9" height="30.9"/>
	</defs>
	<clipPath id="SVGID_2_">
		<use xlink:href="#SVGID_1_"  style="overflow:visible;"/>
	</clipPath>
	<path class="st0" d="M21.1,30.4V33c0,0.1,0,0.1,0.1,0.1H22v0.2h-1.2c-0.1,0-0.2-0.1-0.2-0.2v-2.7H21.1z"/>
	<path class="st0" d="M22.2,31.3c0-0.5,0.4-0.9,0.8-0.9h0.6c0.5,0,0.8,0.4,0.8,0.9v1.1c0,0.5-0.4,0.9-0.8,0.9h-0.6
		c-0.4,0-0.8-0.4-0.8-0.9V31.3z M23.4,30.5c-0.4,0-0.7,0.3-0.7,0.7v1.1c0,0.4,0.3,0.7,0.7,0.7h0c0.4,0,0.7-0.3,0.7-0.7v-1.1
		C24.1,30.9,23.8,30.5,23.4,30.5L23.4,30.5z"/>
	<polygon class="st0" points="27.1,30.5 26.2,30.5 26.2,33.3 25.7,33.3 25.7,30.5 24.8,30.5 24.8,30.4 27.1,30.4 	"/>
	<polygon class="st0" points="29.5,30.5 28.6,30.5 28.6,33.3 28.1,33.3 28.1,30.5 27.2,30.5 27.2,30.4 29.5,30.4 	"/>
	<path class="st0" d="M31.7,32h-1.4v1c0,0.1,0,0.1,0.1,0.1h1.5v0.2H30c-0.1,0-0.2-0.1-0.2-0.2v-2.5c0-0.1,0.1-0.2,0.2-0.2h1.9v0.2
		h-1.5c-0.1,0-0.1,0.1-0.1,0.1v1.1h1.4V32z"/>
	<path class="st0" d="M32.2,30.6c0-0.1,0.1-0.2,0.2-0.2h1.7c0.3,0,0.5,0.2,0.5,0.4v0.7c0,0.2-0.2,0.5-0.5,0.5H34l0.8,1.3h-0.6
		L33.4,32h-0.8v1.3h-0.5V30.6z M33.7,31.8c0.2,0,0.3-0.1,0.3-0.3v-0.6c0-0.2-0.1-0.3-0.3-0.3h-0.9c-0.1,0-0.1,0.1-0.1,0.1v1.1H33.7z
		"/>
	<polygon class="st0" points="36.2,33.3 36.2,32 35,30.4 35.5,30.4 36.4,31.5 37.3,30.4 37.8,30.4 36.6,32 36.6,33.3 	"/>
	<path class="st0" d="M6.4,27.6c0.2,0,0.3,0.1,0.3,0.3v0c0,0.2-0.1,0.3-0.3,0.3H4.8v0.9h1.5c0.2,0,0.3,0.1,0.3,0.3v0
		c0,0.2-0.1,0.3-0.3,0.3H4.8v2.2c0,0.2,0,0.3-0.1,0.4c-0.1,0.3-0.3,0.5-0.6,0.6C4,33,3.9,33,3.8,33c-0.1,0-0.2,0-0.2-0.1
		c-0.1-0.1-0.1-0.1-0.1-0.2v0c0-0.2,0.1-0.3,0.3-0.3c0.1,0,0.2-0.1,0.3-0.2c0.1-0.1,0.2-0.2,0.2-0.4v-2.2H2.8
		c-0.2,0-0.3-0.1-0.3-0.3v0c0-0.2,0.1-0.3,0.3-0.3h1.5v-0.9H2.6c-0.2,0-0.3-0.1-0.3-0.3v0c0-0.2,0.1-0.3,0.3-0.3H3V27
		c0-0.2,0.1-0.3,0.3-0.3h0c0.2,0,0.3,0.1,0.3,0.3v0.7h1.9V27c0-0.2,0.1-0.3,0.3-0.3h0c0.2,0,0.3,0.1,0.3,0.3v0.7H6.4z M3,32.7
		c-0.1,0.2-0.2,0.2-0.4,0.2l0,0c-0.2-0.1-0.2-0.2-0.2-0.4c0.3-0.7,0.4-1.4,0.5-2.2c0-0.2,0.1-0.3,0.3-0.3h0c0.1,0,0.2,0,0.2,0.1
		c0.1,0.1,0.1,0.1,0.1,0.2C3.5,31.2,3.3,32,3,32.7 M6.3,25.7c0.2,0,0.3,0.1,0.3,0.3v0c0,0.2-0.1,0.3-0.3,0.3H2.8
		c-0.2,0-0.3-0.1-0.3-0.3v0c0-0.2,0.1-0.3,0.3-0.3h1.5v-0.4c0-0.2,0.1-0.3,0.3-0.3h0c0.2,0,0.3,0.1,0.3,0.3v0.4H6.3z M6.5,32.6
		c0,0.2-0.1,0.3-0.2,0.3l0,0c-0.2,0-0.3-0.1-0.3-0.2l-0.4-2.3c0-0.2,0.1-0.3,0.2-0.3c0.1,0,0.2,0,0.2,0c0.1,0.1,0.1,0.1,0.1,0.2
		L6.5,32.6z M7.1,26.3c0-0.2,0-0.3,0.1-0.4c0.2-0.4,0.6-0.7,1-0.7h1.9c0.2,0,0.3,0.1,0.3,0.3v0c0,0.2-0.1,0.3-0.3,0.3H8.2
		c-0.2,0-0.3,0.1-0.4,0.2c-0.1,0.1-0.2,0.2-0.2,0.4l0,1.3h2.4c0.2,0,0.3,0.1,0.3,0.3v0c0,0.2-0.1,0.3-0.3,0.3H9.8v4.5
		c0,0.2-0.1,0.3-0.3,0.3h0c-0.2,0-0.3-0.1-0.3-0.3v-4.5H7.7l0,1.5c0,1,0,2-0.1,3.1c0,0.2-0.1,0.3-0.3,0.3h0C7.1,33,7,32.9,7,32.7
		L7.1,26.3z"/>
	<path class="st0" d="M13.3,25.2c0.2,0,0.4,0.1,0.5,0.2c0.2,0.2,0.2,0.3,0.2,0.6v0.7c0,0.2-0.1,0.4-0.2,0.5
		c-0.2,0.2-0.3,0.2-0.5,0.2H12c-0.1,0-0.2,0.1-0.2,0.2v0.6c0,0.1,0.1,0.2,0.2,0.2h1.2c0.2,0,0.4,0.1,0.6,0.2
		c0.1,0.2,0.2,0.3,0.2,0.6v3c0,0.3-0.2,0.6-0.5,0.7c-0.1,0-0.2,0.1-0.3,0.1h-0.7c-0.2,0-0.3-0.1-0.3-0.3v0c0-0.2,0.1-0.3,0.3-0.3
		h0.7c0.1,0,0.2-0.1,0.2-0.2v-3c0-0.1-0.1-0.2-0.2-0.2H12c-0.2,0-0.4-0.1-0.6-0.2c-0.2-0.2-0.2-0.3-0.2-0.6v-0.6
		c0-0.4,0.4-0.8,0.8-0.8h1.3c0,0,0.1,0,0.1-0.1c0,0,0.1-0.1,0.1-0.1V26c0-0.1-0.1-0.2-0.2-0.2h-1.8c-0.2,0-0.3-0.1-0.3-0.3v0
		c0-0.2,0.1-0.3,0.3-0.3H13.3z M12.8,29.8c0.2,0,0.3,0.1,0.3,0.3v0c0,0.2-0.1,0.3-0.3,0.3h-0.3v1h0.4c0.2,0,0.3,0.1,0.3,0.3v0
		c0,0.2-0.1,0.3-0.3,0.3h-1.4c-0.2,0-0.3-0.1-0.3-0.3v0c0-0.2,0.1-0.3,0.3-0.3h0.4v-1h-0.3c-0.2,0-0.3-0.1-0.3-0.3v0
		c0-0.2,0.1-0.3,0.3-0.3h0.3v-0.2c0-0.2,0.1-0.3,0.3-0.3h0c0.2,0,0.3,0.1,0.3,0.3v0.2H12.8z M18.4,26.2c0.2,0,0.4,0.1,0.6,0.2
		c0.1,0.2,0.2,0.3,0.2,0.5v0.9c0,0.2-0.1,0.4-0.2,0.6c-0.2,0.2-0.3,0.2-0.6,0.2h-3.3c-0.2,0-0.4-0.1-0.5-0.2
		c-0.2-0.1-0.2-0.3-0.2-0.5V27c0-0.3,0.2-0.6,0.5-0.7c0.1,0,0.2-0.1,0.3-0.1H18.4z M18.4,29.8c0.3,0,0.6,0.2,0.7,0.5
		c0,0.1,0.1,0.2,0.1,0.3v0.9c0,0.2-0.1,0.4-0.2,0.5c-0.2,0.2-0.3,0.2-0.6,0.2h-3.3c-0.2,0-0.4-0.1-0.5-0.2c-0.1-0.1-0.2-0.3-0.2-0.5
		v-0.9c0-0.2,0.1-0.4,0.2-0.6c0.2-0.1,0.3-0.2,0.5-0.2H18.4z M18.8,25.3c0.2,0,0.3,0.1,0.3,0.3v0c0,0.2-0.1,0.3-0.3,0.3h-4.1
		c-0.2,0-0.3-0.1-0.3-0.3v0c0-0.2,0.1-0.3,0.3-0.3H18.8z M18.8,28.9c0.2,0,0.3,0.1,0.3,0.3v0c0,0.2-0.1,0.3-0.3,0.3h-4.1
		c-0.2,0-0.3-0.1-0.3-0.3v0c0-0.2,0.1-0.3,0.3-0.3H18.8z M18.8,32.5c0.2,0,0.3,0.1,0.3,0.3v0c0,0.2-0.1,0.3-0.3,0.3h-4.1
		c-0.2,0-0.3-0.1-0.3-0.3v0c0-0.2,0.1-0.3,0.3-0.3H18.8z M16.5,26.8L16.5,26.8l-1.3,0C15,26.8,15,26.9,15,27v0.1h1.5V26.8z M15.1,28
		h1.3v-0.3H15v0.1c0,0,0,0.1,0.1,0.1C15,28,15.1,28,15.1,28 M15.1,30.4c-0.1,0-0.2,0.1-0.2,0.2v0.1h1.5v-0.3H15.1z M15.1,31.6h1.3
		v-0.3H15v0.1c0,0,0,0.1,0.1,0.1C15,31.6,15.1,31.6,15.1,31.6 M17.1,27.1h1.5V27c0-0.1-0.1-0.2-0.2-0.2h-1.3v0V27.1z M18.4,28
		c0.1,0,0.1,0,0.1-0.1c0,0,0.1-0.1,0.1-0.1v-0.1h-1.5V28H18.4z M18.6,30.6c0-0.1-0.1-0.2-0.2-0.2h-1.3v0.3h1.5V30.6z M18.4,31.6
		c0.1,0,0.1,0,0.1-0.1c0,0,0.1-0.1,0.1-0.1v-0.1h-1.5v0.3H18.4z"/>
	<path class="st0" d="M3.3,22.8c-0.8,0-1.4-0.6-1.4-1.4v-7.8c0-0.2,0-0.4,0.1-0.5c0.2-0.5,0.7-0.9,1.3-0.9h1.8c0.4,0,0.7,0.2,1,0.4
		c0.3,0.3,0.4,0.6,0.4,1v7.8c0,0.6-0.3,1.1-0.9,1.3c-0.2,0.1-0.3,0.1-0.5,0.1H3.3z M5.6,17.1v-3.5c0-0.1-0.1-0.3-0.1-0.4
		c-0.1-0.1-0.2-0.1-0.4-0.1H3.3c-0.1,0-0.3,0-0.4,0.1c-0.1,0.1-0.1,0.2-0.1,0.4v3.5H5.6z M5.1,22c0.1,0,0.3-0.1,0.4-0.1
		c0.1-0.1,0.1-0.2,0.1-0.4V18H2.8v3.5C2.8,21.7,3,22,3.3,22H5.1z M13.3,12.8c0.2,0,0.4,0.2,0.4,0.4v0c0,0.2-0.2,0.4-0.4,0.4h-0.4v8
		c0,0.2,0,0.4-0.1,0.6c-0.3,0.6-0.8,1-1.5,1h-1c-0.2,0-0.4-0.2-0.4-0.4v0c0-0.2,0.2-0.4,0.4-0.4h1c0.2,0,0.4-0.1,0.5-0.2
		c0.1-0.1,0.2-0.3,0.2-0.5v-8H7.5c-0.2,0-0.4-0.2-0.4-0.4v0c0-0.2,0.2-0.4,0.4-0.4h4.6v-1c0-0.2,0.2-0.4,0.4-0.4h0
		c0.2,0,0.4,0.2,0.4,0.4v1H13.3z M10.1,20.1c0.1,0.2-0.1,0.5-0.3,0.5h0c-0.2,0.1-0.5,0-0.5-0.3l-1.3-4.2c-0.1-0.2,0.1-0.5,0.3-0.6h0
		c0.2-0.1,0.5,0.1,0.5,0.3L10.1,20.1z"/>
	<path class="st0" d="M16.9,22.6c-1.2,0-2.2-1-2.2-2.2V8c0-0.3,0.1-0.6,0.2-0.8c0.4-0.8,1.1-1.4,2-1.4h2.8c0.6,0,1.1,0.2,1.6,0.7
		c0.4,0.4,0.6,1,0.6,1.6v12.4c0,0.9-0.5,1.7-1.3,2c-0.2,0.1-0.5,0.2-0.8,0.2H16.9z M20.5,13.5V8c0-0.2-0.1-0.4-0.2-0.6
		c-0.2-0.2-0.4-0.2-0.6-0.2h-2.8c-0.2,0-0.4,0.1-0.6,0.2c-0.1,0.2-0.2,0.4-0.2,0.6v5.5H20.5z M19.7,21.2c0.2,0,0.4-0.1,0.6-0.2
		c0.1-0.2,0.2-0.4,0.2-0.6v-5.5h-4.4v5.5c0,0.5,0.3,0.8,0.8,0.8H19.7z M32.7,6.8c0.4,0,0.7,0.3,0.7,0.7v0c0,0.4-0.3,0.7-0.7,0.7
		h-0.6v14.7c0,0.3-0.1,0.7-0.2,1c-0.4,1-1.3,1.6-2.4,1.6h-1.7c-0.4,0-0.7-0.3-0.7-0.7v0c0-0.4,0.3-0.7,0.7-0.7h1.7
		c0.3,0,0.6-0.1,0.8-0.4c0.2-0.2,0.4-0.5,0.4-0.8V8.1h-7.3c-0.4,0-0.7-0.3-0.7-0.7v0c0-0.4,0.3-0.7,0.7-0.7h7.3V5.2
		c0-0.4,0.3-0.7,0.7-0.7h0c0.4,0,0.7,0.3,0.7,0.7v1.5H32.7z"/>
	<path class="st0" d="M35.4,16.9c-0.1,1.2-0.2,2.4-0.5,3.4c-0.2,1-0.5,1.8-0.9,2.6c-0.1,0.3-0.4,0.4-0.7,0.2l0,0
		C33,23,32.9,22.7,33,22.5c0.4-0.8,0.7-1.6,0.9-2.5c0.2-0.9,0.4-2,0.5-3.1h-1.1c-0.3,0-0.5-0.2-0.5-0.5v0c0-0.3,0.2-0.5,0.5-0.5h2.9
		v-0.8c0-0.3,0.2-0.5,0.5-0.5h0c0.3,0,0.5,0.2,0.5,0.5v0.8h2.9c0.3,0,0.5,0.2,0.5,0.5v0c0,0.3-0.2,0.5-0.5,0.5H39l1.3,5.7
		c0.1,0.3-0.1,0.5-0.4,0.6h0c-0.3,0.1-0.5-0.1-0.6-0.4L38,17c0,0,0,0,0-0.1h-0.8v6c0,0.3-0.2,0.5-0.5,0.5h0c-0.3,0-0.5-0.2-0.5-0.5
		v-6L35.4,16.9L35.4,16.9z M33.6,10.7c-0.3,0-0.5-0.2-0.5-0.5v0c0-0.3,0.2-0.5,0.5-0.5h6.2c0.3,0,0.5,0.2,0.5,0.5v0
		c0,0.3-0.2,0.5-0.5,0.5H33.6z M35,14c0.1,0.3-0.1,0.6-0.4,0.6h0c-0.3,0.1-0.5-0.1-0.6-0.4l-0.5-1.9c-0.1-0.3,0.1-0.6,0.4-0.6h0
		c0.3-0.1,0.6,0.1,0.6,0.4L35,14z M37.6,13.3c0.1,0.3-0.1,0.5-0.4,0.6l0,0c-0.3,0.1-0.6-0.1-0.6-0.4L36.1,12
		c-0.1-0.3,0.1-0.6,0.4-0.6h0c0.3-0.1,0.5,0.1,0.6,0.4L37.6,13.3z M39.5,14.5c-0.1,0.1-0.2,0.2-0.3,0.3c-0.1,0-0.3,0-0.4,0l0,0
		c-0.2-0.1-0.3-0.4-0.2-0.6c0.3-0.7,0.6-1.5,0.7-2.3c0.1-0.3,0.3-0.4,0.6-0.4c0.2,0,0.2,0.1,0.3,0.2c0.1,0.1,0.1,0.2,0.1,0.4
		C40.1,12.9,39.8,13.8,39.5,14.5"/>
	<polygon class="st0" points="45.3,6.4 40.7,17.4 43.9,17.4 37.7,35.5 47.8,14.6 44,14.6 	"/>
	<polygon class="st0" points="20.9,29.4 21,28.6 20.4,28 21.3,27.8 21.6,27 22,27.8 22.9,28 22.3,28.6 22.4,29.4 21.6,29 	"/>
	<polygon class="st0" points="24.6,29.4 24.7,28.6 24.1,28 25,27.8 25.3,27 25.7,27.8 26.6,28 26,28.6 26.1,29.4 25.3,29 	"/>
	<polygon class="st0" points="32,29.4 32.1,28.6 31.5,28 32.4,27.8 32.8,27 33.2,27.8 34,28 33.4,28.6 33.5,29.4 32.8,29 	"/>
	<polygon class="st0" points="28.3,29.4 28.4,28.6 27.8,28 28.7,27.8 29.1,27 29.4,27.8 30.3,28 29.7,28.6 29.8,29.4 29.1,29 	"/>
	<polygon class="st0" points="35.7,29.4 35.8,28.6 35.2,28 36.1,27.8 36.5,27 36.9,27.8 37.7,28 37.1,28.6 37.3,29.4 36.5,29 	"/>
	<polygon class="st0" points="24.1,17.9 24.5,15.3 22.6,13.5 25.2,13.1 26.4,10.7 27.6,13.1 30.2,13.5 28.3,15.3 28.8,17.9 
		26.4,16.7 	"/>
</g>
</svg>
