<?xml version="1.0" encoding="utf-8"?>
<!-- Generator: Adobe Illustrator 21.1.0, SVG Export Plug-In . SVG Version: 6.00 Build 0)  -->
<svg version="1.1" id="圖層_1" xmlns="http://www.w3.org/2000/svg" xmlns:xlink="http://www.w3.org/1999/xlink" x="0px" y="0px"
	 width="50px" height="40px" viewBox="0 0 50 40" style="enable-background:new 0 0 50 40;" xml:space="preserve">
<style type="text/css">
	.st0{clip-path:url(#SVGID_2_);fill:#FFFFFF;}
	.st1{fill:#FFFFFF;}
	.st2{font-family:'MFLangQian_Noncommercial-Regular-GBpc-EUC-H';}
	.st3{font-size:6.5164px;}
	.st4{clip-path:url(#SVGID_4_);fill:#FFFFFF;}
	.st5{clip-path:url(#SVGID_6_);}
	.st6{clip-path:url(#SVGID_8_);}
	.st7{clip-path:url(#SVGID_12_);fill:#FFFFFF;}
	.st8{clip-path:url(#SVGID_14_);}
	.st9{clip-path:url(#SVGID_16_);}
	.st10{clip-path:url(#SVGID_20_);fill:#FFFFFF;}
</style>
<g>
	<defs>
		<rect id="SVGID_1_" x="2.1" y="6" width="45.7" height="28.1"/>
	</defs>
	<clipPath id="SVGID_2_">
		<use xlink:href="#SVGID_1_"  style="overflow:visible;"/>
	</clipPath>
	<path class="st0" d="M36.9,18.9c-0.8-0.3-1.6-0.6-2.4-1c3.4-2.5,6.7-4.9,10-7.4c-0.6-1.1-1.3-1.7-2.7-1.6c-3.3,0.1-6.5,0-9.8,0
		c-0.8,0-1.6,0.1-2.3,0.3c-1.6,0.5-2.6,1.8-2.7,3.6h9.6c-2,1.5-3.8,2.9-5.5,4.3c-0.7,0.6-1.1,1.4-1.8,2.2c0.6,0.3,1,0.4,1.3,0.6
		c0.6,0.4,1.2,0.9,1.6,1.5c1.1,1.9,0.9,3.9-0.8,5.3c-1.3,1.2-2.9,2.2-4.5,2.9c-3.1,1.4-6.3,2.5-9.4,3.7c-0.3,0.1-0.5,0.2-0.8,0.3
		c0,0.1,0.1,0.2,0.1,0.3c2.5-0.4,5.1-0.7,7.6-1.1c3.4-0.6,6.8-1.6,10-3c1.8-0.8,3.5-1.8,4.5-3.5C40.7,23.7,40.7,20.6,36.9,18.9"/>
	<path class="st0" d="M22.8,22.2h4.8c0.1-0.9,0.1-1.7,0.2-2.5c-0.3-0.1-0.5-0.1-0.7-0.1c0.1-1.4,0.2-2.8,0.3-4.2
		c0-1.4-0.7-2.1-2.2-2.2c-0.7,0-1.3,0-2,0V9.8h-2.6c-0.1,0.5-0.1,3-0.2,3.5h-2c-0.1,0.9-0.1,1.7-0.2,2.6c0.5,0,0.9-0.1,1.3,0
		c0.3,0.1,0.6,0.4,0.6,0.6c0,1-0.1,2.1-0.1,3.2h-2.6c0,0.9-0.1,1.7-0.1,2.6h2.3c-0.5,1.5-1.2,2.7-2.4,3.7c-0.2,0.1-0.4,0.4-0.4,0.6
		c0,0.9,0,1.8,0,2.7C19.2,28.8,21.4,26.3,22.8,22.2 M23.2,15.8c1.5-0.2,1.7,0,1.6,1.4c-0.1,0.7-0.1,1.5-0.2,2.2c0,0,0,0.1-0.1,0.2
		h-1.6C23,18.3,23.1,17.1,23.2,15.8"/>
	<path class="st0" d="M12.8,15h-2.1c-0.3,5.2-0.3,8.2-0.6,13.3c1.8,0.1,2.2-0.3,2.3-1.9c0.3-4.2,0.2-6.3,0.5-10.5
		C12.8,15.6,12.8,15.4,12.8,15"/>
	<path class="st0" d="M37.2,17.6c3-1.6,6.1-3.1,9.3-4.8c-0.4-0.5-0.7-0.9-1-1.3c-2.8,2-5.6,4-8.3,5.9C37.2,17.5,37.2,17.6,37.2,17.6
		"/>
	<path class="st0" d="M38.3,18.1c3.1-1,6.3-2.1,9.5-3.1c-0.3-0.5-0.5-0.8-0.8-1.3c-3,1.4-5.9,2.8-8.8,4.2C38.3,18,38.3,18,38.3,18.1
		"/>
	<path class="st0" d="M17.2,18.2l0.2-2.9l-0.8,0c0,0,0,0-0.1,0c0.1-1.2,0.1-4.4,0.2-5.5h-2.9c-0.4,5.8-0.7,13.7-1.1,19.6
		c0.5,0,0.9,0,1.3,0c1.2,0,1.6-0.4,1.7-1.6c0.1-0.8,0.1-1.6,0.2-2.5c0.2-2.4,0.3-4.8,0.5-7.1L17.2,18.2z"/>
	<path class="st0" d="M21.9,26.9c0,1.5,1.3,2.8,2.8,2.8c1.5,0,2.8-1.2,2.8-2.7c0-1.5-1.2-2.8-2.7-2.9C23.3,24,22,25.3,21.9,26.9
		 M23.5,27.9c-0.3,0-0.6-0.2-0.6-0.5c0-0.3,0.2-0.6,0.5-0.6c0.3,0,0.6,0.2,0.6,0.5C24,27.6,23.8,27.8,23.5,27.9 M26.2,26.7
		c0.3,0,0.6,0.2,0.6,0.5s-0.2,0.6-0.5,0.6c-0.3,0-0.6-0.2-0.6-0.5C25.6,27,25.9,26.8,26.2,26.7 M25.1,25.7c0,0.4-0.3,0.7-0.7,0.7
		c-0.4,0-0.7-0.3-0.7-0.7c0-0.4,0.3-0.7,0.7-0.7C24.8,25,25.1,25.3,25.1,25.7"/>
</g>
<text transform="matrix(1 -6.790000e-03 6.790000e-03 1 2.6372 28.6509)" class="st1 st2 st3">速</text>
<text transform="matrix(1 -6.790000e-03 6.790000e-03 1 2.6404 21.3528)" class="st1 st2 st3">秒</text>
<g>
	<defs>
		<rect id="SVGID_3_" x="2.1" y="6" width="45.7" height="28.1"/>
	</defs>
	<clipPath id="SVGID_4_">
		<use xlink:href="#SVGID_3_"  style="overflow:visible;"/>
	</clipPath>
	<path class="st4" d="M2.7,12.5c0,0,0,0.1,0,0.1c0,0.1,0,0.1,0,0.2c0,0.1,0,0.1,0,0.1c0,0,0,0.1,0.1,0.1c0,0,0,0,0.1,0.1
		c0,0,0,0,0.1,0c0,0,0,0,0.1-0.1c0,0,0-0.1,0-0.1c0,0,0-0.1,0-0.2c0-0.1,0-0.1,0-0.2c0-0.1,0-0.1,0-0.1c0,0,0-0.1-0.1-0.1
		c0,0,0,0-0.1-0.1c0,0,0,0-0.1,0c0,0,0,0-0.1,0.1C2.8,12.4,2.8,12.4,2.7,12.5"/>
</g>
<g>
	<defs>
		<path id="SVGID_5_" d="M2.9,12.3C2.8,12.3,2.8,12.3,2.9,12.3C2.8,12.4,2.8,12.4,2.9,12.3c-0.1,0.1-0.1,0.1-0.1,0.1c0,0,0,0,0,0.1
			c0,0,0,0.1,0,0.1c0,0.1,0,0.1,0,0.2c0,0.1,0,0.1,0,0.1c0,0,0,0.1,0.1,0.1c0,0,0,0,0.1,0.1s0,0,0.1,0c0,0,0,0,0.1-0.1
			c0,0,0-0.1,0-0.1c0,0,0-0.1,0-0.2c0-0.1,0-0.1,0-0.2c0-0.1,0-0.1,0-0.1c0,0,0-0.1-0.1-0.1C3,12.3,2.9,12.3,2.9,12.3
			C2.9,12.3,2.9,12.3,2.9,12.3C2.9,12.3,2.9,12.3,2.9,12.3"/>
	</defs>
	<clipPath id="SVGID_6_">
		<use xlink:href="#SVGID_5_"  style="overflow:visible;"/>
	</clipPath>
	<g class="st5">
		<g>
			<defs>
				<rect id="SVGID_7_" x="2.7" y="12.3" width="0.4" height="0.8"/>
			</defs>
			<clipPath id="SVGID_8_">
				<use xlink:href="#SVGID_7_"  style="overflow:visible;"/>
			</clipPath>
			<g class="st6">
				<defs>
					<rect id="SVGID_9_" x="2.7" y="12.3" width="0.4" height="0.8"/>
				</defs>
				<clipPath id="SVGID_10_">
					<use xlink:href="#SVGID_9_"  style="overflow:visible;"/>
				</clipPath>
				<g style="clip-path:url(#SVGID_10_);">
					
						<image style="overflow:visible;" width="3" height="3" xlink:href="7EADD0B509A6BF42.jpg"  transform="matrix(0.48 0 0 0.48 2.4 12)">
					</image>
				</g>
			</g>
		</g>
	</g>
</g>
<g>
	<defs>
		<rect id="SVGID_11_" x="2.1" y="6" width="45.7" height="28.1"/>
	</defs>
	<clipPath id="SVGID_12_">
		<use xlink:href="#SVGID_11_"  style="overflow:visible;"/>
	</clipPath>
	<path class="st7" d="M3.8,12c0,0,0,0.1,0,0.2c0,0.1,0,0.1,0,0.2c0,0.1,0,0.1,0,0.1c0,0,0,0.1,0.1,0.1c0,0,0,0,0.1,0.1
		c0,0,0,0,0.1,0c0,0,0,0,0.1-0.1c0,0,0-0.1,0-0.1c0,0,0-0.1,0-0.2c0-0.1,0-0.1,0-0.2c0-0.1,0-0.1,0-0.1c0,0,0-0.1-0.1-0.1
		c0,0,0-0.1-0.1-0.1c0,0,0,0-0.1,0c0,0,0,0-0.1,0.1C3.8,11.9,3.8,11.9,3.8,12"/>
</g>
<g>
	<defs>
		<path id="SVGID_13_" d="M3.9,11.8C3.9,11.8,3.8,11.8,3.9,11.8c-0.1,0.1-0.1,0.1-0.1,0.1c0,0,0,0,0,0c0,0,0,0,0,0.1
			c0,0,0,0.1,0,0.2c0,0.1,0,0.1,0,0.2c0,0.1,0,0.1,0,0.1c0,0,0,0.1,0.1,0.1c0,0,0,0,0.1,0.1c0,0,0,0,0.1,0c0,0,0,0,0.1-0.1
			c0,0,0-0.1,0-0.1c0,0,0-0.1,0-0.2c0-0.1,0-0.1,0-0.2c0-0.1,0-0.1,0-0.1c0,0,0-0.1-0.1-0.1C4,11.8,4,11.8,3.9,11.8
			C3.9,11.8,3.9,11.8,3.9,11.8C3.9,11.8,3.9,11.8,3.9,11.8"/>
	</defs>
	<clipPath id="SVGID_14_">
		<use xlink:href="#SVGID_13_"  style="overflow:visible;"/>
	</clipPath>
	<g class="st8">
		<g>
			<defs>
				<rect id="SVGID_15_" x="3.7" y="11.8" width="0.4" height="0.8"/>
			</defs>
			<clipPath id="SVGID_16_">
				<use xlink:href="#SVGID_15_"  style="overflow:visible;"/>
			</clipPath>
			<g class="st9">
				<defs>
					<rect id="SVGID_17_" x="3.7" y="11.8" width="0.4" height="0.8"/>
				</defs>
				<clipPath id="SVGID_18_">
					<use xlink:href="#SVGID_17_"  style="overflow:visible;"/>
				</clipPath>
				<g style="clip-path:url(#SVGID_18_);">
					
						<image style="overflow:visible;" width="3" height="3" xlink:href="7EADD0B509A6BF46.jpg"  transform="matrix(0.48 0 0 0.48 3.36 11.52)">
					</image>
				</g>
			</g>
		</g>
	</g>
</g>
<g>
	<defs>
		<rect id="SVGID_19_" x="2.1" y="6" width="45.7" height="28.1"/>
	</defs>
	<clipPath id="SVGID_20_">
		<use xlink:href="#SVGID_19_"  style="overflow:visible;"/>
	</clipPath>
	<path class="st10" d="M12.9,8.7L9.5,6.2C9,5.9,8.4,5.9,7.9,6.2L5,8.6C4.8,8.8,4.6,9,4.6,9.3L4,11.7c-0.1,0.5,0.1,0.9,0.5,1.2
		l3.4,2.5c0.5,0.3,1.1,0.3,1.6,0l2.9-2.4c0.2-0.2,0.4-0.4,0.4-0.7l0.5-2.4C13.4,9.5,13.3,9,12.9,8.7 M4.5,11.4
		c-0.1,0-0.1-0.1-0.1-0.2l0.4-1.9c0.1-0.3,0.2-0.5,0.4-0.7l2.4-1.9c0.1-0.1,0.2-0.1,0.3,0c0.1,0.1,0.1,0.2,0.1,0.2L7.7,8.7
		C7.6,9,7.5,9.2,7.2,9.4l-2.5,2C4.7,11.5,4.6,11.5,4.5,11.4 M11.5,13.3l-2.4,2c-0.3,0.2-0.7,0.2-0.9,0L5.1,13
		c-0.4-0.3-0.4-0.8,0-1.1l2.4-2c0.3-0.2,0.7-0.2,0.9,0l3.1,2.3C11.9,12.4,11.9,13,11.5,13.3 M13.1,9.6l-0.4,1.6
		c-0.1,0.5-0.7,0.7-1.2,0.4L8.6,9.4C8.4,9.2,8.3,9,8.3,8.7l0.4-1.6c0.1-0.5,0.7-0.7,1.2-0.4l2.9,2.2C13,9.1,13.1,9.4,13.1,9.6"/>
	<path class="st10" d="M11.4,10.8c0.1,0,0.1,0.1,0.2,0.1c0.1,0,0.1,0,0.2,0c0,0,0.1,0,0.1,0c0,0,0.1-0.1,0.1-0.1c0,0,0-0.1,0-0.2
		c0-0.1,0-0.1-0.1-0.2c0-0.1-0.1-0.1-0.1-0.2c0-0.1-0.1-0.1-0.2-0.2c-0.1,0-0.1-0.1-0.2-0.1c-0.1,0-0.1,0-0.2,0c0,0-0.1,0-0.1,0
		c0,0-0.1,0.1-0.1,0.1c0,0,0,0.1,0,0.2c0,0.1,0,0.1,0.1,0.2c0,0.1,0.1,0.1,0.1,0.2C11.3,10.7,11.4,10.7,11.4,10.8"/>
	<path class="st10" d="M9.7,9.4c0.1,0,0.1,0.1,0.2,0.1c0.1,0,0.1,0,0.2,0c0,0,0.1,0,0.1,0c0,0,0.1-0.1,0.1-0.1c0,0,0-0.1,0-0.2
		c0-0.1,0-0.1-0.1-0.2C10.1,9.1,10.1,9,10,9c0-0.1-0.1-0.1-0.2-0.2c-0.1,0-0.1-0.1-0.2-0.1c-0.1,0-0.1,0-0.2,0c0,0-0.1,0-0.1,0
		c0,0-0.1,0.1-0.1,0.1c0,0,0,0.1,0,0.1c0,0.1,0,0.1,0.1,0.2c0,0.1,0.1,0.1,0.1,0.2C9.6,9.3,9.6,9.4,9.7,9.4"/>
	<path class="st10" d="M10.7,9.5c0.1,0,0.1,0.1,0.2,0.1c0.1,0,0.1,0,0.2,0c0,0,0.1,0,0.1,0c0,0,0.1-0.1,0.1-0.1c0,0,0-0.1,0-0.2
		c0-0.1,0-0.1-0.1-0.2C11.1,9.1,11.1,9,11,9c0-0.1-0.1-0.1-0.2-0.2c-0.1,0-0.1-0.1-0.2-0.1c-0.1,0-0.1,0-0.2,0c0,0-0.1,0-0.1,0
		c0,0-0.1,0.1-0.1,0.1c0,0,0,0.1,0,0.1c0,0.1,0,0.1,0.1,0.2c0,0.1,0.1,0.1,0.1,0.2C10.6,9.4,10.7,9.4,10.7,9.5"/>
	<path class="st10" d="M11.7,9.5c0.1,0,0.1,0.1,0.2,0.1c0.1,0,0.1,0,0.2,0c0,0,0.1,0,0.1,0c0,0,0.1-0.1,0.1-0.1c0,0,0-0.1,0-0.1
		c0-0.1,0-0.1-0.1-0.2c0-0.1-0.1-0.1-0.1-0.2C12,9,12,8.9,11.9,8.9c-0.1,0-0.1-0.1-0.2-0.1c-0.1,0-0.1,0-0.2,0c0,0-0.1,0-0.1,0
		c0,0-0.1,0.1-0.1,0.1c0,0,0,0.1,0,0.2c0,0.1,0,0.1,0.1,0.2c0,0.1,0.1,0.1,0.1,0.2C11.6,9.4,11.7,9.5,11.7,9.5"/>
	<path class="st10" d="M10,8.2c0.1,0,0.1,0.1,0.2,0.1c0.1,0,0.1,0,0.2,0c0,0,0.1,0,0.1,0c0,0,0.1-0.1,0.1-0.1c0,0,0-0.1,0-0.1
		c0-0.1,0-0.1-0.1-0.2c0-0.1-0.1-0.1-0.1-0.2c0-0.1-0.1-0.1-0.2-0.2c-0.1,0-0.1-0.1-0.2-0.1c-0.1,0-0.1,0-0.2,0c0,0-0.1,0-0.1,0
		c0,0-0.1,0.1-0.1,0.1c0,0,0,0.1,0,0.2c0,0.1,0,0.1,0.1,0.2c0,0.1,0.1,0.1,0.1,0.2C9.9,8.1,10,8.1,10,8.2"/>
	<path class="st10" d="M6.1,9.3c0.1,0,0.1-0.1,0.2-0.1C6.3,9.1,6.3,9.1,6.4,9c0-0.1,0.1-0.1,0.1-0.2c0-0.1,0-0.1,0.1-0.1
		c0,0,0-0.1,0-0.1c0,0,0,0-0.1,0c0,0-0.1,0-0.1,0c0,0-0.1,0.1-0.1,0.1c-0.1,0-0.1,0.1-0.2,0.1C6,8.9,6,9,5.9,9
		c0,0.1-0.1,0.1-0.1,0.2c0,0.1-0.1,0.1-0.1,0.2c0,0,0,0.1,0,0.1c0,0,0,0,0.1,0c0,0,0.1,0,0.1,0C6,9.4,6,9.4,6.1,9.3"/>
	<path class="st10" d="M6.2,12.9c-0.1,0-0.1-0.1-0.1-0.2C6,12.7,6,12.6,6,12.6c0-0.1,0-0.1,0-0.2c0-0.1,0.1-0.1,0.1-0.1
		c0.1,0,0.1-0.1,0.2-0.1c0.1,0,0.1,0,0.2,0c0.1,0,0.1,0,0.2,0c0.1,0,0.1,0.1,0.2,0.1c0.1,0,0.1,0.1,0.1,0.2c0,0.1,0.1,0.1,0.1,0.2
		c0,0.1,0,0.1,0,0.2c0,0.1-0.1,0.1-0.1,0.1C6.9,13,6.9,13,6.8,13c-0.1,0-0.1,0-0.2,0c-0.1,0-0.2,0-0.2,0C6.3,13,6.2,12.9,6.2,12.9"
		/>
	<path class="st10" d="M7.9,14.2c-0.1,0-0.1-0.1-0.1-0.2c0-0.1-0.1-0.1-0.1-0.2c0-0.1,0-0.1,0-0.2c0-0.1,0.1-0.1,0.1-0.1
		c0.1,0,0.1-0.1,0.2-0.1c0.1,0,0.1,0,0.2,0c0.1,0,0.1,0,0.2,0c0.1,0,0.1,0.1,0.2,0.1c0.1,0,0.1,0.1,0.1,0.2c0,0.1,0.1,0.1,0.1,0.2
		c0,0.1,0,0.1,0,0.2c0,0.1-0.1,0.1-0.1,0.1c-0.1,0-0.1,0.1-0.2,0.1c-0.1,0-0.1,0-0.2,0c-0.1,0-0.1,0-0.2,0C8,14.3,8,14.3,7.9,14.2"
		/>
	<path class="st10" d="M7.7,11.6c-0.1,0-0.1-0.1-0.1-0.2c0-0.1-0.1-0.1-0.1-0.2c0-0.1,0-0.1,0-0.2c0-0.1,0.1-0.1,0.1-0.2
		c0.1,0,0.1-0.1,0.2-0.1c0.1,0,0.1,0,0.2,0c0.1,0,0.2,0,0.2,0c0.1,0,0.1,0.1,0.2,0.1c0.1,0,0.1,0.1,0.1,0.2c0,0.1,0.1,0.1,0.1,0.2
		c0,0.1,0,0.1,0,0.2c0,0.1-0.1,0.1-0.1,0.1c-0.1,0-0.1,0.1-0.2,0.1c-0.1,0-0.1,0-0.2,0c-0.1,0-0.1,0-0.2,0
		C7.8,11.7,7.8,11.7,7.7,11.6"/>
	<path class="st10" d="M9.5,13c-0.1,0-0.1-0.1-0.1-0.2c0-0.1-0.1-0.1-0.1-0.2c0-0.1,0-0.1,0-0.2c0-0.1,0.1-0.1,0.1-0.1
		c0.1,0,0.1-0.1,0.2-0.1c0.1,0,0.1,0,0.2,0c0.1,0,0.1,0,0.2,0c0.1,0,0.1,0.1,0.2,0.1c0.1,0,0.1,0.1,0.1,0.2c0,0.1,0.1,0.1,0.1,0.2
		c0,0.1,0,0.1,0,0.2c0,0.1-0.1,0.1-0.1,0.1c-0.1,0-0.1,0.1-0.2,0.1c-0.1,0-0.1,0-0.2,0c-0.1,0-0.1,0-0.2,0C9.6,13.1,9.5,13,9.5,13"
		/>
	<path class="st10" d="M7.2,14.7L7,14.5c-0.1,0.1-0.2,0.1-0.3,0.1l-2.3,0.1c-0.1,0-0.1,0-0.2-0.1c0,0-0.1-0.1,0-0.2l0.4-1.9
		l-0.2-0.1l-0.1-0.9l0-0.3l-0.8-1c0,0,0-0.1,0-0.2c0-0.1,0.1-0.1,0.1-0.1l0.9,0l0-0.2L3.3,10c-0.2,0-0.4,0.2-0.4,0.4l-0.6,2.6
		c0,0.1,0,0.3,0.1,0.4l1.4,1.6C3.8,15,4,15,4.2,15l2.8-0.2C7,14.9,7.2,14.8,7.2,14.7 M3.9,14.4C3.9,14.4,3.8,14.5,3.9,14.4
		c-0.1,0.1-0.2,0.1-0.2,0l-1.1-1.3c-0.1-0.1-0.1-0.3-0.1-0.4L3,10.7c0-0.1,0.1-0.1,0.1-0.1c0.1,0,0.1,0,0.2,0l1,1.2
		c0.1,0.1,0.2,0.3,0.1,0.5L3.9,14.4z"/>
</g>
</svg>
