<svg xmlns="http://www.w3.org/2000/svg" viewBox="0 0 31.55 26"><defs><style>.cls-1{fill:#fff;}.cls-2{fill:none;stroke:#fff;stroke-miterlimit:10;stroke-width:0.5px;}</style></defs><title>sixlottery</title><g id="图层_2" data-name="图层 2"><g id="左側選單"><path class="cls-1" d="M5.19,10.36h3.6v1.16H.16V10.36h5ZM3.13,12.42l-.5,4q-.16,1.11-.93,1.11H.24V16.36h.6q.32,0,.41-.56l.44-3.38Zm2.4,0H7L7.48,16q.06.34.3.34h.71v1.2H7.07a.79.79,0,0,1-.83-.67Z"/><path class="cls-1" d="M11.49,9.27h5.29l.74,1.2q.2.41.42.41h.37V12h-1a.78.78,0,0,1-.65-.36L15.8,10.4H12.47l-.94,1.25a.81.81,0,0,1-.67.36H9.8V10.89h.45q.23,0,.44-.41Zm6.6,3.07v1.13H10V12.34ZM10.14,14H17.9v2.81q0,.83-1,.83H10.14Zm6,2.52c.22,0,.34-.09.34-.26V15.12h-5v1.39Z"/><path class="cls-1" d="M20,14.74h1.2L20.81,17q-.16.79-.81.79h-.68V16.69h.27q.11,0,.18-.33Zm4-5.59H25.4A1.67,1.67,0,0,1,25,10.22a1.13,1.13,0,0,1-.84.29H19.36V9.43h4.28A.42.42,0,0,0,24.06,9.16Zm.67,4.05v1.06h-2v3.48H21.5V14.26H19.44V13.21H21.5v-.6h1.24v.6Zm-5.25-2.32H20.6v.45c0,.1.06.14.19.14H21v.94h-.83q-.67,0-.67-.56Zm1.83,0h1.13v.45c0,.1.06.14.18.14h.23v.94H22q-.68,0-.68-.56ZM23,14.74h1.2l.27,1.65q0,.3.26.3h.08v1.09h-.68q-.53,0-.67-.6Zm.57-3.86h1.12v1q0,.56-.67.56h-.86v-.94h.26c.1,0,.15,0,.15-.14Z"/><polygon class="cls-1" points="29.95 8.4 25.68 13.07 27.55 14 25.95 16.4 29.95 13.2 28.35 12.4 29.95 8.4"/><polygon class="cls-1" points="31.55 13.2 25.95 18 28.35 19.6 24.35 26 30.75 19.6 28.35 18 31.55 13.2"/><circle class="cls-1" cx="4.75" cy="8.8" r="0.8" transform="translate(-0.42 0.24) rotate(-2.79)"/><circle class="cls-1" cx="7.15" cy="4.8" r="0.8"/><circle class="cls-1" cx="11.55" cy="2" r="1.2"/><circle class="cls-1" cx="17.15" cy="1.2" r="1.2"/><circle class="cls-1" cx="22.75" cy="2" r="1.2"/><circle class="cls-1" cx="27.15" cy="5.6" r="1.6"/><line class="cls-2" y1="20" x2="26" y2="20"/><path class="cls-1" d="M6.45,23.19c0-.38,0-.83,0-1.16h0c-.09.32-.2.65-.34,1l-.48,1.31H5.32l-.44-1.28c-.13-.38-.24-.73-.31-1h0c0,.34,0,.79-.05,1.19l-.07,1.16H4.11l.19-2.69h.44L5.2,23c.11.33.2.63.27.91h0c.07-.27.16-.57.28-.91l.48-1.3h.44l.17,2.69H6.52Z"/><path class="cls-1" d="M8.59,23.53l-.28.85H8l.92-2.69h.42l.92,2.69H9.83l-.29-.85Zm.88-.27-.26-.78c-.06-.18-.1-.34-.14-.49h0c0,.16-.08.32-.14.49l-.26.78Z"/><path class="cls-1" d="M11.4,21.72a3.65,3.65,0,0,1,.67-.06,1.1,1.1,0,0,1,.78.22.67.67,0,0,1,.21.51.71.71,0,0,1-.51.69h0a.67.67,0,0,1,.4.54,4.31,4.31,0,0,0,.21.74H12.8a3.44,3.44,0,0,1-.18-.64c-.08-.37-.22-.51-.54-.52h-.33v1.17H11.4Zm.35,1.23h.36c.37,0,.61-.2.61-.51s-.25-.5-.62-.5a1.42,1.42,0,0,0-.34,0Z"/><path class="cls-1" d="M14.35,21.68h.35V23h0l.21-.29.82-1h.43l-1,1.14,1.05,1.55h-.41L15,23.05l-.26.3v1h-.35Z"/><path class="cls-1" d="M17.67,21.68v2.69h-.35V21.68Z"/><path class="cls-1" d="M20.56,24.38l-.34-.6c-.14-.23-.23-.38-.31-.53h0c-.08.16-.15.3-.29.54l-.32.59h-.4L19.7,23l-.79-1.33h.4l.36.63c.1.18.18.31.25.46h0c.08-.16.14-.28.24-.46l.37-.63h.4L20.12,23,21,24.38Z"/></g></g></svg>