<?xml version="1.0" encoding="utf-8"?>
<!-- Generator: Adobe Illustrator 21.0.0, SVG Export Plug-In . SVG Version: 6.00 Build 0)  -->
<svg version="1.1" id="logo_x5F_cqssc" xmlns="http://www.w3.org/2000/svg" xmlns:xlink="http://www.w3.org/1999/xlink" x="0px"
	 y="0px" viewBox="0 0 49.3 38.9" style="enable-background:new 0 0 49.3 38.9;" xml:space="preserve">
<style type="text/css">
	.st0{fill:#FFFFFF;}
</style>
<title>logo_cqssc</title>
<g>
	<g>
		<path class="st0" d="M34.5,24.4c-0.7-0.3-1.5-0.6-2.3-0.9c3.2-2.4,6.4-4.7,9.6-7.1c-0.6-1.1-1.3-1.6-2.5-1.5c-3.1,0.1-6.2,0-9.4,0
			c-0.7,0-1.5,0.1-2.2,0.3c-1.5,0.4-2.5,1.7-2.6,3.4c3,0,6,0,9.2,0c-1.9,1.5-3.6,2.7-5.3,4.1c-0.6,0.5-1.1,1.3-1.7,2.1
			c0.6,0.3,1,0.3,1.3,0.6c0.5,0.4,1.2,0.9,1.5,1.4c1.1,1.9,0.9,3.7-0.7,5.1c-1.3,1.1-2.7,2.1-4.3,2.8c-2.9,1.3-6,2.4-9,3.6
			c-0.2,0.1-0.5,0.2-0.7,0.3c0,0.1,0.1,0.2,0.1,0.3c2.4-0.3,4.9-0.6,7.3-1c3.3-0.6,6.5-1.5,9.5-2.9c1.7-0.7,3.3-1.7,4.3-3.3
			C38.1,29,38.2,26,34.5,24.4z"/>
		<path class="st0" d="M19,27.3c1.8,0,3.6,0,5.4,0c0.1-1,0.1-1.9,0.2-2.8c-0.3-0.1-0.5-0.1-0.8-0.2c0.1-1.6,0.3-3.2,0.3-4.7
			c0-1.6-0.8-2.4-2.4-2.4c-0.7,0-1.5,0-2.2,0c0-0.6,0-1,0-1.6c-1,0-1.9,0-2.9,0c-0.1,0.5-0.1,1-0.2,1.6c-0.8,0-1.5,0-2.2,0
			c-0.1,1-0.1,1.9-0.2,2.9c0.6,0,1-0.1,1.4,0c0.3,0.1,0.7,0.4,0.7,0.7c0,1.2-0.1,2.3-0.2,3.6c-1,0-1.9,0-2.9,0
			c-0.1,1-0.1,1.9-0.2,2.9c0.9,0,1.7,0,2.6,0c-0.6,1.7-1.4,3-2.7,4.1c-0.2,0.2-0.5,0.4-0.5,0.7c-0.1,1,0,2,0,3
			C15,34.7,17.4,31.9,19,27.3z M19.4,20.2c1.7-0.2,1.9,0,1.8,1.5c-0.1,0.8-0.1,1.7-0.2,2.5c0,0.1-0.1,0.1-0.1,0.2
			c-0.5,0-1.1,0-1.7,0C19.2,23,19.3,21.7,19.4,20.2z"/>
		<path class="st0" d="M8.2,17c-0.8,0-1.5,0-2.4,0c-0.4,5.8-0.7,11.5-1.1,17.3c2,0.1,2.5-0.4,2.6-2.1c0.3-4.7,0.6-9.4,0.9-14.1
			C8.2,17.6,8.2,17.3,8.2,17z"/>
		<path class="st0" d="M34.8,23.2c2.9-1.5,5.8-3,8.9-4.6c-0.4-0.5-0.7-0.8-1-1.2c-2.7,1.9-5.3,3.8-8,5.7
			C34.8,23.1,34.8,23.2,34.8,23.2z"/>
		<path class="st0" d="M35.9,23.6c3-1,6-2,9.1-3c-0.3-0.5-0.5-0.8-0.8-1.2c-2.9,1.4-5.7,2.7-8.4,4C35.8,23.5,35.9,23.6,35.9,23.6z"
			/>
		<path class="st0" d="M12.7,22.9l0.2-3.2h-0.8c0,0,0,0-0.1,0c0.1-1.3,0.2-2.6,0.2-3.9c-1.1,0-2.1,0-3.2,0c-0.4,6.5-0.8,13-1.2,19.6
			c0.5,0,1,0,1.4,0c1.3,0,1.8-0.5,1.9-1.8c0.1-0.9,0.1-1.8,0.2-2.8c0.2-2.7,0.4-5.4,0.5-8L12.7,22.9z"/>
		<path class="st0" d="M18,32.6c0,1.7,1.4,3.1,3.1,3.1s3.1-1.4,3.2-3.1c0-1.7-1.3-3.2-3-3.2C19.5,29.4,18,30.9,18,32.6z M19.7,33.7
			c-0.4,0-0.7-0.3-0.7-0.6c0-0.4,0.3-0.7,0.6-0.7c0.4,0,0.7,0.3,0.7,0.6C20.3,33.4,20.1,33.7,19.7,33.7z M22.8,32.4
			c0.4,0,0.7,0.3,0.7,0.6c0,0.4-0.3,0.7-0.6,0.7c-0.4,0-0.7-0.3-0.7-0.6C22.2,32.8,22.4,32.5,22.8,32.4z M21.5,31.2
			c0,0.4-0.3,0.8-0.8,0.8c-0.4,0-0.8-0.3-0.8-0.8c0-0.4,0.3-0.8,0.8-0.8C21.2,30.5,21.5,30.8,21.5,31.2z"/>
	</g>
	<g>
		<path class="st0" d="M13.6,12.2c0.6-1.5,1-2.8,1.2-4.5h1.8c-0.2,1.7-0.6,3.3-1.2,4.5H13.6z M14.5,3.5l-0.8-2.4h1.8l0.9,2.4H14.5z
			 M14.7,6.9l-0.8-2.6h1.8L16.5,7L14.7,6.9z M16.8,12.2v-0.7h3l-0.1-9.1H17V1.7h7.3v0.7h-2.8l0.1,9.1h3.1v0.7H16.8z"/>
		<path class="st0" d="M25.2,2.2h2.1L27.4,1h1.8v1.1h3.3L32.4,1h1.8v1.1h2.1v0.7h-2.1V4h-1.8V2.8h-3.3V4h-1.7V2.8h-2.1L25.2,2.2z
			 M25.4,10.4L26,7h1.8l-0.6,3.4H25.4z M26.6,5.4h2.2c0-0.4,0.1-0.8,0.1-1.2h1.8c0,0.4-0.1,0.8-0.1,1.2h2.6c0.4,0,0.8,0.3,0.8,0.8
			v5.2c0,0.4-0.3,0.8-0.8,0.8h-2.7v-0.7h1.2c0.2,0,0.4-0.2,0.4-0.4V6.6c0-0.2-0.2-0.4-0.5-0.4h-1.2c-0.3,2.1-0.7,4.1-1.3,6.1h-2
			c0.8-2,1.3-4,1.5-6.1h-2.1L26.6,5.4z M34.6,10.3L34.2,7H36l0.4,3.4L34.6,10.3z"/>
	</g>
</g>
</svg>
