<?xml version="1.0" encoding="utf-8"?>
<!-- Generator: Adobe Illustrator 21.1.0, SVG Export Plug-In . SVG Version: 6.00 Build 0)  -->
<svg version="1.1" id="圖層_1" xmlns="http://www.w3.org/2000/svg" xmlns:xlink="http://www.w3.org/1999/xlink" x="0px" y="0px"
	 width="50px" height="40px" viewBox="0 0 50 40" style="enable-background:new 0 0 50 40;" xml:space="preserve">
<style type="text/css">
	.st0{clip-path:url(#SVGID_2_);fill:#FFFFFF;}
	.st1{clip-path:url(#SVGID_2_);fill-rule:evenodd;clip-rule:evenodd;fill:#FFFFFF;}
</style>
<g>
	<defs>
		<rect id="SVGID_1_" x="1.6" y="3.2" width="46.9" height="33.5"/>
	</defs>
	<clipPath id="SVGID_2_">
		<use xlink:href="#SVGID_1_"  style="overflow:visible;"/>
	</clipPath>
	<path class="st0" d="M12.3,28.2L12.3,28.2l1.7-0.1c1.3,0,2.2-0.4,2.9-1.1c0.3-0.3,0.5-0.6,0.6-1c0.2-0.5,0.3-1.1,0.3-1.7
		c0-1.2-0.3-2.2-0.9-2.8c-0.3-0.4-0.8-0.7-1.3-0.9c0,0-0.1,0-0.1,0c-0.1,0-0.2,0-0.3-0.1c0,0,0,0-0.1,0c-0.1,0-0.2,0-0.3,0
		c0,0,0,0,0,0c-0.1,0-0.3,0-0.4,0H9.1v12.1h3.1V28.2z M12.3,22.9h0.9c0.6,0,1,0.2,1.2,0.4c0.3,0.3,0.4,0.6,0.4,1
		c0,0.4-0.1,0.7-0.4,1c-0.2,0.3-0.6,0.4-1.3,0.4h-0.8V22.9z"/>
	<polygon class="st0" points="21.1,29.6 22.8,27.5 23,28.2 24.9,32.6 28.7,32.6 24.9,25 28.7,20.5 24.9,20.5 24.5,20.5 21.1,25 
		21.1,20.5 18,20.5 18,32.6 21.1,32.6 	"/>
	<path class="st0" d="M43.9,17h-2.8c-0.1,0-0.3,0.1-0.3,0.2l-0.1,0.9c0,0.1,0.1,0.2,0.2,0.2h2.8c0.1,0,0.3-0.1,0.3-0.2l0.1-0.9
		C44.2,17,44.1,17,43.9,17"/>
	<path class="st0" d="M46.9,16.4c-0.4-0.9-0.9-1.7-1.5-2.5C41.9,9.4,36.1,7.8,31,9.5c-3-3.8-7.7-6.2-12.9-6.2
		c-9.1,0-16.5,7.4-16.5,16.5c0,2.7,0.7,5.3,1.8,7.6c2.6,5.6,8.3,9.4,14.9,9.4c3.7,0,7-1.2,9.8-3.2c4.6,3,10.7,2.9,15.3-0.6
		C48.5,28.9,49.8,21.9,46.9,16.4 M39.4,16.1c-0.4,0.9-0.7,1.8-1.2,2.6h-0.9c0.4-0.8,0.9-1.7,1.2-2.6H39.4z M39.9,19.2h0.9
		c-0.3,0.8-0.7,1.4-1,2h-0.9C39.2,20.7,39.6,19.9,39.9,19.2 M32.6,19.8l1.6-0.4l0.4-2.4h-1.5l0.1-0.3h1.4l0.3-1.4H36l-1.1,6h-0.9
		l0.2-1.2l-1.6,0.4L32.6,19.8z M35.4,32.8H32h-1.7v-0.4H32v-7.6c0,0,0-0.1,0-0.1c0-0.1-0.1-0.1-0.1-0.2c0,0,0,0-0.1-0.1
		c-0.1-0.1-0.2-0.1-0.5-0.1c-0.8,2.1-2,4-3.5,5.4l1.3,2.5c0.1,0.1,0.1,0.3,0,0.4c-0.1,0.1-0.2,0.2-0.3,0.2h-3.8
		c-0.1,0-0.3-0.1-0.3-0.2l-0.2-0.4c-2.6,1.3-5.7,1.9-8.8,1.3c-1.1-0.2-2.1-0.5-3-0.9c-0.1,0.1-0.2,0.2-0.3,0.2H9.1
		c-0.2,0-0.4-0.2-0.4-0.4v-2.2c-3.6-3.1-5.6-8-4.7-13.1C5.3,9.6,12.6,4.4,20.3,5.7C28,7,33.2,14.3,31.9,22c-0.1,0.7-0.3,1.4-0.5,2
		c0.1,0,0.2,0,0.3,0c0.5,0,1-0.1,1.5-0.2h0h0.2h0.5v8.5H34h1.4V32.8z M35.8,20.7l1-5.6h0.9l-0.9,5.4c0,0.1,0.1,0.2,0.2,0.2h1.5
		l-0.1,0.4h-2.3C36,21.2,35.8,21,35.8,20.7 M42.9,30.1c-0.2,0.5-0.4,1-0.8,1.4c-0.3,0.4-0.7,0.8-1.1,1c-0.4,0.2-0.9,0.3-1.3,0.3
		c-0.5,0-0.9-0.1-1.3-0.3s-0.8-0.6-1.1-1c-0.3-0.4-0.6-0.9-0.8-1.5c-0.2-0.5-0.2-1.1-0.2-1.7c0-0.6,0.1-1.2,0.2-1.7
		c0.2-0.6,0.4-1,0.7-1.4c0.3-0.4,0.7-0.7,1.1-1c0.4-0.2,0.9-0.3,1.4-0.3c0.5,0,1,0.1,1.4,0.3c0.4,0.2,0.8,0.6,1.1,1.1
		c0.3,0.4,0.6,0.9,0.7,1.4c0.2,0.5,0.2,1.1,0.2,1.7C43.1,29.1,43.1,29.7,42.9,30.1 M43.9,21.2c-0.1-0.6-0.3-1.3-0.3-2h0.9
		c0,0.8,0.1,1.4,0.3,2H43.9z M44.9,18.3c0,0.2-0.2,0.4-0.5,0.4h-1.7l-0.4,2c-0.1,0.2-0.3,0.4-0.5,0.4h-1.3l0.1-0.4h0.5
		c0.1,0,0.3-0.1,0.3-0.2l0.4-1.9h-1.7c-0.2,0-0.4-0.2-0.4-0.4l0.2-1.2c0.1-0.2,0.3-0.4,0.5-0.4h4.3c0.2,0,0.4,0.2,0.4,0.4L44.9,18.3
		z M45.7,16.1h-6l0.1-0.4h2.5l0.1-0.5h0.9l-0.1,0.5h2.5L45.7,16.1z"/>
	<path class="st0" d="M40.4,24.6c-0.2-0.2-0.5-0.2-0.8-0.2c-0.2,0-0.5,0.1-0.6,0.2c-0.2,0.1-0.3,0.2-0.3,0.5
		c-0.1,0.2-0.2,0.6-0.2,1.1c0,0.5-0.1,1.4-0.1,2.7v0.3c0,1.5,0.1,2.5,0.2,2.9c0.2,0.4,0.5,0.6,1,0.6c0.5,0,0.8-0.2,1-0.6
		c0.2-0.4,0.2-1.4,0.2-3.1v-0.2v-2.3c0.1-0.6,0-1,0-1.1C40.7,25.1,40.7,24.7,40.4,24.6"/>
	<path class="st0" d="M30.3,24.1v0.3H31c0.1,0,0.2,0,0.3,0c0-0.1,0.1-0.2,0.1-0.4C31,24.1,30.7,24.1,30.3,24.1"/>
	<path class="st1" d="M21.8,11.5c0,0.1-0.1,0.2-0.3,0.2c0,0-0.1,0-0.1,0c-0.9-0.4-1.8-0.6-2.7-0.7c-0.2,0-0.3-0.2-0.3-0.3l0.3-3.6
		c0-0.2,0.2-0.3,0.3-0.3c1.4,0.1,2.8,0.5,4.2,1.1c0.1,0.1,0.2,0.2,0.1,0.4L21.8,11.5z"/>
	<path class="st1" d="M25.9,16.1l3.4-1.1c0.1,0,0.2,0,0.2,0c0.1,0,0.1,0.1,0.2,0.2c0.3,1,0.6,2.1,0.6,3.2c0,0.2,0,0.4,0,0.6
		c0,0.2-0.1,0.3-0.3,0.3c0,0,0,0,0,0l-3.6,0c-0.1,0-0.2,0-0.2-0.1c-0.1-0.1-0.1-0.1-0.1-0.2c0-0.1,0-0.3,0-0.4
		c0-0.7-0.2-1.4-0.4-2.1C25.7,16.3,25.7,16.2,25.9,16.1"/>
	<path class="st1" d="M12,8.3c1.3-0.7,2.6-1.2,4-1.4c0.1,0,0.2,0,0.2,0.1c0.1,0,0.1,0.1,0.1,0.2l0.6,3.5c0,0.2-0.1,0.3-0.2,0.3
		c-0.9,0.1-1.8,0.4-2.7,0.9c0,0-0.1,0-0.1,0c0,0-0.1,0-0.1,0c-0.1,0-0.1-0.1-0.2-0.1l-1.8-3.1C11.8,8.5,11.9,8.4,12,8.3"/>
	<path class="st1" d="M7.1,13.6c0-0.1,0-0.2,0-0.2c0.7-1.3,1.5-2.4,2.6-3.4c0.1-0.1,0.1-0.1,0.2-0.1c0.1,0,0.2,0,0.2,0.1l2.4,2.7
		c0.1,0.1,0.1,0.1,0.1,0.2c0,0.1,0,0.2-0.1,0.2c-0.7,0.6-1.3,1.4-1.7,2.2c0,0.1-0.1,0.2-0.2,0.2c-0.1,0-0.1,0-0.2,0l-3.2-1.7
		C7.2,13.7,7.1,13.6,7.1,13.6"/>
	<path class="st1" d="M18,16.3C18,16.3,18,16.3,18,16.3l6.2-0.6c0.1,0,0.1,0,0.1,0.1c0,0.1,0,0.1-0.1,0.2l-5.8,2c0,0,0,0.1-0.1,0.1
		c-0.2,0.3-0.5,0.5-0.8,0.6c-0.4,0.1-0.7,0-1-0.2c-0.3-0.2-0.5-0.5-0.6-0.9c-0.1-0.4,0-0.7,0.2-1c0.2-0.3,0.5-0.5,0.8-0.6
		C17.3,16,17.7,16.1,18,16.3"/>
	<path class="st1" d="M22.9,12.5c0-0.1,0-0.2,0.1-0.2l2.2-2.8c0-0.1,0.1-0.1,0.2-0.1c0.1,0,0.2,0,0.2,0.1c1.1,0.9,2.1,2,2.9,3.2
		c0,0.1,0.1,0.1,0,0.2c0,0.1-0.1,0.1-0.1,0.2l-3,1.9c0,0-0.1,0-0.1,0c-0.1,0-0.2,0-0.3-0.1c-0.5-0.8-1.1-1.5-1.9-2.1
		C22.9,12.6,22.9,12.6,22.9,12.5"/>
</g>
</svg>
