<?xml version="1.0" encoding="utf-8"?>
<!-- Generator: Adobe Illustrator 21.1.0, SVG Export Plug-In . SVG Version: 6.00 Build 0)  -->
<svg version="1.1" id="圖層_1" xmlns="http://www.w3.org/2000/svg" xmlns:xlink="http://www.w3.org/1999/xlink" x="0px" y="0px"
	 viewBox="0 0 50 40" style="enable-background:new 0 0 50 40;" xml:space="preserve">
<style type="text/css">
	.st0{fill:#FFFFFF;}
	.st1{fill:none;stroke:#FFFFFF;stroke-miterlimit:10;}
</style>
<g>
	<g>
		<path class="st0" d="M17.9,5.9c-0.2-0.1-0.3-0.1-0.4-0.3c-0.1-0.1-0.1-0.3-0.1-0.4c0-0.2,0.1-0.5,0.2-0.6c0.2-0.2,0.4-0.3,0.7-0.3
			c0.3,0,0.5,0.1,0.7,0.2c0.2,0.2,0.3,0.4,0.3,0.6c0,0.2,0,0.3-0.1,0.4c-0.1,0.1-0.2,0.2-0.4,0.3c0.2,0.1,0.4,0.2,0.5,0.3
			c0.1,0.1,0.2,0.3,0.2,0.5c0,0.3-0.1,0.5-0.3,0.7c-0.2,0.2-0.5,0.3-0.8,0.3c-0.3,0-0.6-0.1-0.8-0.3c-0.2-0.2-0.3-0.4-0.3-0.7
			c0-0.2,0-0.4,0.2-0.6C17.5,6.1,17.7,6,17.9,5.9z M17.7,6.8c0,0.1,0,0.2,0.1,0.3c0.1,0.1,0.1,0.2,0.3,0.2c0.1,0.1,0.2,0.1,0.4,0.1
			c0.2,0,0.4-0.1,0.5-0.2C19,7.1,19.1,7,19.1,6.8c0-0.2-0.1-0.4-0.2-0.5c-0.1-0.1-0.3-0.2-0.5-0.2c-0.2,0-0.4,0.1-0.5,0.2
			C17.8,6.4,17.7,6.6,17.7,6.8z M17.8,5.2c0,0.2,0.1,0.3,0.2,0.4c0.1,0.1,0.2,0.1,0.4,0.1c0.2,0,0.3-0.1,0.4-0.2
			c0.1-0.1,0.1-0.2,0.1-0.4c0-0.2-0.1-0.3-0.2-0.4c-0.1-0.1-0.2-0.1-0.4-0.1c-0.2,0-0.3,0.1-0.4,0.2C17.8,5,17.8,5.1,17.8,5.2z"/>
	</g>
	<g>
		<path class="st0" d="M23.7,10.4l0.5,0.1c0,0.3,0,0.5,0.1,0.7c0.1,0.2,0.2,0.3,0.4,0.3c0.2,0.1,0.4,0.1,0.6,0
			c0.2-0.1,0.3-0.3,0.4-0.5c0.1-0.2,0.1-0.4,0-0.6c-0.1-0.2-0.2-0.3-0.5-0.4c-0.1,0-0.2-0.1-0.3-0.1l0.2-0.4c0,0,0.1,0,0.1,0
			c0.2,0.1,0.4,0.1,0.6,0c0.2,0,0.3-0.2,0.4-0.4c0.1-0.2,0.1-0.3,0-0.5c-0.1-0.2-0.2-0.3-0.4-0.3c-0.2-0.1-0.3-0.1-0.5,0
			c-0.2,0.1-0.3,0.2-0.4,0.4l-0.4-0.3c0.2-0.3,0.4-0.5,0.7-0.6c0.3-0.1,0.5-0.1,0.8,0c0.2,0.1,0.4,0.2,0.5,0.3
			c0.1,0.2,0.2,0.3,0.3,0.5c0,0.2,0,0.4,0,0.5c-0.1,0.2-0.2,0.3-0.3,0.4c-0.1,0.1-0.3,0.2-0.5,0.2c0.2,0.1,0.3,0.3,0.4,0.5
			c0.1,0.2,0,0.4,0,0.7c-0.1,0.3-0.3,0.6-0.7,0.7c-0.3,0.1-0.7,0.1-1,0c-0.3-0.1-0.6-0.3-0.7-0.6S23.7,10.7,23.7,10.4z"/>
	</g>
	<path class="st1" d="M15.1,12.2c-3.4,0.6-5.7,3.9-5.1,7.4c0.6,3.4,3.9,5.8,7.3,5.1c3.4-0.6,5.7-3.9,5.1-7.4
		C21.8,13.9,18.5,11.6,15.1,12.2z"/>
	<g>
		<path class="st0" d="M18.3,11.3c-0.5-0.2-1.1-0.3-1.7-0.3c0.5,0.2,1,0.3,1.6,0.3C18.3,11.3,18.3,11.3,18.3,11.3z"/>
		<path class="st0" d="M14,6.4c0.4-0.1,0.8-0.1,1.3-0.2c0,0,0,0,0-0.1c0-1.6,1.3-2.9,2.9-2.9c1.6,0,2.9,1.3,2.9,2.9
			c0,0.1,0,0.3,0,0.4c0.3-0.4,0.7-0.7,1.2-1c-0.6-1.7-2.2-2.9-4.1-2.9C16.1,2.7,14.3,4.4,14,6.4C14,6.5,14,6.5,14,6.4z"/>
	</g>
	<g>
		<path class="st0" d="M26.3,7c1.4,0.4,2.4,1.7,2.5,3.1h1.3c-0.1-2.6-2.3-4.6-4.9-4.6c-1.6,0-3,0.8-3.9,2c0.4,0.2,0.8,0.4,1.2,0.6
			C23.4,7,24.9,6.5,26.3,7z"/>
	</g>
	<g>
		<g>
			<path class="st0" d="M11.5,16.4h3c0.3,0,0.4,0,0.6-0.2H16c-0.1,0.3-0.3,0.5-0.7,0.5h-1.1v0.4h2v0.3h-2v0.3h1.6
				c0.2,0,0.3,0.2,0.3,0.3v1.2c0,0.2-0.2,0.3-0.3,0.3h-1.6v0.4h1.8v0.3h-1.8v0.4h2v0.3h-4.8v-0.3h2v-0.4h-1.8v-0.3h1.8v-0.4h-1.6
				c-0.2,0-0.3-0.1-0.3-0.3v-1.2c0-0.2,0.2-0.3,0.3-0.3h1.6v-0.3h-2v-0.3h2v-0.4h-1.9V16.4z M12.2,18.6h1.1v-0.5h-0.9
				c-0.1,0-0.2,0.1-0.2,0.2V18.6z M12.4,19.4h0.9v-0.5h-1.1v0.3C12.2,19.3,12.3,19.4,12.4,19.4z M14.1,18.1v0.5h1.1v-0.3
				c0-0.1-0.1-0.2-0.2-0.2H14.1z M15.2,18.9h-1.1v0.5H15c0.1,0,0.2-0.1,0.2-0.2V18.9z"/>
		</g>
	</g>
	<g>
		<g>
			<path class="st0" d="M17.4,19.9c0,0.4-0.1,0.9-0.3,1.2h-0.8c0.3-0.4,0.4-0.9,0.4-1.2v-2.8c0-0.2,0.2-0.3,0.3-0.3h1.6v-0.5h0.8
				v0.5h1.7v0.3h-3.5c-0.1,0-0.2,0.1-0.2,0.2V19.9z M17.6,18.3h1.3v-0.9h0.8v0.9h1.4v0.3h-1.3c0.3,0.9,0.7,1.7,1.2,2.5h-0.8
				c-0.3-0.5-0.6-1-0.9-1.6c-0.2,0.6-0.5,1.1-0.9,1.6h-0.9c0.5-0.8,1-1.5,1.2-2.5h-1.2V18.3z"/>
		</g>
	</g>
	<g>
		<g>
			<path class="st0" d="M24.1,29.9c1.2-2.6,2.2-5.7,3-8.8h-1.5l0.2-1.2h4.3l0.3-1.6h3.2l-0.3,1.6h4.4l-0.2,1.2h-1.5
				c-0.3,3.1-0.4,6.3-0.1,8.8h-3c-0.2-2.5-0.2-5.6,0.2-8.8h0L31,32.3h-3.2L30,21.1h0c-0.8,3.2-1.8,6.3-2.9,8.8H24.1z M27.1,17.6
				l0.5-4.8h2.8L30,17.6H27.1z M27.5,10.9h5.9c1.3,0,2-0.3,2.5-1h3.5c-0.6,1.4-1.7,2.2-3.5,2.2h-8.7L27.5,10.9z M31,17.6l0.5-4.8
				h2.9l-0.5,4.8H31z M34.5,17.6l1.2-4.8h2.9l-1.2,4.8H34.5z M46.2,15.9c-1.5,2.4-3,4.3-5,5.9h-3.5c2.3-1.9,4-3.9,5.4-5.9H46.2z
				 M47.2,9.1c-1.5,2.4-3.1,4.3-5,6h-3.5c2.3-1.9,4-3.9,5.4-6H47.2z"/>
		</g>
	</g>
	<path class="st0" d="M46.2,23.2c0,0-3.6,5.4-5.5,7.4c-2,2.1-2.7,3-5.3,4.5c-3.9,2.1-10.7,2.7-15,2.5c-3.1-0.1-6.1-0.3-9.2-0.7
		c-1.5-0.2-3-0.4-4.6-0.7c-1.2-0.2-2.4-0.8-3.6-0.9c4.7,0.5,9.3,0.5,14,0.4c4.1-0.1,9.2-0.8,13.2-2c6.3-2,12.4-10.8,12.4-10.8
		L46.2,23.2z"/>
	<g>
		<path class="st0" d="M25,19.8c0.1-0.4,0.4-0.7,0.8-0.7h1.7c0-0.2,0-0.4,0-0.6h-0.4c-0.2,0-0.5-0.1-0.6-0.3
			c-0.2-0.2-0.2-0.4-0.2-0.7l0.4-3.5c-2-4.8-7.1-7.8-12.5-6.8C8,8.3,3.8,14.2,4.9,20.4c0.4,2.5,1.7,4.7,3.4,6.3
			c0.3,0,0.6,0.2,0.8,0.4h1.7v-0.2c0-0.4,0.3-0.7,0.7-0.7h1.3c0.4,0,0.7,0.3,0.7,0.7v0.2c0.3,0,0.6,0.3,0.6,0.7v-0.9
			c0-0.7,0.6-1.3,1.4-1.3h2.2c0.4,0,0.8,0.2,1.1,0.5c0,0,0,0,0,0h2.1v-0.4c0-0.4,0.3-0.7,0.7-0.7h1.5c0.4,0,0.7,0.3,0.7,0.7l0,0.4
			c0.3,0,0.5,0.2,0.6,0.4c0.2-0.2,0.4-0.4,0.6-0.6c0.4-1.2,0.8-2.6,1.2-3.9h-0.4c-0.3,0-0.5-0.1-0.7-0.3c-0.2-0.2-0.2-0.4-0.2-0.7
			L25,19.8z M17.4,25.3c-3.8,0.7-7.4-1.9-8.1-5.7c-0.7-3.8,1.9-7.4,5.7-8.1c3.8-0.7,7.4,1.9,8.1,5.7C23.7,21,21.2,24.7,17.4,25.3z"
			/>
		<path class="st0" d="M20.6,28c0.1,0,0.1,0.1,0.1,0.1V28H20.6z"/>
		<path class="st0" d="M13.4,29v0.6c0.2,0,0.4,0.1,0.6,0.1v-1.4C14,28.6,13.7,28.9,13.4,29z"/>
	</g>
	<g>
		<g>
			<path class="st0" d="M5.8,28c0-0.3,0.3-0.5,0.6-0.5h1.8c0.3,0,0.6,0.2,0.6,0.5v5.6c0,0.3-0.3,0.5-0.6,0.5H6.4
				c-0.3,0-0.6-0.2-0.6-0.5V28z M7.6,28c0-0.1-0.1-0.2-0.2-0.2H7.1C7,27.9,7,27.9,7,28v2.5h0.6V28z M7.4,33.6c0.1,0,0.2-0.1,0.2-0.2
				V31H7v2.5c0,0.1,0.1,0.2,0.2,0.2H7.4z M9.1,27.8h2.4v-0.9h1.3v0.9h0.6v0.5h-0.6V34c0,0.3-0.2,0.5-0.6,0.5h-1.7v-0.5h0.7
				c0.2,0,0.3-0.1,0.3-0.3v-5.5H9.1V27.8z M10,32.8c-0.3-1.1-0.5-2.2-0.6-3.4h1.1c0.1,1.2,0.3,2.3,0.6,3.4H10z"/>
		</g>
	</g>
	<g>
		<g>
			<path class="st0" d="M14.7,26.9c0-0.3,0.3-0.6,0.7-0.6h2.2c0.4,0,0.7,0.3,0.7,0.6v6.6c0,0.3-0.3,0.6-0.7,0.6h-2.2
				c-0.4,0-0.7-0.3-0.7-0.6V26.9z M16.8,27c0-0.1-0.1-0.2-0.2-0.2h-0.3c-0.1,0-0.2,0.1-0.2,0.2V30h0.7V27z M16.6,33.6
				c0.1,0,0.2-0.1,0.2-0.2v-2.9h-0.7v2.9c0,0.1,0.1,0.2,0.2,0.2H16.6z M18.6,26.8h2.8v-1.1h1.5v1.1h0.7v0.5h-0.7v6.7
				c0,0.3-0.3,0.6-0.7,0.6h-2v-0.5H21c0.2,0,0.4-0.2,0.4-0.4v-6.5h-2.8V26.8z M19.7,32.6c-0.4-1.3-0.6-2.6-0.7-4h1.4
				c0.2,1.4,0.4,2.7,0.7,4H19.7z"/>
		</g>
	</g>
</g>
</svg>
