<?xml version="1.0" encoding="utf-8"?>
<!-- Generator: Adobe Illustrator 21.1.0, SVG Export Plug-In . SVG Version: 6.00 Build 0)  -->
<svg version="1.1" id="圖層_1" xmlns="http://www.w3.org/2000/svg" xmlns:xlink="http://www.w3.org/1999/xlink" x="0px" y="0px"
	 width="50px" height="40px" viewBox="0 0 50 40" style="enable-background:new 0 0 50 40;" xml:space="preserve">
<style type="text/css">
	.st0{clip-path:url(#SVGID_2_);fill:#FFFFFF;}
</style>
<g>
	<defs>
		<rect id="SVGID_1_" x="3.2" y="6.1" width="44.3" height="27.8"/>
	</defs>
	<clipPath id="SVGID_2_">
		<use xlink:href="#SVGID_1_"  style="overflow:visible;"/>
	</clipPath>
	<path class="st0" d="M4.7,19.8v-7H3.2v-1.3h1.5v-1H3.2V9.4h4.9l-0.5,1.2H6.7v1h1.5v1.3H6.7v7H4.7z M3.2,13.3h1.1v6.6H3.2V13.3z
		 M7,13.3h1.1v6.6H7V13.3z M8.5,16.3l-0.1-1.1h0.3L9,9.8h1.4L10,16.3H8.5z M14.5,16.6c-0.3,0.6-0.6,1.1-0.9,1.6
		c-0.4,0.4-0.8,0.8-1.3,1c-0.5,0.3-1,0.4-1.7,0.5c-0.6,0.1-1.4,0.2-2.2,0.2v-1.4c0.6,0,1.1-0.1,1.5-0.1c0.5-0.1,0.9-0.2,1.2-0.3
		c0.4-0.2,0.7-0.3,0.9-0.6c0.3-0.2,0.5-0.5,0.7-0.8H14.5z M10.5,9.2h1.7v7.7h-1.7V9.2z M12.8,16.3l-0.4-6.5h1.4l0.4,5.4h0.3
		l-0.1,1.1H12.8z"/>
	<path class="st0" d="M14.8,19.8v-1.3h0.6V13h-0.6v-1.4h2.6v8.1H14.8z M15.3,11.4l-0.4-2.1h1.9l0.3,1.2h0.3l-0.2,0.9H15.3z
		 M18.1,19.8l-0.7-1.3H26l-0.7,1.3H18.1z M20.9,18.1v-2.8h-2.9v-3.6h2.9v-0.5h-3.1V9.9h3.1V9.3h1.9v0.6h3.1v1.3h-3.1v0.5h2.9v3.6
		h-1.9V13h-1v1h1l-0.4,1.3h-0.6v2.8H20.9z M18,18.1L17.8,17h0.4l0.2-1.3h1.8l-0.4,2.4H18z M20.9,13h-1v1h1V13z M23.8,18.1l-0.4-2.4
		h1.8l0.2,1.3h0.4l-0.2,1.1H23.8z"/>
	<path class="st0" d="M8.6,22.5v-0.6h2.3v0.6h5.4v1.7h-2.3v-0.6H5.4v0.6H3.2v-1.7H8.6z M6,25.9v-0.4H3.5v-1.1H6V24h2.3v0.3h3.1V24
		h2.3v0.3H16v1.1h-2.5v0.4H16V27h-2.4v0.4h2.8v1.1h-2.2c0.6,0.3,1.3,0.5,2.2,0.4v1.5c-0.3,0-0.6,0-0.9,0v1.5H13V30H6.7v1.8H4.1v-1.5
		c-0.3,0-0.6,0-0.9,0v-1.5c0.5,0,0.9,0,1.2-0.1c0.4-0.1,0.7-0.2,1-0.3H3.2v-1.1H6V27H3.5v-1.1H6z M3.2,32.3c1.8,0,3.1-0.2,4-0.4
		c0.9-0.3,1.3-0.7,1.3-1.3v-0.3H11v0.3c0,0.6,0.4,1,1.3,1.3c0.9,0.3,3.9,0.4,5.7,0.4l4.3,1.7c-0.7,0-7.3,0-8-0.1
		c-0.6,0-1.2-0.1-1.8-0.2c-0.6-0.1-1.1-0.2-1.5-0.4c-0.5-0.1-0.9-0.3-1.2-0.6C9.4,33,9,33.2,8.5,33.3c-0.5,0.1-1,0.3-1.5,0.4
		c-0.6,0.1-1.2,0.2-1.8,0.2c-0.6,0-1.3,0.1-2,0.1V32.3z M7.8,28.4c-0.1,0.1-0.1,0.1-0.2,0.2c-0.1,0.1-0.1,0.1-0.2,0.2H12
		c-0.1-0.1-0.1-0.1-0.2-0.2c-0.1-0.1-0.1-0.1-0.2-0.2H7.8z M8.2,25.9h3.1v-0.4H8.2V25.9z M8.2,27.3h3.1V27H8.2V27.3z"/>
	<polygon class="st0" points="25.3,30.2 25.3,29 18.9,29 18.9,27.5 20.8,24.6 17.3,24.6 17.3,23.1 21.8,23.1 23.2,21.4 26.6,20.8 
		25.5,23.1 34.7,23.1 39.6,24.6 24.5,24.6 22.7,27.5 25.3,27.5 25.3,25.7 28.5,25.7 28.5,27.5 34.1,27.5 38,29 28.5,29 28.5,30.2 
		34.7,30.2 44.3,31.8 28.5,31.8 28.5,33.9 25.3,33.9 25.3,31.8 20.5,31.8 17.3,30.2 	"/>
	<path class="st0" d="M34.5,7.3c0.2-0.4,0.1-0.9-0.3-1.1c-0.4-0.2-0.9-0.1-1.1,0.3L22.4,22.7c-0.2,0.3-0.3,2.5,0,2.7
		c0,0,0.1,0.1,0.2,0.1c0.4,0.2,3.1-3,3.3-3.3L34.5,7.3z"/>
	<path class="st0" d="M42.5,23.6c1.6-2.8,3.3-5.6,4.9-8.3c0.2-0.3,0.3-0.7-0.1-1.1c-3.1-3.6-8.6-2.5-11.7-6.1
		c-0.2-0.3-0.5-0.3-0.7,0c-1.6,2.8-3.3,5.6-4.9,8.3c-0.3,0.4-0.2,0.8,0.1,1.1c3.1,3.6,8.6,2.5,11.7,6.1C42,23.8,42.3,23.9,42.5,23.6
		 M46.2,14.7c-0.4,0.8-0.9,1.5-1.3,2.3c-0.7-0.7-1.5-1.2-2.4-1.6c0.4-0.8,0.9-1.5,1.3-2.3C44.7,13.5,45.5,14,46.2,14.7 M32.5,14.5
		c0.5-0.9,1-1.7,1.5-2.6c0.8,0.7,1.6,1.2,2.5,1.7c0.4-0.8,0.9-1.5,1.3-2.3c1,0.4,2,0.7,3,0.9c-0.4,0.8-0.9,1.5-1.3,2.3
		c-1-0.3-2-0.6-3-0.9c-0.5,0.9-1,1.7-1.5,2.6C34.1,15.7,33.2,15.2,32.5,14.5 M33.7,18.5c0.5-0.8,0.9-1.6,1.4-2.3
		c1,0.4,1.9,0.7,2.9,0.9c-0.5,0.8-0.9,1.6-1.4,2.3C35.6,19.1,34.6,18.9,33.7,18.5 M38,17.1c0.5-0.9,1-1.7,1.5-2.6c1,0.3,2,0.6,3,1
		c-0.5,0.9-1,1.7-1.5,2.6C40,17.6,39,17.3,38,17.1 M39.6,20.4c0.5-0.8,0.9-1.6,1.4-2.3c0.9,0.4,1.7,0.9,2.4,1.6
		c-0.5,0.8-0.9,1.6-1.4,2.3C41.2,21.3,40.5,20.8,39.6,20.4"/>
</g>
</svg>
