<?xml version="1.0" encoding="utf-8"?>
<!-- Generator: Adobe Illustrator 21.1.0, SVG Export Plug-In . SVG Version: 6.00 Build 0)  -->
<svg version="1.1" id="圖層_1" xmlns="http://www.w3.org/2000/svg" xmlns:xlink="http://www.w3.org/1999/xlink" x="0px" y="0px"
	 width="50px" height="40px" viewBox="0 0 50 40" style="enable-background:new 0 0 50 40;" xml:space="preserve">
<style type="text/css">
	.st0{clip-path:url(#SVGID_2_);fill:#FFFFFF;}
</style>
<g>
	<defs>
		<rect id="SVGID_1_" x="2.1" y="1.7" width="45.8" height="36.5"/>
	</defs>
	<clipPath id="SVGID_2_">
		<use xlink:href="#SVGID_1_"  style="overflow:visible;"/>
	</clipPath>
	<path class="st0" d="M4.7,12.3c2.9,0,5.8,0.2,8.8,0.5l-0.3,1.7c-1.2-0.1-2.4-0.2-3.4-0.3c-0.2,0.5-0.5,1-0.7,1.5
		c1.3-0.1,2.7-0.1,4.1-0.1l0.2,1.8c-1.7,0-3.4,0.1-5.1,0.2C8.1,18,8,18.2,7.9,18.4c2.1,0.5,4.1,1,5.9,1.7l-0.6,1.8
		c-2.1-0.7-4.1-1.3-6.1-1.7c-0.2,0.6-0.5,1.2-0.7,1.8l-1.9-0.6C5,20.1,5.5,19,5.9,17.9C5.5,18,5,18,4.6,18.1l-0.2-1.8
		C5.2,16.1,6,16.1,6.8,16c0.3-0.6,0.6-1.2,0.9-1.8c-1.2-0.1-2.2-0.1-3.2-0.1L4.7,12.3z"/>
	<path class="st0" d="M16.1,12.6c0.3,0,1,0.2,1.9,0.7c0.6,0.3,0.9,0.7,0.9,1.2c0,0.4-0.2,0.7-0.5,1c-0.4,0.3-0.7,0.6-0.9,0.7
		c-0.2,0.1-0.3,0.3-0.3,0.4c0,0.2,0.4,0.5,1.3,0.8l-0.7,1.4c-0.8-0.1-1.5-0.4-2.2-1.1c-0.2-0.3-0.3-0.7-0.3-1c0-0.3,0.2-0.7,0.7-1
		c0.2-0.2,0.5-0.4,0.8-0.7c0.1-0.1,0.2-0.2,0.2-0.3c0-0.1-0.1-0.2-0.4-0.3c-0.3-0.1-0.7-0.3-1.1-0.4L16.1,12.6z M17.6,19.2l0.5,1.6
		c-0.7,0.4-1.4,0.6-2.3,0.8l-0.4-1.7C16.2,19.7,16.9,19.5,17.6,19.2 M22.3,12.9c0.8,0,1.4,0.2,1.8,0.5c0.4,0.3,0.6,0.8,0.7,1.5
		c0.2,0,0.3,0,0.5,0l-0.1,1.4c-0.1,0-0.3,0-0.4,0c-0.1,0.5-0.3,0.9-0.6,1.1c-0.5,0.3-1,0.4-1.7,0.4c0,0.1,0,0.2,0,0.3
		c0.6,0,1.2,0,1.8,0l0.1,1.4c-0.6,0-1.3,0-1.9,0c0,0.1,0,0.3,0,0.4c0.7,0,1.5-0.1,2.3-0.1l0.1,1.4c-0.8,0.1-1.5,0.1-2.3,0.1
		c0,0.2,0,0.3,0,0.5L21,21.9c0-0.2,0-0.4,0-0.6c-0.8,0-1.6,0.1-2.4,0.1L18.4,20c0.8,0,1.6,0,2.5-0.1c0-0.1,0-0.2,0-0.3
		c-0.6,0.1-1.2,0.1-1.8,0.2l-0.1-1.4c0.6-0.1,1.2-0.1,1.9-0.2c0-0.1,0-0.3,0-0.4c-0.6,0-1.2-0.1-1.8-0.2l0.2-1.3
		c0.5,0.1,1,0.1,1.5,0.2c0-0.1,0-0.2,0-0.3c-0.7,0-1.3-0.1-2-0.1l0.2-1.4c0.6,0,1.1,0,1.7,0.1c0-0.1,0-0.2,0-0.3
		c-0.4,0.1-0.9,0.1-1.4,0.2l-0.3-1.3c0.5-0.1,1.1-0.2,1.6-0.2c0-0.2,0-0.4,0-0.7l1.7-0.2c0,0.2,0,0.5,0,0.7H22.3z M22.2,14.2
		c0,0.2,0,0.4,0,0.5c0.3,0,0.5,0,0.8,0c-0.1-0.2-0.2-0.3-0.3-0.4C22.7,14.3,22.5,14.3,22.2,14.2 M22.3,16.2c0,0.1,0,0.2,0,0.3
		c0.2,0,0.4-0.1,0.5-0.2c0.1,0,0.1-0.1,0.2-0.1C22.8,16.2,22.6,16.2,22.3,16.2"/>
	<path class="st0" d="M3.1,25.3l1.6,0.3c0.2,0,0.5-0.1,0.7-0.1c0.9,0,1.5,0.1,1.8,0.2c0.4,0.1,0.8,0.5,1.1,1.1
		c0.3,0.5,0.5,1.6,0.5,3.2c0,2-0.2,3.4-0.6,4.3c-0.6,1.3-1.5,2-2.8,2c-1.1,0-1.9-0.4-2.5-1.2c-0.5-0.8-0.7-2-0.7-3.6
		C2.1,29.4,2.4,27.3,3.1,25.3 M5.2,27.8c-0.2,0-0.3,0-0.4,0.1c-0.1,0.6-0.2,1.1-0.3,1.6c0.5,0,1.1,0.1,1.6,0.3l-0.3,2.3
		c-0.5-0.1-0.9-0.2-1.4-0.2c0,0.7,0.1,1.2,0.1,1.5C4.6,33.8,4.8,34,5.1,34c0.5,0,0.9-0.3,1.1-0.9c0.2-0.6,0.3-1.5,0.3-2.7
		c0-1.4-0.1-2.2-0.3-2.3C6,28,5.9,27.9,5.7,27.8C5.5,27.8,5.3,27.8,5.2,27.8 M17.3,25.9l0.3,2.6c-0.6,0-1.2,0-1.8,0
		c0.2,3,0.5,6.2,0.7,9.5l-2.8,0.3c-0.3-3.5-0.5-6.7-0.7-9.6c-1.3,0.1-2.5,0.2-3.7,0.4L9,26.4c1.2-0.2,2.5-0.3,3.7-0.4
		c-0.1-0.9-0.1-1.8-0.2-2.7l2.8-0.3c0.1,0.9,0.1,1.9,0.2,2.8C16.1,25.9,16.7,25.9,17.3,25.9"/>
	<path class="st0" d="M13.6,32.2c0-0.1-0.1-0.2-0.3-0.2l-1.5-0.2l-0.6-1.3c-0.1-0.2-0.2-0.2-0.3-0.2s-0.2,0.1-0.3,0.2l-0.6,1.3
		L8.5,32c-0.2,0-0.3,0.1-0.3,0.2c0,0.1,0,0.2,0.1,0.4l1.1,1L9.1,35c0,0.2,0,0.3,0.1,0.4c0.1,0.1,0.2,0.1,0.4,0l1.3-0.7l1.3,0.7
		c0.2,0.1,0.3,0.1,0.4,0c0.1-0.1,0.1-0.2,0.1-0.4l-0.2-1.4l1.1-1C13.6,32.4,13.7,32.3,13.6,32.2"/>
	<path class="st0" d="M19.7,12.4c0-0.4,0.3-0.7,0.6-0.7l1.7-0.2c0.2,0,0.4,0,0.5,0.2c0.2,0.1,0.2,0.3,0.3,0.5l0,0.1
		c0.7,0.1,1.3,0.3,1.7,0.6c0.4,0.3,0.7,0.8,0.9,1.3c0.2,0,0.3,0.1,0.4,0.2C26,14.6,26,14.8,26,15l-0.1,1.4c0,0.3-0.3,0.6-0.5,0.6
		c-0.1,0.3-0.2,0.5-0.4,0.7C25,17.8,25,17.9,25,18l0.1,1.1c0.2,0.1,0.4,0.3,0.4,0.6l0.1,1.4c0,0.2,0,0.4-0.2,0.5
		c-0.1,0.1-0.3,0.2-0.5,0.3c-0.1,0-0.2,0-0.3,0l-0.5,3c0.2,0.1,0.5,0.3,0.7,0.5c0.1,0,0.2-0.1,0.3-0.1c0.9-0.1,1.8-0.2,2.7-0.3
		c0-0.5-0.1-1.1-0.1-1.6c0-0.6,0.4-1.1,1-1.2l0.3,0c0,0,0,0-0.1,0c-0.2-0.2-0.3-0.5-0.2-0.9l0.6-3.6l-2.6-2.6
		c-0.3-0.3-0.4-0.6-0.4-0.9c0.1-0.3,0.4-0.5,0.8-0.5l3.7-0.5l1.6-3.3c0.2-0.4,0.5-0.6,0.7-0.6c0.3,0,0.5,0.2,0.7,0.6l1.6,3.3
		l3.7,0.5c0.5,0.1,0.7,0.3,0.8,0.5c0.1,0.3,0,0.6-0.4,0.9l-2.6,2.6l0.6,3.6c0.1,0.5,0,0.8-0.2,0.9c-0.2,0.2-0.6,0.2-1-0.1l-3.3-1.7
		L30,22.2h0l1.5-0.2c0.3,0,0.6,0.1,0.8,0.2c0.2,0.2,0.4,0.5,0.4,0.8c0,0.6,0.1,1.2,0.1,1.8c0.3,0,0.5,0,0.8,0c0.6,0,1,0.4,1.1,1
		l0,0.3c0.1-0.1,0.3-0.2,0.5-0.2c2.1-0.4,4-0.7,5.9-1c0.5-0.1,1,0.2,1.2,0.6l0.4,0.9l-1.1-6.6l5.6-5.5c0.7-0.7,1-1.4,0.8-1.9
		c-0.2-0.5-0.8-1-1.8-1.1l-7.8-1.1l-3.5-7c-0.4-0.9-1-1.3-1.6-1.3c-0.6,0-1.2,0.4-1.6,1.3l-3.5,7l-7.8,1.1c-1,0.1-1.6,0.6-1.8,1.1
		c0,0.1,0,0.1,0,0.2c0.1,0,0.1,0,0.2-0.1C19.1,12.4,19.4,12.4,19.7,12.4"/>
	<path class="st0" d="M19.4,25.3l1.6,0.3c0.2,0,0.5-0.1,0.7-0.1c0.9,0,1.5,0.1,1.8,0.2c0.4,0.1,0.8,0.5,1.1,1.1
		c0.3,0.5,0.5,1.6,0.5,3.2c0,2-0.2,3.4-0.6,4.3c-0.6,1.3-1.5,2-2.8,2c-1.1,0-1.9-0.4-2.5-1.2c-0.5-0.8-0.7-2-0.7-3.6
		C18.4,29.4,18.7,27.3,19.4,25.3 M21.5,27.8c-0.2,0-0.3,0-0.4,0.1c-0.1,0.6-0.2,1.1-0.3,1.6c0.5,0,1.1,0.1,1.6,0.3l-0.3,2.3
		c-0.5-0.1-0.9-0.2-1.4-0.2c0,0.7,0.1,1.2,0.1,1.5c0.1,0.4,0.3,0.6,0.6,0.6c0.5,0,0.9-0.3,1.1-0.9c0.2-0.6,0.3-1.5,0.3-2.7
		c0-1.4-0.1-2.2-0.3-2.3c-0.1-0.1-0.3-0.2-0.5-0.2C21.8,27.8,21.6,27.8,21.5,27.8 M33.6,25.9l0.3,2.6c-0.6,0-1.2,0-1.8,0
		c0.2,3,0.5,6.2,0.7,9.5l-2.8,0.3c-0.3-3.5-0.5-6.7-0.7-9.6c-1.3,0.1-2.5,0.2-3.7,0.4l-0.2-2.6c1.2-0.2,2.5-0.3,3.7-0.4
		c-0.1-0.9-0.1-1.8-0.2-2.7l2.8-0.3c0.1,0.9,0.1,1.9,0.2,2.8C32.4,25.9,33,25.9,33.6,25.9"/>
	<path class="st0" d="M29.8,32.2c0-0.1-0.1-0.2-0.3-0.2L28,31.8l-0.6-1.3c-0.1-0.2-0.2-0.2-0.3-0.2c-0.1,0-0.2,0.1-0.3,0.2l-0.6,1.3
		L24.6,32c-0.2,0-0.3,0.1-0.3,0.2c0,0.1,0,0.2,0.1,0.4l1.1,1L25.3,35c0,0.2,0,0.3,0.1,0.4c0.1,0.1,0.2,0.1,0.4,0l1.3-0.7l1.3,0.7
		c0.2,0.1,0.3,0.1,0.4,0c0.1-0.1,0.1-0.2,0.1-0.4l-0.2-1.4l1.1-1C29.8,32.4,29.8,32.3,29.8,32.2"/>
	<path class="st0" d="M36.2,28.8c0.6,0.4,1.2,1,1.6,1.6l-1.3,1.3c-0.4-0.5-0.9-1.1-1.5-1.6L36.2,28.8z M41.2,25.9l0.7,1.7
		c-1.7,0.3-3.6,0.6-5.8,1l-0.8-1.7C37.4,26.5,39.3,26.2,41.2,25.9 M42,31.9l0.2,2c-0.8,0-1.5,0-2.3,0.1c0,0.2,0,0.4,0.1,0.6
		c0.8,0.2,1.5,0.4,2.1,0.6l-0.2,0.6c1.6-0.7,3.2-1.2,4.7-1.7l0.7,1.9c-1.6,0.6-3.2,1.2-5,1.9l-0.5-1.7l-0.2,0.9
		c-0.5-0.1-0.9-0.3-1.3-0.4c0,0.3,0.1,0.7,0.1,1l-2,0.2c-0.1-0.7-0.2-1.4-0.2-2.1c-0.4,0.6-0.9,1.1-1.3,1.7l-1.4-1.3
		c0.5-0.7,1-1.3,1.5-1.9c-0.4,0.1-0.8,0.1-1.2,0.2l-0.2-2c0.8-0.1,1.5-0.2,2.3-0.3c0-0.3,0-0.6-0.1-0.8l2-0.2c0,0.3,0.1,0.6,0.1,0.9
		C40.5,31.9,41.3,31.9,42,31.9 M38.5,28.3c0.6,0.4,1.2,0.9,1.6,1.5l-1.3,1.3c-0.4-0.5-0.9-1-1.5-1.5L38.5,28.3z M41.1,28.1l1.8,0.6
		c-0.4,1-0.8,1.9-1.2,2.9L40,30.9C40.4,29.8,40.8,28.9,41.1,28.1 M46.5,30.1l0.7,1.9c-1.3,0.5-2.7,1-4.1,1.5l-0.6-2
		C43.9,31,45.2,30.5,46.5,30.1 M46.3,26.4l0.7,1.7c-1,0.5-2.1,1-3.4,1.5l-0.8-1.7C44,27.3,45.2,26.8,46.3,26.4"/>
</g>
</svg>
