<?xml version="1.0" encoding="utf-8"?>
<!-- Generator: Adobe Illustrator 21.1.0, SVG Export Plug-In . SVG Version: 6.00 Build 0)  -->
<svg version="1.1" id="圖層_1" xmlns="http://www.w3.org/2000/svg" xmlns:xlink="http://www.w3.org/1999/xlink" x="0px" y="0px"
	 width="50px" height="40px" viewBox="0 0 50 40" style="enable-background:new 0 0 50 40;" xml:space="preserve">
<style type="text/css">
	.st0{clip-path:url(#SVGID_2_);fill:#FFFFFF;}
	.st1{fill:#FFFFFF;}
	.st2{font-family:'MFLangQian_Noncommercial-Regular-GBpc-EUC-H';}
	.st3{font-size:6.6318px;}
	.st4{clip-path:url(#SVGID_4_);fill:#FFFFFF;}
	.st5{clip-path:url(#SVGID_6_);}
	.st6{clip-path:url(#SVGID_8_);}
	.st7{clip-path:url(#SVGID_12_);fill:#FFFFFF;}
	.st8{clip-path:url(#SVGID_14_);}
	.st9{clip-path:url(#SVGID_16_);}
	.st10{clip-path:url(#SVGID_20_);fill:#FFFFFF;}
</style>
<g>
	<defs>
		<rect id="SVGID_1_" x="1.9" y="5.3" width="46.6" height="28.6"/>
	</defs>
	<clipPath id="SVGID_2_">
		<use xlink:href="#SVGID_1_"  style="overflow:visible;"/>
	</clipPath>
	<path class="st0" d="M37.3,18.4c-0.8-0.4-1.6-0.6-2.5-1c3.4-2.5,6.8-5,10.2-7.5c-0.6-1.2-1.4-1.7-2.7-1.6c-3.3,0.1-6.6,0-10,0
		c-0.8,0-1.6,0.1-2.3,0.3c-1.6,0.5-2.7,1.8-2.7,3.7H37c-2,1.6-3.9,2.9-5.6,4.4c-0.7,0.6-1.2,1.4-1.8,2.2c0.6,0.3,1.1,0.4,1.4,0.6
		c0.6,0.5,1.2,0.9,1.6,1.5c1.1,2,0.9,3.9-0.8,5.4c-1.4,1.2-2.9,2.2-4.6,3c-3.1,1.4-6.4,2.6-9.6,3.8c-0.3,0.1-0.5,0.2-0.8,0.3
		c0,0.1,0.1,0.2,0.1,0.3c2.6-0.4,5.2-0.7,7.8-1.1c3.5-0.6,6.9-1.6,10.1-3c1.8-0.8,3.5-1.8,4.6-3.5C41.1,23.3,41.2,20.1,37.3,18.4"/>
	<path class="st0" d="M23,21.8h4.9c0.1-0.9,0.1-1.7,0.2-2.5c-0.3-0.1-0.5-0.1-0.7-0.1c0.1-1.5,0.2-2.9,0.3-4.3
		c0-1.5-0.7-2.2-2.2-2.2c-0.7,0-1.3,0-2,0V9.1h-2.6c-0.1,0.5-0.1,3-0.2,3.5h-2c-0.1,0.9-0.1,1.7-0.2,2.6c0.5,0,0.9-0.1,1.3,0
		c0.3,0.1,0.6,0.4,0.6,0.6c0,1.1-0.1,2.1-0.1,3.3h-2.7c-0.1,0.9-0.1,1.7-0.1,2.6h2.4c-0.5,1.5-1.3,2.8-2.5,3.7
		c-0.2,0.2-0.4,0.4-0.4,0.6c0,0.9,0,1.8,0,2.7C19.3,28.5,21.5,25.9,23,21.8 M23.3,15.3c1.5-0.2,1.7,0,1.6,1.4
		c-0.1,0.8-0.1,1.5-0.2,2.3c0,0,0,0.1-0.1,0.2H23C23.1,17.9,23.2,16.6,23.3,15.3"/>
	<path class="st0" d="M12.8,14.5h-2.2c-0.3,5.3-0.3,8.3-0.7,13.5c1.8,0.1,2.2-0.3,2.3-1.9c0.3-4.3,0.2-6.4,0.5-10.7
		C12.8,15.1,12.8,14.8,12.8,14.5"/>
	<path class="st0" d="M37.6,17.2c3.1-1.6,6.2-3.2,9.4-4.9c-0.4-0.5-0.7-0.9-1-1.3c-2.9,2-5.7,4-8.5,6C37.6,17,37.6,17.1,37.6,17.2"
		/>
	<path class="st0" d="M38.7,17.6c3.2-1,6.4-2.1,9.7-3.2c-0.3-0.5-0.5-0.9-0.8-1.3c-3.1,1.5-6,2.9-9,4.3
		C38.7,17.5,38.7,17.6,38.7,17.6"/>
	<path class="st0" d="M17.3,17.7l0.2-2.9l-0.8,0c0,0,0,0-0.1,0c0.1-1.2,0.1-4.4,0.2-5.6h-3c-0.4,5.9-0.7,13.9-1.1,19.9
		c0.5,0,0.9,0,1.3,0c1.2,0,1.7-0.4,1.7-1.6c0.1-0.8,0.1-1.7,0.2-2.5c0.2-2.5,0.3-4.9,0.5-7.2L17.3,17.7z"/>
	<path class="st0" d="M22.1,26.6c0,1.5,1.3,2.8,2.8,2.9c1.6,0,2.9-1.2,2.9-2.8c0-1.6-1.2-2.9-2.8-2.9C23.4,23.7,22.1,25,22.1,26.6
		 M23.6,27.5c-0.3,0-0.6-0.2-0.6-0.6c0-0.3,0.2-0.6,0.6-0.6c0.3,0,0.6,0.2,0.6,0.6C24.2,27.3,23.9,27.5,23.6,27.5 M26.4,26.4
		c0.3,0,0.6,0.2,0.6,0.6c0,0.3-0.2,0.6-0.6,0.6c-0.3,0-0.6-0.2-0.6-0.6C25.8,26.7,26.1,26.4,26.4,26.4 M25.3,25.3
		c0,0.4-0.3,0.7-0.7,0.7c-0.4,0-0.7-0.3-0.7-0.7c0-0.4,0.3-0.7,0.7-0.7C24.9,24.6,25.3,24.9,25.3,25.3"/>
</g>
<text transform="matrix(1 -6.790000e-03 6.790000e-03 1 2.4139 28.3556)" class="st1 st2 st3">北</text>
<text transform="matrix(1 -6.790000e-03 6.790000e-03 1 2.4172 20.9277)" class="st1 st2 st3">湖</text>
<g>
	<defs>
		<rect id="SVGID_3_" x="1.9" y="5.3" width="46.6" height="28.6"/>
	</defs>
	<clipPath id="SVGID_4_">
		<use xlink:href="#SVGID_3_"  style="overflow:visible;"/>
	</clipPath>
	<path class="st4" d="M2.5,11.9c0,0,0,0.1,0,0.2c0,0.1,0,0.1,0,0.2c0,0.1,0,0.1,0,0.1c0,0,0,0.1,0.1,0.1c0,0,0,0,0.1,0.1
		c0,0,0,0,0.1,0c0,0,0,0,0.1-0.1c0,0,0-0.1,0-0.1c0-0.1,0-0.1,0-0.2c0-0.1,0-0.1,0-0.2c0-0.1,0-0.1,0-0.1c0,0,0-0.1-0.1-0.1
		c0,0,0,0-0.1-0.1c0,0,0,0-0.1,0c0,0,0,0-0.1,0.1C2.5,11.8,2.5,11.9,2.5,11.9"/>
</g>
<g>
	<defs>
		<path id="SVGID_5_" d="M2.6,11.7C2.6,11.7,2.6,11.8,2.6,11.7C2.6,11.8,2.6,11.8,2.6,11.7c-0.1,0.1-0.1,0.1-0.1,0.1c0,0,0,0,0,0.1
			c0,0,0,0.1,0,0.2c0,0.1,0,0.1,0,0.2c0,0.1,0,0.1,0,0.1c0,0,0,0.1,0.1,0.1c0,0,0,0,0.1,0.1c0,0,0,0,0.1,0c0,0,0,0,0.1-0.1
			c0,0,0-0.1,0-0.1c0,0,0-0.1,0-0.2c0-0.1,0-0.1,0-0.2c0-0.1,0-0.1,0-0.1c0,0,0-0.1-0.1-0.1C2.8,11.7,2.7,11.7,2.6,11.7
			C2.7,11.7,2.7,11.7,2.6,11.7C2.7,11.7,2.6,11.7,2.6,11.7"/>
	</defs>
	<clipPath id="SVGID_6_">
		<use xlink:href="#SVGID_5_"  style="overflow:visible;"/>
	</clipPath>
	<g class="st5">
		<g>
			<defs>
				<rect id="SVGID_7_" x="2.5" y="11.7" width="0.4" height="0.8"/>
			</defs>
			<clipPath id="SVGID_8_">
				<use xlink:href="#SVGID_7_"  style="overflow:visible;"/>
			</clipPath>
			<g class="st6">
				<defs>
					<rect id="SVGID_9_" x="2.5" y="11.7" width="0.4" height="0.8"/>
				</defs>
				<clipPath id="SVGID_10_">
					<use xlink:href="#SVGID_9_"  style="overflow:visible;"/>
				</clipPath>
				<g style="clip-path:url(#SVGID_10_);">
					
						<image style="overflow:visible;" width="2" height="3" xlink:href="BBC142BD564683F9.jpg"  transform="matrix(0.48 0 0 0.48 2.4 11.52)">
					</image>
				</g>
			</g>
		</g>
	</g>
</g>
<g>
	<defs>
		<rect id="SVGID_11_" x="1.9" y="5.3" width="46.6" height="28.6"/>
	</defs>
	<clipPath id="SVGID_12_">
		<use xlink:href="#SVGID_11_"  style="overflow:visible;"/>
	</clipPath>
	<path class="st7" d="M3.6,11.4c0,0,0,0.1,0,0.2c0,0.1,0,0.1,0,0.2c0,0.1,0,0.1,0,0.1c0,0,0,0.1,0.1,0.1c0,0,0,0,0.1,0.1
		c0,0,0.1,0,0.1,0c0,0,0,0,0.1-0.1c0,0,0-0.1,0-0.1c0,0,0-0.1,0-0.2c0-0.1,0-0.1,0-0.2c0-0.1,0-0.1,0-0.1c0,0,0-0.1-0.1-0.1
		c0,0,0-0.1-0.1-0.1c0,0-0.1,0-0.1,0c0,0,0,0-0.1,0.1C3.6,11.3,3.6,11.3,3.6,11.4"/>
</g>
<g>
	<defs>
		<path id="SVGID_13_" d="M3.7,11.2C3.6,11.2,3.6,11.2,3.7,11.2C3.6,11.3,3.6,11.3,3.7,11.2c-0.1,0.1-0.1,0.1-0.1,0.1c0,0,0,0,0,0.1
			c0,0,0,0.1,0,0.2c0,0.1,0,0.1,0,0.2c0,0.1,0,0.1,0,0.1c0,0,0,0.1,0.1,0.1c0,0,0,0,0.1,0.1c0,0,0.1,0,0.1,0c0,0,0,0,0.1-0.1
			c0,0,0-0.1,0-0.1c0,0,0-0.1,0-0.2c0-0.1,0-0.1,0-0.2c0-0.1,0-0.1,0-0.1c0,0,0-0.1-0.1-0.1C3.8,11.2,3.8,11.2,3.7,11.2
			C3.7,11.2,3.7,11.2,3.7,11.2C3.7,11.2,3.7,11.2,3.7,11.2"/>
	</defs>
	<clipPath id="SVGID_14_">
		<use xlink:href="#SVGID_13_"  style="overflow:visible;"/>
	</clipPath>
	<g class="st8">
		<g>
			<defs>
				<rect id="SVGID_15_" x="3.5" y="11.2" width="0.4" height="0.8"/>
			</defs>
			<clipPath id="SVGID_16_">
				<use xlink:href="#SVGID_15_"  style="overflow:visible;"/>
			</clipPath>
			<g class="st9">
				<defs>
					<rect id="SVGID_17_" x="3.5" y="11.2" width="0.4" height="0.8"/>
				</defs>
				<clipPath id="SVGID_18_">
					<use xlink:href="#SVGID_17_"  style="overflow:visible;"/>
				</clipPath>
				<g style="clip-path:url(#SVGID_18_);">
					
						<image style="overflow:visible;" width="3" height="3" xlink:href="BBC142BD564683FB.jpg"  transform="matrix(0.48 0 0 0.48 3.36 11.04)">
					</image>
				</g>
			</g>
		</g>
	</g>
</g>
<g>
	<defs>
		<rect id="SVGID_19_" x="1.9" y="5.3" width="46.6" height="28.6"/>
	</defs>
	<clipPath id="SVGID_20_">
		<use xlink:href="#SVGID_19_"  style="overflow:visible;"/>
	</clipPath>
	<path class="st10" d="M12.8,8.1L9.4,5.5c-0.5-0.4-1.2-0.3-1.6,0L4.8,8C4.6,8.2,4.4,8.4,4.4,8.7l-0.5,2.4c-0.1,0.5,0.1,0.9,0.5,1.2
		l3.4,2.6c0.5,0.4,1.2,0.3,1.6,0l3-2.4c0.2-0.2,0.4-0.4,0.4-0.7l0.5-2.4C13.4,8.8,13.2,8.4,12.8,8.1 M4.4,10.8
		c-0.1,0-0.1-0.1-0.1-0.2l0.4-1.9C4.7,8.4,4.9,8.2,5.1,8l2.4-2C7.6,6,7.7,6,7.8,6C7.9,6.1,8,6.2,7.9,6.3L7.5,8.1
		C7.5,8.3,7.3,8.6,7.1,8.8l-2.5,2.1C4.5,10.9,4.4,10.9,4.4,10.8 M11.5,12.7l-2.5,2c-0.3,0.2-0.7,0.2-0.9,0l-3.1-2.3
		c-0.4-0.3-0.4-0.8,0-1.1l2.5-2C7.6,9.1,8,9,8.3,9.3l3.1,2.3C11.8,11.9,11.8,12.4,11.5,12.7 M13,9l-0.4,1.6
		c-0.1,0.5-0.7,0.7-1.2,0.4l-3-2.2C8.3,8.6,8.2,8.3,8.2,8.1l0.4-1.6C8.7,5.9,9.3,5.7,9.8,6l3,2.2C13,8.4,13.1,8.7,13,9"/>
	<path class="st10" d="M11.4,10.2c0.1,0,0.1,0.1,0.2,0.1c0.1,0,0.1,0,0.2,0c0,0,0.1,0,0.1,0c0,0,0.1-0.1,0.1-0.1c0,0,0-0.1,0-0.2
		c0-0.1,0-0.1-0.1-0.2c0-0.1-0.1-0.1-0.1-0.2c0-0.1-0.1-0.1-0.2-0.2c-0.1,0-0.1-0.1-0.2-0.1c-0.1,0-0.1,0-0.2,0c0,0-0.1,0-0.1,0
		c0,0-0.1,0.1-0.1,0.1c0,0,0,0.1,0,0.2c0,0.1,0,0.1,0.1,0.2c0,0.1,0.1,0.1,0.1,0.2C11.2,10.1,11.3,10.1,11.4,10.2"/>
	<path class="st10" d="M9.6,8.8c0.1,0,0.1,0.1,0.2,0.1c0.1,0,0.1,0,0.2,0c0,0,0.1,0,0.1,0c0,0,0.1-0.1,0.1-0.1c0,0,0-0.1,0-0.2
		c0-0.1,0-0.1-0.1-0.2c0-0.1-0.1-0.1-0.1-0.2c0-0.1-0.1-0.1-0.2-0.2C9.7,8.1,9.6,8.1,9.6,8C9.5,8,9.5,8,9.4,8c0,0-0.1,0-0.1,0
		c0,0-0.1,0.1-0.1,0.1c0,0,0,0.1,0,0.2c0,0.1,0,0.1,0.1,0.2c0,0.1,0.1,0.1,0.1,0.2C9.5,8.7,9.5,8.8,9.6,8.8"/>
	<path class="st10" d="M10.6,8.8c0.1,0,0.1,0.1,0.2,0.1c0.1,0,0.1,0,0.2,0c0,0,0.1,0,0.1,0c0,0,0.1-0.1,0.1-0.1c0,0,0-0.1,0-0.2
		c0-0.1,0-0.1-0.1-0.2c0-0.1-0.1-0.1-0.1-0.2c0-0.1-0.1-0.1-0.2-0.2c-0.1,0-0.1-0.1-0.2-0.1c-0.1,0-0.1,0-0.2,0c0,0-0.1,0-0.1,0
		c0,0-0.1,0.1-0.1,0.1c0,0,0,0.1,0,0.2c0,0.1,0,0.1,0.1,0.2c0,0.1,0.1,0.1,0.1,0.2C10.5,8.7,10.6,8.8,10.6,8.8"/>
	<path class="st10" d="M11.7,8.9c0.1,0,0.1,0.1,0.2,0.1S12,9,12,9c0,0,0.1,0,0.1,0c0,0,0.1-0.1,0.1-0.1c0,0,0-0.1,0-0.2
		c0-0.1,0-0.1-0.1-0.2c0-0.1-0.1-0.1-0.1-0.2c0-0.1-0.1-0.1-0.2-0.2c-0.1,0-0.1-0.1-0.2-0.1c-0.1,0-0.1,0-0.2,0s-0.1,0-0.1,0
		c0,0-0.1,0.1-0.1,0.1c0,0,0,0.1,0,0.2c0,0.1,0,0.1,0.1,0.2c0,0.1,0.1,0.1,0.1,0.2C11.6,8.8,11.6,8.8,11.7,8.9"/>
	<path class="st10" d="M9.9,7.5c0.1,0,0.1,0.1,0.2,0.1c0.1,0,0.1,0,0.2,0c0,0,0.1,0,0.1,0c0,0,0.1-0.1,0.1-0.1c0,0,0-0.1,0-0.2
		c0-0.1,0-0.1-0.1-0.2c0-0.1-0.1-0.1-0.1-0.2c0-0.1-0.1-0.1-0.2-0.2C10,6.8,10,6.8,9.9,6.7c-0.1,0-0.1,0-0.2,0c0,0-0.1,0-0.1,0
		c0,0-0.1,0.1-0.1,0.1c0,0,0,0.1,0,0.2c0,0.1,0,0.1,0.1,0.2c0,0.1,0.1,0.1,0.1,0.2C9.8,7.4,9.9,7.4,9.9,7.5"/>
	<path class="st10" d="M5.9,8.7C6,8.7,6,8.6,6.1,8.6c0.1-0.1,0.1-0.1,0.1-0.2c0-0.1,0.1-0.1,0.1-0.2c0-0.1,0.1-0.1,0.1-0.1
		c0,0,0-0.1,0-0.1c0,0,0,0-0.1,0c0,0-0.1,0-0.1,0c0,0-0.1,0.1-0.1,0.1C6,8.1,6,8.1,5.9,8.2C5.9,8.3,5.8,8.3,5.8,8.4
		c0,0.1-0.1,0.1-0.1,0.2c0,0.1-0.1,0.1-0.1,0.2c0,0,0,0.1,0,0.1c0,0,0,0,0.1,0c0,0,0.1,0,0.1,0C5.8,8.8,5.8,8.8,5.9,8.7"/>
	<path class="st10" d="M6,12.3c-0.1,0-0.1-0.1-0.1-0.2c0-0.1-0.1-0.1-0.1-0.2c0-0.1,0-0.1,0-0.2c0-0.1,0.1-0.1,0.1-0.1
		c0.1,0,0.1-0.1,0.2-0.1c0.1,0,0.1,0,0.2,0c0.1,0,0.2,0,0.2,0c0.1,0,0.1,0.1,0.2,0.1c0.1,0,0.1,0.1,0.1,0.2C7,11.9,7,12,7,12
		c0,0.1,0,0.1,0,0.2c0,0.1-0.1,0.1-0.1,0.1c-0.1,0-0.1,0.1-0.2,0.1c-0.1,0-0.1,0-0.2,0c-0.1,0-0.2,0-0.2,0C6.1,12.4,6.1,12.4,6,12.3
		"/>
	<path class="st10" d="M7.8,13.7c-0.1,0-0.1-0.1-0.1-0.2c0-0.1-0.1-0.1-0.1-0.2c0-0.1,0-0.1,0-0.2c0-0.1,0.1-0.1,0.1-0.1
		c0.1,0,0.1-0.1,0.2-0.1c0.1,0,0.1,0,0.2,0c0.1,0,0.2,0,0.2,0c0.1,0,0.1,0.1,0.2,0.1c0.1,0,0.1,0.1,0.1,0.2c0,0.1,0.1,0.1,0.1,0.2
		c0,0.1,0,0.1,0,0.2c0,0.1-0.1,0.1-0.1,0.1c-0.1,0-0.1,0.1-0.2,0.1c-0.1,0-0.1,0-0.2,0c-0.1,0-0.2,0-0.2,0
		C7.9,13.8,7.8,13.7,7.8,13.7"/>
	<path class="st10" d="M7.6,11c-0.1,0-0.1-0.1-0.1-0.2c0-0.1-0.1-0.1-0.1-0.2c0-0.1,0-0.1,0-0.2c0-0.1,0.1-0.1,0.1-0.2
		c0.1,0,0.1-0.1,0.2-0.1c0.1,0,0.1,0,0.2,0c0.1,0,0.2,0,0.2,0c0.1,0,0.1,0.1,0.2,0.1c0.1,0,0.1,0.1,0.1,0.2c0,0.1,0.1,0.1,0.1,0.2
		c0,0.1,0,0.1,0,0.2c0,0.1-0.1,0.1-0.1,0.1c-0.1,0-0.1,0.1-0.2,0.1c-0.1,0-0.1,0-0.2,0c-0.1,0-0.2,0-0.2,0C7.7,11.1,7.6,11.1,7.6,11
		"/>
	<path class="st10" d="M9.3,12.4c-0.1,0-0.1-0.1-0.1-0.2c0-0.1-0.1-0.1-0.1-0.2c0-0.1,0-0.1,0-0.2c0-0.1,0.1-0.1,0.1-0.2
		c0.1,0,0.1-0.1,0.2-0.1c0.1,0,0.1,0,0.2,0c0.1,0,0.2,0,0.2,0c0.1,0,0.1,0.1,0.2,0.1c0.1,0,0.1,0.1,0.1,0.2c0,0.1,0.1,0.1,0.1,0.2
		c0,0.1,0,0.1,0,0.2c0,0.1-0.1,0.1-0.1,0.1c-0.1,0-0.1,0.1-0.2,0.1c-0.1,0-0.1,0-0.2,0c-0.1,0-0.2,0-0.2,0
		C9.5,12.5,9.4,12.5,9.3,12.4"/>
	<path class="st10" d="M7.1,14.2L6.9,14c-0.1,0.1-0.2,0.1-0.3,0.1l-2.4,0.1c-0.1,0-0.1,0-0.2-0.1c0,0-0.1-0.1,0-0.2l0.4-1.9L4.3,12
		l-0.1-0.9l0-0.3l-0.9-1c0,0,0-0.1,0-0.2c0-0.1,0.1-0.1,0.1-0.1l0.9-0.1l0-0.2L3.1,9.3c-0.2,0-0.4,0.2-0.5,0.4l-0.6,2.6
		c0,0.1,0,0.3,0.1,0.4l1.4,1.6c0.1,0.1,0.3,0.2,0.4,0.2l2.8-0.2C6.9,14.3,7,14.3,7.1,14.2 M3.7,13.9C3.7,13.9,3.6,13.9,3.7,13.9
		c-0.1,0.1-0.2,0.1-0.2,0l-1.1-1.3c-0.1-0.1-0.1-0.3-0.1-0.4l0.5-2.1C2.8,10,2.8,10,2.9,10C2.9,10,3,10,3,10l1,1.2
		c0.1,0.1,0.2,0.3,0.1,0.5L3.7,13.9z"/>
</g>
</svg>
