<?xml version="1.0" encoding="utf-8"?>
<!-- Generator: Adobe Illustrator 21.1.0, SVG Export Plug-In . SVG Version: 6.00 Build 0)  -->
<svg version="1.1" id="圖層_1" xmlns="http://www.w3.org/2000/svg" xmlns:xlink="http://www.w3.org/1999/xlink" x="0px" y="0px"
	 width="50px" height="40px" viewBox="0 0 50 40" style="enable-background:new 0 0 50 40;" xml:space="preserve">
<style type="text/css">
	.st0{clip-path:url(#SVGID_2_);fill:#FFFFFF;}
</style>
<g>
	<defs>
		<rect id="SVGID_1_" x="5.5" y="3" width="38.9" height="34"/>
	</defs>
	<clipPath id="SVGID_2_">
		<use xlink:href="#SVGID_1_"  style="overflow:visible;"/>
	</clipPath>
	<path class="st0" d="M38.6,11.7c-2.5-4.3-6.7-6.5-9.5-4.9s-3,6.4-0.5,10.7c2.5,4.3,6.8,6.4,9.5,4.8C40.9,20.7,41.1,16,38.6,11.7
		 M29.1,17.2c-2.4-4.1-2-8.7,0.6-10.2s6.4,0.7,8.8,4.7c2.4,4.1,2.4,8.5-0.2,10C35.7,23.3,31.5,21.3,29.1,17.2"/>
	<polygon class="st0" points="33.2,11.1 32.7,12.3 33.1,12.8 33.5,11.9 33.5,11.9 36.4,16.7 36.9,16.3 33.6,10.9 	"/>
	<path class="st0" d="M39.2,11.3c-4.7-8-15-10.7-23-6c-6.7,3.9-9.7,11.8-7.7,19c0.1,0,0.1,0,0.2,0h1.1c0.8,0,1.4,0.6,1.4,1.4v0.1
		c0.5-0.1,1.3-0.1,2.1-0.1c0.1,0,0.2-0.1,0.3-0.1c0.9-0.1,1.7-0.5,2.5-1.1c0.2-0.2,0.6-0.3,0.9-0.3h1.1c0.7,0,1.4,0.6,1.4,1.3
		c0.4-0.1,0.9-0.1,1.6-0.1c0.1-0.2,0.2-0.4,0.4-0.5l0.9-0.8c0.5-0.4,1.1-0.5,1.7-0.2c0.5,0.3,1,0.6,1.5,0.9c0,0,0-0.1,0-0.1
		c0.1-0.4,0.3-0.8,0.7-1c0.4-0.2,0.8-0.3,1.2-0.2l0.6,0.2c0,0,0.1-0.1,0.1-0.1c0.3-0.3,0.7-0.4,1.1-0.4l2.1,0.3
		c0.5,0.1,0.9,0.3,1.1,0.7c0.3,0,0.6,0.1,0.9,0.4l1.3,1.1c0,0,0.1,0.1,0.1,0.1c0.7-0.1,1.8-0.3,2.8-0.3l0.2-0.4
		c0.2-0.5,0.7-0.9,1.3-0.9h1.8C42,20,41.6,15.4,39.2,11.3 M17.3,20.4L16,20.5v-0.4h-3.5v0h-1.3v-5.2l1.3,0.2v4.5h1.1v-5.7l1.3,0.2
		v5.5H16v-4.7l1.3,0.2V20.4z M18.6,20.2l-0.4-0.4c0.4-0.5,0.8-1.2,1.1-1.9l1.2,0.3C20,19,19.4,19.7,18.6,20.2 M23.5,20.3
		c-0.2-0.7-0.6-1.4-1.1-2.1l0.6-0.3c0.4,0.3,0.8,0.7,1.1,1c0.3,0.3,0.5,0.5,0.5,0.7L23.5,20.3z M24.5,15.5h-3.8l-0.6,1.6h1v-1.3
		l1.2,0.2v1.1h1.2l0.4-0.4l0.7,0.6l-0.3,0.3h-2v2.1c0,0.5-0.3,0.8-0.9,0.8h-0.7c0-0.4-0.3-0.7-0.8-0.7l0-0.5
		c0.3,0.1,0.6,0.1,0.8,0.1c0.3,0,0.5-0.1,0.5-0.2v-1.6h-1.2v0h-1.2c0.3-0.8,0.6-1.5,0.8-2.2h-1.1l-0.1-0.5h1.5
		c0.2-0.4,0.3-0.8,0.5-1.1l1.1,0.2l-0.4,1h2.8l0.4-0.4l0.7,0.6L24.5,15.5z M38.6,23.1c-3,1.8-7.9-0.6-10.6-5.3
		C25.2,13.2,25.6,7.8,28.6,6c3-1.8,7.8,0.6,10.5,5.3C41.9,16.1,41.7,21.4,38.6,23.1"/>
	<path class="st0" d="M11.3,36.5H5.5v-1.1h0.3c0.3,0,0.6-0.1,0.9-0.3c0.2-0.2,0.3-0.5,0.3-0.8v-5.2c0-0.7-0.4-1-1.1-1H5.5V27
		c1.1-0.2,2.2-0.6,3.1-1.3h1.1v8.6c0,0.3,0.1,0.6,0.3,0.8c0.2,0.2,0.5,0.3,0.9,0.3h0.3V36.5z"/>
	<path class="st0" d="M19.6,36.5h-5.8v-1.1h0.3c0.3,0,0.6-0.1,0.9-0.3c0.2-0.2,0.3-0.5,0.3-0.8v-5.2c0-0.7-0.4-1-1.1-1h-0.5V27
		c1.1-0.2,2.2-0.6,3.1-1.3h1.1v8.6c0,0.3,0.1,0.6,0.3,0.8c0.2,0.2,0.5,0.3,0.9,0.3h0.3V36.5z"/>
	<path class="st0" d="M23.4,29.9l0.9-0.8l1.7,1.4L25.5,31v2.6c0.1,0.8,0.7,1.2,1.8,1.2h7.2L34,36.7h-6.6c-1.3,0-2.3-0.6-3-1.8
		c-0.2,0.5-0.6,1.2-1.3,2.2l-1.2-1.6c1.1-0.9,1.6-1.6,1.6-1.9v-2.7h-1.2l-0.2-1H23.4z M23.4,25.1c1,0.6,1.9,1.2,2.5,1.7l-1.6,1.6
		c-0.6-1-1.2-1.9-1.8-2.6L23.4,25.1z M27,24.9l1.9,0.6c-0.1,0.3-0.3,0.6-0.4,0.9h0.6v-1.7l2.1,0.3v1.4h0.5l0.8-0.7l1.3,1.1l-0.6,0.6
		h-1.9v1.4h1.1l0.8-0.7l1.3,1.1l-0.6,0.6h-1.6v2.5c0,0.2,0,0.2,0.1,0.2h0.3c0.2,0,0.3-0.1,0.3-0.2l0.2-1.1l0.7,0.1
		c0,0.2,0,0.4,0,0.5c0,0.6,0.2,1,0.7,1.2c-0.3,0.7-0.7,1.1-1.5,1.1h-1.7c-0.8,0-1.2-0.4-1.2-1.3v-3.1h-0.8v0.7c0,1.8-1,3-3,3.9
		l-0.5-0.7c1.1-0.8,1.6-1.9,1.6-3.3v-0.5H26l-0.3-1h3.3v-1.4h-1.3c-0.3,0.5-0.7,0.9-1.1,1.2l-0.8-0.5C26.4,27.1,26.8,26,27,24.9"/>
	<path class="st0" d="M44.5,25.4l-0.7,1.4c-0.4,0.7-0.9,1-1.7,1h-2.7l-0.4,0.9c1.6,0.4,2.7,0.8,3.3,1.1c1.2,0.7,1.8,1.6,1.8,2.7
		c0,1.4-0.6,2.4-1.9,3.1c-1.1,0.6-2.3,0.9-3.8,0.9c-0.4,0-0.8-0.1-1.2-0.2c-0.5-0.2-0.8-0.4-0.8-0.7c0-0.2,0.1-0.5,0.4-0.8
		c0.2-0.3,0.5-0.4,0.7-0.4c0.3,0,0.6,0.1,1.2,0.3c0.5,0.2,0.9,0.3,1.2,0.3c0.4,0,0.8-0.1,1.2-0.4c0.5-0.3,0.7-0.6,0.7-1
		c0-0.8-0.7-1.5-2-2.1c-0.8-0.4-1.8-0.6-3-0.8l2.3-5.2h3.4c0.5,0,0.8-0.2,1.1-0.6L44.5,25.4z"/>
</g>
</svg>
