<?xml version="1.0" encoding="utf-8"?>
<!-- Generator: Adobe Illustrator 21.1.0, SVG Export Plug-In . SVG Version: 6.00 Build 0)  -->
<svg version="1.1" id="圖層_1" xmlns="http://www.w3.org/2000/svg" xmlns:xlink="http://www.w3.org/1999/xlink" x="0px" y="0px"
	 width="50px" height="40px" viewBox="0 0 50 40" style="enable-background:new 0 0 50 40;" xml:space="preserve">
<style type="text/css">
	.st0{clip-path:url(#SVGID_2_);fill:#FFFFFF;}
</style>
<g>
	<defs>
		<rect id="SVGID_1_" x="5.3" y="1.4" width="39.4" height="37.1"/>
	</defs>
	<clipPath id="SVGID_2_">
		<use xlink:href="#SVGID_1_"  style="overflow:visible;"/>
	</clipPath>
	<path class="st0" d="M24.4,10.4h0.7c0,0.3-0.1,0.5-0.2,0.7c-0.1,0.1-0.2,0.2-0.4,0.2h-0.2v0.5h0.9v0.7h-0.9v3.7h-0.8v-2.9l-0.1,2.3
		c0,0.2-0.1,0.3-0.2,0.4c-0.1,0.1-0.2,0.1-0.3,0.1h-0.3v-0.7h0c0.1,0,0.1-0.1,0.1-0.2l0.1-2.4h0.6v-0.4h-0.8v-0.7h0.8v-0.5h-0.7
		v-0.7h1.3C24.3,10.6,24.4,10.5,24.4,10.4 M24.3,12.8H25l0.1,2.4c0,0.1,0.1,0.2,0.1,0.2v0.7h-0.3c-0.2,0-0.4-0.2-0.4-0.6L24.3,12.8z
		 M25.7,10.5h0.8l-0.3,2.7c-0.1,0.6-0.3,0.9-0.6,0.9h-0.4v-0.7h0.1c0.1,0,0.2-0.2,0.2-0.5L25.7,10.5z M27.7,13.5h0.9l-0.7,2.2
		c-0.1,0.3-0.2,0.4-0.4,0.4h-2.1v-0.7h1.7c0.1,0,0.1-0.1,0.2-0.3L27.7,13.5z M26.6,10.4h0.8v3.9c0,0.2-0.1,0.4-0.2,0.5
		c-0.1,0.1-0.2,0.2-0.4,0.2h-0.6v-0.7h0.3c0.1,0,0.1-0.1,0.1-0.3V10.4z M27.4,10.5h0.8l0.2,2c0,0.1,0.1,0.2,0.2,0.2h0.1v0.7h-0.5
		c-0.3,0-0.5-0.2-0.5-0.6L27.4,10.5z"/>
	<path class="st0" d="M29.2,12.1h1.1v2.9c0,0.2,0.2,0.3,0.5,0.3h6.5l0.5,0.8h-7.1c-0.3,0-0.5-0.1-0.6-0.3c-0.1,0.2-0.3,0.3-0.5,0.3
		h-0.5v-0.7h0.1c0.1,0,0.2-0.1,0.2-0.2v-2.3h-0.3V12.1z M29.6,10.4h0.9v1.3h-0.9V10.4z M31.3,13.8h0.9l-0.4,1
		c-0.1,0.2-0.2,0.3-0.4,0.3h-0.6v-0.6h0.3c0.1,0,0.1-0.1,0.2-0.2L31.3,13.8z M34.9,10.6v0.7h-1.8v0.3h1.6V13c0,0.4-0.2,0.6-0.6,0.6
		h-1v1.7h-0.8v-1.7h-1.5v-1.9h1.5v-0.3h-1.6v-0.7h1.6v-0.3h0.8v0.3H34.9z M32.3,12.3h-0.7v0.6h0.7V12.3z M33.8,12.9
		c0.1,0,0.2-0.1,0.2-0.2v-0.3h-0.8v0.6H33.8z M33.4,13.8h0.9l0.1,0.4c0,0.1,0.1,0.1,0.1,0.1h0.4v0.7h-0.8c-0.1,0-0.2-0.1-0.3-0.3
		L33.4,13.8z"/>
	<polygon class="st0" points="18,26.9 16.1,26.9 16.1,21.2 15,21.2 15,20.4 17.2,18.6 18,18.6 	"/>
	<polygon class="st0" points="24,26.9 22.1,26.9 22.1,21.2 20.9,21.2 20.9,20.4 23.2,18.6 24,18.6 	"/>
	<path class="st0" d="M26.2,20.9h2.3v5.3c0,0.3,0.3,0.5,0.8,0.5h7.6v1.4h-7.8c-0.4,0-0.7-0.1-1-0.4c-0.2,0.3-0.5,0.4-0.9,0.4h-1.2
		v-1.4h0.6c0.2,0,0.3-0.1,0.3-0.3v-4.1h-0.8V20.9z M26.9,17.5h1.7v2.1h-1.7V17.5z M30.1,17.7h1.5l-0.2,0.8h1.1v-1.3h1.6v1.3h2.4v1.3
		h-2.4v1.5h2.7v1.4h-1.6v1.9c0,0.1,0.1,0.2,0.3,0.2h1.3v1.3h-2.3c-0.6,0-0.9-0.3-0.9-0.8v-2.7h-4.5v-1.4h3.4v-1.5H31
		c-0.1,0.5-0.5,0.8-1,0.8h-0.8v-1.3h0.3c0.1,0,0.2-0.1,0.2-0.3L30.1,17.7z M30.8,23.2h1.5l-0.5,2.2c-0.1,0.5-0.5,0.8-1,0.8h-1.4
		v-1.3h0.8c0.1,0,0.2-0.1,0.2-0.3L30.8,23.2z"/>
	<path class="st0" d="M44.1,25.6c0,0.9-0.5,1.3-1.6,1.3h-3.7v-1.8h3.4v-1.8h-3.4v-4.7h5v1.8h-3v1.8h1.9c0.6,0,1,0.1,1.2,0.3
		c0.2,0.2,0.3,0.5,0.3,1V25.6z"/>
	<path class="st0" d="M41.7,12c0,0.2-0.2,0.4-0.4,0.4c-0.2,0-0.4-0.2-0.4-0.4c0-0.2,0.2-0.4,0.4-0.4C41.5,11.6,41.7,11.8,41.7,12
		 M44.7,14.2c0-0.1-0.1-0.1-0.1-0.2c0,0-0.1,0-0.1,0c-0.1,0-0.2,0.1-0.3,0.1L43,16.2l-0.4,0l1-1.9l-1.7-0.7l-0.1,2.5l-0.4,0l0.1-3
		c0-0.2-0.1-0.3-0.3-0.3c-0.2,0-0.3,0.1-0.3,0.3l-0.1,3l-0.4,0l0.1-2.5l-1.8,0.6l0.9,1.9l-0.4,0L38.3,14c0-0.1-0.1-0.2-0.3-0.2
		c0,0-0.1,0-0.1,0c-0.1,0.1-0.2,0.2-0.1,0.4l0.9,1.8c-0.1,0-0.2,0.1-0.2,0.2l0,0.9c0,0.1,0.1,0.2,0.2,0.2l4.9,0.1
		c0.1,0,0.2-0.1,0.2-0.2l0-0.9c0-0.1-0.1-0.2-0.2-0.2l1-1.8C44.7,14.3,44.7,14.2,44.7,14.2"/>
	<path class="st0" d="M28.2,29.6c-0.3-0.4-0.7,0-0.9,1.1l-0.6,3.5c-0.2,1-0.9,1.2-1.5,0.4L20.4,29c-0.7-0.8-2-1.3-3-1.2l-7.3,1
		c-1,0.1-1.4-0.5-0.9-1.3l3.8-6.3c0.5-0.9,0.6-2.3,0.2-3.3l-3.2-6.6c-0.4-0.9,0-1.5,1-1.2l7.2,1.7c1,0.2,2.4-0.1,3.1-0.9l5.3-5.1
		c0.7-0.7,1.4-0.5,1.5,0.6l0,0.1c0.1,1,0.2,1.8,0.2,1.7c0-0.1,0.4-0.4,0.8-0.6c0.3-0.2,0.5-1.2,0.4-2.2l-0.2-3
		c-0.1-1-0.7-1.3-1.5-0.6l-7.2,7c-0.7,0.7-2.1,1.1-3.1,0.9L7.5,7.3c-1-0.2-1.4,0.3-1,1.2l4.4,9c0.4,0.9,0.4,2.4-0.2,3.3l-5.2,8.6
		c-0.5,0.9-0.1,1.5,0.9,1.3l9.9-1.4c1-0.1,2.4,0.4,3,1.2l6.5,7.6c0.7,0.8,1.4,0.6,1.5-0.4l1-5.4C28.6,31.2,28.5,30.1,28.2,29.6"/>
</g>
</svg>
