<?xml version="1.0" encoding="utf-8"?>
<!-- Generator: Adobe Illustrator 21.1.0, SVG Export Plug-In . SVG Version: 6.00 Build 0)  -->
<svg version="1.1" id="logo_x5F_cqssc" xmlns="http://www.w3.org/2000/svg" xmlns:xlink="http://www.w3.org/1999/xlink" x="0px"
	 y="0px" viewBox="0 0 190 150" style="enable-background:new 0 0 190 150;" xml:space="preserve">
<style type="text/css">
	.st0{fill:#FFFFFF;}
</style>
<title>logo_cqssc</title>
<g id="图层_2">
	<g id="top">
		<path class="st0" d="M46.3,127.8c-0.7,0.4-1.4,0.7-2.2,1.8c-0.7,1.1-0.7,2.2-0.7,3.3c0,1.1,0,2.2,0.7,2.9c0.7,0.4,1.4,0.7,2.2,0.4
			c0.7-0.4,1.4-0.7,2.2-1.8c0.7-1.1,0.7-2.5,0.7-3.6c0-1.1,0-1.8-0.7-2.5C47.7,127.5,46.6,127.5,46.3,127.8z"/>
		<polygon class="st0" points="47,129.6 43,131.1 43,145.2 53.5,141.6 53.5,138 47,140.5 		"/>
		<polygon class="st0" points="69.8,92.3 72,86.9 68.4,88 66.2,93.4 		"/>
		<polygon class="st0" points="20.2,94.5 23.8,93.4 25.6,88 22,89.1 		"/>
		<path class="st0" d="M106,118.8c0.4,0,0.4-0.4,0.7-0.7c0-0.4,0-0.7,0-1.1c0-0.4,0-0.7-0.4-0.7s-0.7,0-1.4,0l-1.8,0.7v2.9l1.8-0.7
			L106,118.8z"/>
		<polygon class="st0" points="77.4,70.9 73.8,72.4 72,77.8 75.6,76.4 		"/>
		<path class="st0" d="M28.1,93.4l5.8-16.7l3.3-1.4l1.4-4.3l-20.7,8L1,127.1l20.7-8L31.4,92L28.1,93.4z M18,109l-3.6,1.4l1.8-5.4
			l3.6-1.4L18,109z M23.8,93.4l-3.6,1.4l1.8-5.4l3.6-1.4L23.8,93.4z"/>
		<path class="st0" d="M73.8,102.5l9.8-27.2l-3.3,1.4l5.8-16.7l3.3-1.4l1.4-4.3l-20.7,8l-17,48.2L73.8,102.5z M73.8,72.4l3.6-1.4
			l-1.8,5.4L72,77.8L73.8,72.4z M71.6,86.9l-1.8,5.4l-3.6,1.4l2.2-5.8L71.6,86.9z"/>
		<path class="st0" d="M110.4,63.3l5.4-2.2l4.3-12.3l-5.4,2.2l3.6-10.1l-10.9,4.3l-3.6,10.1l-16.7,6.5l-4.3,12.3l16.7-6.5l-1.4,4
			c1.1,1.8,1.1,4,0.4,5.8c-1.1,2.9-2.9,5.8-5.1,8l-1.4,4c0,0.7-0.4,1.1-0.7,1.4c-1.1,0.7-2.2,1.1-3.3,1.4l-4.3,1.8l-4.7,12l14.5-5.4
			c1.4-0.4,2.5-1.4,3.3-2.5c0.7-0.7,1.4-1.8,2.2-2.9c1.1-2.2,1.8-4.3,2.5-6.5L110.4,63.3z"/>
		<path class="st0" d="M44.8,114.8c0.7-0.7,1.4-1.8,2.2-2.9c1.1-2.2,1.8-4.3,2.5-6.5L58.6,80l5.4-2.2l4.3-12.3l-5.4,2.2l3.6-10.1
			l-10.9,4.3L52.1,72l-16.7,6.5L31,90.9l16.7-6.2l-1.4,4c1.1,1.8,1.1,4,0.4,5.8c-1.1,2.9-2.9,5.8-5.1,8l-1.8,3.6
			c0,0.7-0.4,1.1-0.7,1.4c-1.1,0.7-2.2,1.1-3.3,1.4l-4.3,1.8l-4.3,12l14.5-5.4C42.6,116.6,43.7,115.9,44.8,114.8z"/>
		<path class="st0" d="M87.9,85.4c3.3-1.1,5.8-3.6,6.9-6.9c1.1-3.6,0-6.2-2.9-5.8c-3.3,1.1-5.8,3.6-6.9,6.9
			C84.3,82.9,85.4,85.8,87.9,85.4z"/>
		<path class="st0" d="M36.5,102.1c3.3-1.1,5.8-3.6,6.9-6.9c1.1-3.6,0-6.2-2.9-5.8c-3.3,1.1-5.8,3.6-6.9,6.9
			C32.5,99.6,33.9,102.5,36.5,102.1z"/>
		<path class="st0" d="M108.6,116.2h0.4c0.4,0,0.7,0,1.1,0c0.4,0.4,0.4,0.4,0.7,0.7l2.2,3.6l4.7-1.8l-1.8-3.6c0-0.4-0.4-0.4-0.7-0.7
			c-0.4-0.4-0.4-0.4-0.7-0.4c-0.4,0-0.7,0-1.1,0c0.4-0.4,1.1-0.7,1.4-1.1c0.4-0.7,1.1-1.1,1.1-1.8c0.4-0.7,0.4-1.4,0.4-2.2
			s0-1.4-0.7-2.2c-0.4-0.4-0.7-0.7-1.4-0.7c-1.1,0-1.8,0.4-2.9,0.7l-6.9,2.5v14.5l4-1.4L108.6,116.2z M108.6,110.4l1.8-0.7
			c0.7-0.4,1.1-0.4,1.4,0s0.4,0.7,0.4,0.7c0,0.4,0,0.7-0.4,1.1c0,0.4-0.4,0.4-0.7,0.7L110,113l-1.8,0.7L108.6,110.4z"/>
		<polygon class="st0" points="96.6,120.6 103.1,118.1 103.1,115.2 96.6,117.7 96.6,115.2 103.5,112.6 103.5,109.7 92.6,113.7 
			92.6,127.8 103.9,123.8 103.9,120.6 96.6,123.5 		"/>
		<path class="st0" d="M66.9,124.6c-1.4-0.7-3.6-0.7-5.1,0c-2.2,0.7-3.6,1.8-5.1,3.6c-1.1,1.8-1.8,4-1.8,6.2c0,1.4,0.4,2.9,0.7,4
			c0.4,0.7,1.4,1.4,2.2,1.4c1.1,0,2.5,0,3.6-0.7c1.4-0.4,2.5-1.1,3.6-2.2c1.1-1.1,1.8-2.2,2.2-3.3c0.4-1.4,0.7-2.9,0.7-4.3
			C68.7,127.5,68.4,125.7,66.9,124.6z M64,134.4c-0.4,0.7-1.1,1.4-2.2,1.8c-0.7,0.4-1.4,0.4-1.8-0.4c-0.7-0.7-0.7-1.8-0.7-2.9
			s0.4-2.5,0.7-3.3c0.4-0.7,1.1-1.4,1.8-1.8c0.7-0.4,1.4-0.4,2.2,0c0.7,0.7,0.7,1.8,0.7,2.5C64.7,131.8,64.7,133.3,64,134.4
			L64,134.4z"/>
		<polygon class="st0" points="125.3,115.9 125.3,109.7 130.3,99.6 126,101.4 123.4,107.2 120.5,103.2 116.2,105 121.3,111.5 
			121.3,117.3 		"/>
		<polygon class="st0" points="68.7,122.4 68.7,125.7 72.7,124.2 72.7,135.1 77.1,133.6 77.1,122.8 79.6,121.7 81,121.3 83.6,120.2 
			83.6,131.1 87.9,129.6 87.9,118.8 91.9,117.3 91.9,113.7 79.6,118.4 		"/>
		<polygon class="st0" points="149.9,48.8 160.4,44.8 160.4,34.3 149.9,38.7 		"/>
		<polygon class="st0" points="115.8,95.6 128.5,71.3 120.9,94.5 132.5,89.8 140.1,67.3 138.3,86.5 149.2,82.2 151,59 156.1,56.8 
			158.2,49.9 143.7,55.7 144.8,52.5 132.9,57.2 132.1,60.4 117.3,66.2 115.1,73.1 119.8,71.3 105.3,99.9 		"/>
		<polygon class="st0" points="135,45.2 135,55 145.9,50.6 145.9,40.1 135.8,44.1 137.2,41.6 150.3,36.5 160,32.5 161.9,31.8 
			167.3,21.7 155.7,26 154.2,28.5 141.9,33.6 132.5,37.2 131.1,38 117.3,61.9 128.2,57.5 		"/>
		<path class="st0" d="M172,89.8L172,89.8c-5.8-2.2-14.1-5.1-8-13.4c0.7-1.1,1.4-2.2,2.2-3.3c2.5-2.9,4-6.5,4.3-10.5
			c0-1.1,0-2.2-0.4-3.3c-4-19.6,13.8-40.6,19.9-47.1l-16.3,6.5h-0.4c-4,4.7-6.5,10.5-8,16.7l0,0c-1.1,4-1.4,8-1.8,12
			c-0.4,10.9,3.6,14.1-4,27.5l0,0c-1.4,1.8-2.5,4-3.6,5.8c-2.5,4.7-4.3,10.5,0,11.6c6.9,1.8,14.9,7.6,0,19.9l0,0
			c-13.8,13.8-23.6,1.1-42,37h17.8c8-25,10.9-18.8,26.5-32.6l0,0l2.5-1.8c4.3-3.6,7.6-6.5,10.1-8.7c6.2-5.8,6.9-10.9,4-14.1
			C174.2,90.9,173.1,90.5,172,89.8z"/>
	</g>
</g>
<g>
	<g>
		<path class="st0" d="M12.2,52.1l13.4-4.3v-2.2l-10.5,3.6c-1.4,0.4-2.5-0.4-2.5-1.4l-0.7-10.9c0-1.4,0.7-2.5,2.2-3.3l26.5-8.7
			c1.4-0.4,2.5,0,2.5,1.4l0.7,10.9c0,1.1-1.1,2.5-2.2,2.9L31,43.8v2.2l13.4-4.3v1.8L31,47.7v2.5l14.5-4.7v1.8L11.5,59v-1.8L26,52.5
			v-2.5l-13.4,4.3L12.2,52.1z M12.2,66.6l1.8-7.2l5.8-1.8L18,64.8L12.2,66.6z M19.4,45.6l5.8-1.8l-0.7-11.6l-5.8,2.2
			c-0.7,0-1.4,0.7-1.4,1.4l0.7,9.1C18,45.6,18.7,45.9,19.4,45.6z M19.4,43l-1.1-6.2l4.7-1.4l1.1,6.2L19.4,43z M23.8,63l-2.9-5.8
			l5.8-1.8l2.9,5.8L23.8,63z M32.5,60.1l-2.9-5.8l5.4-1.8l2.5,5.8L32.5,60.1z M37.6,29.3c0-0.7-0.7-1.1-1.4-0.7l-5.8,1.8L31,41.9
			l5.8-1.8c0.7-0.4,1.4-1.1,1.4-1.8L37.6,29.3z M31.8,39.1l0.4-6.5l4.7-1.4l-0.4,6.5L31.8,39.1z M40.8,57.2l-2.9-5.4l5.4-1.8
			l2.9,5.8L40.8,57.2z"/>
		<path class="st0" d="M63.6,16.9c-0.4,2.5-0.7,4.7-1.1,7.2l18.8-6.5v1.8l-10.1,3.3l0.7,9.4c2.9-2.9,5.1-5.8,7.6-9.4l0.4,4
			c-2.5,3.3-5.1,6.2-7.6,9.1l0.4,7.2c0,0.7,0.7,1.1,1.4,0.7l8.7-2.9v1.8L69.4,47c-1.4,0.4-2.5,0-2.5-1.4l0-4c-2.5,2.9-5.4,5.4-8.7,8
			v-2.9c2.9-2.9,5.8-5.4,8.7-8.3l-0.7-13.4L62.6,26c-1.8,9.1-4.3,17.8-7.6,26.5l-5.8,1.8c3.6-8.7,6.2-17.4,8-26.5l-9.4,3.3v-1.8
			L57.8,26c0.4-2.5,0.7-4.7,1.1-7.2L63.6,16.9z M72,20.2l-2.5-4l5.4-1.8l2.9,3.6L72,20.2z"/>
		<path class="st0" d="M86.8,16.2l-2.9-6.2l5.8-1.8l2.9,6.2L86.8,16.2z M87.9,26L85,19.1l5.8-1.8l2.9,6.9L87.9,26z M85,42.3
			c1.8-4.7,2.5-9.1,2.9-14.1l5.8-1.8c-0.4,5.1-1.4,10.1-2.9,14.1L85,42.3z M95.2,38.7v-1.8l9.1-3.3l-1.8-26.1l-8.3,2.9V8.6L116.6,1
			v1.8l-8.7,2.9l1.8,26.1l9.8-3.3v1.8L95.2,38.7z"/>
	</g>
</g>
</svg>
