<?xml version="1.0" encoding="utf-8"?>
<!-- Generator: Adobe Illustrator 21.1.0, SVG Export Plug-In . SVG Version: 6.00 Build 0)  -->
<svg version="1.1" id="圖層_1" xmlns="http://www.w3.org/2000/svg" xmlns:xlink="http://www.w3.org/1999/xlink" x="0px" y="0px"
	 width="50px" height="40px" viewBox="0 0 50 40" style="enable-background:new 0 0 50 40;" xml:space="preserve">
<style type="text/css">
	.st0{clip-path:url(#SVGID_2_);fill:#FFFFFF;}
</style>
<g>
	<defs>
		<rect id="SVGID_1_" x="2.5" y="4.5" width="45.1" height="31.1"/>
	</defs>
	<clipPath id="SVGID_2_">
		<use xlink:href="#SVGID_1_"  style="overflow:visible;"/>
	</clipPath>
	<path class="st0" d="M2.9,15.5c0.5,0.3,0.9,0.6,1.2,0.9l-0.8,0.8c-0.3-0.5-0.5-1-0.8-1.3L2.9,15.5z M5.1,15.8L5.5,16l-1.6,2.7
		c0.3,0.2,0.7,0.5,1,0.9l-1.3,1c-0.2-0.8-0.5-1.5-0.9-2L5.1,15.8z M3.5,14c0.6,0.3,1.1,0.7,1.4,1l-0.8,0.8c-0.4-0.6-0.7-1-1.1-1.4
		L3.5,14z M8.3,19.9l0.4-0.4l0.7,0.6l-0.3,0.3H4.8l-0.1-0.5h1.8v-5H5.2L5,14.4h3.1L8.6,14l0.7,0.6L9,14.9H7.6v5H8.3z"/>
	<path class="st0" d="M15.6,14.4l0.5-0.4l0.7,0.7l-0.3,0.3h-1.9v1h0.6l0.5-0.4l0.9,0.7l-0.2,0.3v4l-1.1,0.1v-0.4h-3.7v0.3l-1.1,0.1
		v-5.2l1.1,0.1v0.3H12v-1h-1.9L10,14.4H15.6z M11.5,19.7h3.7v-0.9h-0.7c-0.6,0-1-0.2-1-0.5v-1.9h-0.5v0.9c0,0.8-0.4,1.4-1.1,1.9
		L11.6,19c0.3-0.5,0.4-1,0.4-1.5v-1h-0.5V19.7z M13.6,14.9h-0.5v1h0.5V14.9z M14.6,16.4v1.4c0,0.1,0.1,0.1,0.3,0.1l0.3,0v-1.6H14.6z
		"/>
	<path class="st0" d="M40.8,16.8l0.3-0.4l1.7,1.3L42.5,18c-0.2,0-0.5,0.1-0.9,0.3c-0.3,0.1-0.6,0.3-0.9,0.6
		c-0.3,0.2-0.5,0.5-0.7,0.7l-0.5-0.4c0.3-0.3,0.6-0.6,1-0.9c0.4-0.3,0.8-0.4,1.3-0.6L40.8,16.8z"/>
	<path class="st0" d="M25.8,16.9l-0.5-0.3c0.1-0.1,0.1-0.2,0.1-0.3c0-0.1-0.1-0.2-0.1-0.2c-0.1-0.1-0.2-0.1-0.4-0.1
		c-0.1,0-0.3,0.2-0.6,0.5c0.2,0,0.4,0,0.6,0.1c0.2,0.1,0.3,0.4,0.3,0.6c0,0.3,0,0.5-0.2,0.8c-0.2,0.3-0.4,0.4-0.7,0.4
		c-0.3,0-0.5,0-0.8-0.2c-0.3-0.2-0.4-0.5-0.4-0.8c0-0.3,0.1-0.7,0.5-1.2c0.3-0.5,0.7-0.7,1-0.8c0.3-0.1,0.6,0,0.9,0.2
		c0.2,0.1,0.3,0.3,0.4,0.5C26,16.5,25.9,16.7,25.8,16.9 M23.9,17.2c-0.1,0.2-0.2,0.3-0.2,0.4c0,0.1,0.1,0.2,0.2,0.3
		C24,18,24.1,18,24.2,18c0.1,0,0.2-0.1,0.4-0.3c0.1-0.2,0.2-0.3,0.2-0.4c0-0.1-0.1-0.2-0.2-0.3c-0.1-0.1-0.2-0.1-0.3-0.1
		S24,17,23.9,17.2"/>
	<path class="st0" d="M35.2,9.3L35,9.8l-2.2-0.8C32.9,9.4,33,9.7,33,10l-0.5-0.2c0-0.2,0-0.4-0.1-0.6C32.3,9,32.2,8.8,32,8.7
		l0.2-0.5L35.2,9.3z"/>
	<path class="st0" d="M8.7,33.7H3.1v-1.1h0.3c0.3,0,0.6-0.1,0.8-0.3c0.2-0.2,0.3-0.5,0.3-0.8v-5.1c0-0.6-0.4-1-1.1-1H3.1v-1.1
		c1.1-0.2,2.1-0.6,3-1.3h1.1v8.4c0,0.3,0.1,0.6,0.3,0.8c0.2,0.2,0.5,0.3,0.8,0.3h0.3V33.7z"/>
	<path class="st0" d="M17.9,33.7h-5.6v-1.1h0.3c0.3,0,0.6-0.1,0.8-0.3c0.2-0.2,0.3-0.5,0.3-0.8v-5.1c0-0.6-0.4-1-1.1-1h-0.4v-1.1
		c1.1-0.2,2.1-0.6,3-1.3h1.1v8.4c0,0.3,0.1,0.6,0.3,0.8c0.2,0.2,0.5,0.3,0.8,0.3h0.3V33.7z"/>
	<path class="st0" d="M40.6,9.7c-1.3-4-5.5-6.2-9.5-4.9c-4,1.3-6.2,5.5-4.9,9.5c0.5,1.6,1.5,2.9,2.8,3.9c0.2-0.1,0.4-0.1,0.6-0.1
		l2.8,0.3c0.6,0.1,1,0.5,1.1,1c0.3-0.1,0.6,0,0.8,0.1c0.5-0.1,0.9-0.2,1.4-0.3C39.6,17.9,41.8,13.7,40.6,9.7 M37.7,11.5
		c-0.9,2.4-3.5,3.7-5.9,2.8c-2.4-0.9-3.7-3.5-2.8-5.9c0.9-2.4,3.5-3.7,5.9-2.8C37.3,6.4,38.6,9.1,37.7,11.5"/>
	<path class="st0" d="M43.1,14.4c-0.4-0.3-0.9-0.6-1.4-0.7c0,0.1,0,0.2-0.1,0.3c0.5,0.1,0.9,0.3,1.3,0.6c1.7,1.3,2.1,3.8,0.7,5.5
		c-1.3,1.7-3.8,2.1-5.5,0.7c-0.5-0.3-0.8-0.8-1.1-1.3c-0.1,0-0.2,0.1-0.2,0.1c0.3,0.5,0.7,1,1.2,1.4c1.8,1.4,4.5,1,5.9-0.8
		C45.3,18.5,44.9,15.8,43.1,14.4"/>
	<path class="st0" d="M47.5,23.5l-0.7,1.3c-0.4,0.7-0.9,1-1.7,1h-2.7l-0.4,0.9c1.6,0.4,2.7,0.8,3.3,1.1c1.2,0.7,1.8,1.6,1.8,2.7
		c0,1.3-0.6,2.4-1.9,3.1c-1,0.6-2.3,0.9-3.7,0.9c-0.4,0-0.8-0.1-1.2-0.2c-0.5-0.2-0.8-0.4-0.8-0.7c0-0.2,0.1-0.5,0.4-0.8
		c0.2-0.3,0.5-0.4,0.7-0.4s0.6,0.1,1.2,0.3c0.5,0.2,0.9,0.3,1.2,0.3c0.4,0,0.8-0.1,1.2-0.4c0.4-0.3,0.7-0.6,0.7-1
		c0-0.8-0.6-1.5-1.9-2c-0.8-0.4-1.8-0.6-3-0.8l2.3-5.1h3.3c0.5,0,0.8-0.2,1.1-0.6L47.5,23.5z"/>
	<path class="st0" d="M22.1,26.3l1.2-1.1l2.2,1.8l-0.7,0.7v3.4c0.2,1.1,1,1.6,2.4,1.6h9.4l-0.7,2.4h-8.6c-1.7,0-3-0.8-3.9-2.3
		c-0.2,0.7-0.8,1.6-1.7,2.8l-1.6-2.1c1.4-1.2,2.1-2,2.1-2.4v-3.5h-1.6l-0.3-1.3H22.1z M22,20c1.4,0.7,2.4,1.5,3.3,2.3l-2.1,2.1
		c-0.7-1.4-1.5-2.5-2.3-3.3L22,20z M26.7,19.7l2.5,0.7c-0.2,0.4-0.4,0.8-0.6,1.2h0.8v-2.2l2.7,0.3v1.9h0.6l1-0.9l1.7,1.5l-0.8,0.8
		h-2.5v1.8h1.4l1-0.9l1.6,1.5l-0.8,0.8h-2.1v3.3c0,0.2,0.1,0.3,0.2,0.3h0.4c0.2,0,0.4-0.1,0.4-0.2l0.3-1.4l1,0.1c0,0.3,0,0.5,0,0.7
		c0,0.8,0.3,1.3,1,1.5c-0.3,1-1,1.4-1.9,1.4h-2.2c-1,0-1.5-0.6-1.6-1.7v-4.1h-1.1V27c0,2.3-1.3,4-3.9,5l-0.7-1
		c1.4-1.1,2.1-2.5,2.1-4.3v-0.6h-1.8l-0.3-1.4h4.3v-1.8h-1.7c-0.5,0.6-0.9,1.1-1.4,1.5l-1.1-0.6C26,22.5,26.5,21.2,26.7,19.7"/>
	<path class="st0" d="M41.7,10.6c0.2,0.9,0.2,1.9,0,2.8c0.6,0.2,1.1,0.4,1.6,0.8c2,1.5,2.4,4.5,0.9,6.5c-1.5,2-4.5,2.4-6.5,0.9
		c-0.6-0.4-1-1-1.3-1.5c-0.2,0.1-0.3,0.1-0.5,0.2c-0.2,0.1-0.4,0.1-0.7,0.2l1,0.9c0.3,0.2,0.4,0.6,0.4,0.9c0,0.4-0.1,0.7-0.4,1
		L36,23.4l1,0.9c0.2,0.2,0.4,0.4,0.4,0.7c0.6,0.2,1.3,0.3,2,0.3c0.2,0,0.4,0,0.6,0l1-2.1c0.2-0.5,0.7-0.8,1.2-0.8h3.2
		c1-1.3,1.6-2.9,1.6-4.6C47.1,14.4,44.8,11.5,41.7,10.6"/>
	<path class="st0" d="M21.7,24.5c-0.6-1-1.2-1.8-1.8-2.5c-0.2-0.3-0.4-0.6-0.4-0.9c0-0.3,0.2-0.7,0.4-0.9l0.6-0.6
		c-1-1.6-1-3.7,0.2-5.2c1-1.3,2.5-1.9,4.1-1.8c0-0.8,0-1.6,0.2-2.3c-4.1,0.1-7.4,3.5-7.4,7.6C17.7,20.7,19.3,23.2,21.7,24.5"/>
	<path class="st0" d="M21.1,19.1c-0.8-1.3-0.7-3,0.3-4.3c0.9-1.1,2.2-1.7,3.6-1.5c0-0.1,0-0.2,0-0.3c-1.4-0.1-2.8,0.4-3.8,1.6
		c-1.1,1.4-1.1,3.3-0.3,4.7L21.1,19.1z"/>
</g>
</svg>
