<?xml version="1.0" encoding="utf-8"?>
<!-- Generator: Adobe Illustrator 21.1.0, SVG Export Plug-In . SVG Version: 6.00 Build 0)  -->
<svg version="1.1" id="圖層_1" xmlns="http://www.w3.org/2000/svg" xmlns:xlink="http://www.w3.org/1999/xlink" x="0px" y="0px"
	 width="50px" height="40px" viewBox="0 0 50 40" style="enable-background:new 0 0 50 40;" xml:space="preserve">
<style type="text/css">
	.st0{clip-path:url(#SVGID_2_);fill:#FFFFFF;}
	.st1{fill:#FFFFFF;}
	.st2{font-family:'MFLangQian_Noncommercial-Regular-GBpc-EUC-H';}
	.st3{font-size:6.5644px;}
	.st4{clip-path:url(#SVGID_4_);fill:#FFFFFF;}
	.st5{clip-path:url(#SVGID_6_);}
	.st6{clip-path:url(#SVGID_8_);}
	.st7{clip-path:url(#SVGID_12_);fill:#FFFFFF;}
	.st8{clip-path:url(#SVGID_14_);}
	.st9{clip-path:url(#SVGID_16_);}
	.st10{clip-path:url(#SVGID_20_);fill:#FFFFFF;}
</style>
<g>
	<defs>
		<rect id="SVGID_1_" x="2" y="6" width="46.1" height="28.3"/>
	</defs>
	<clipPath id="SVGID_2_">
		<use xlink:href="#SVGID_1_"  style="overflow:visible;"/>
	</clipPath>
	<path class="st0" d="M37,19c-0.8-0.3-1.6-0.6-2.5-1c3.4-2.5,6.7-5,10.1-7.4C44,9.4,43.3,8.9,41.9,9c-3.3,0.1-6.6,0-9.9,0
		c-0.8,0-1.6,0.1-2.3,0.3c-1.6,0.5-2.6,1.8-2.7,3.6h9.7c-2,1.5-3.8,2.9-5.6,4.4c-0.7,0.6-1.1,1.4-1.8,2.2c0.6,0.3,1,0.4,1.4,0.6
		c0.6,0.5,1.2,0.9,1.6,1.5c1.1,2,0.9,3.9-0.8,5.4c-1.3,1.2-2.9,2.2-4.5,3c-3.1,1.4-6.3,2.5-9.5,3.8c-0.3,0.1-0.5,0.2-0.8,0.3
		c0,0.1,0.1,0.2,0.1,0.3c2.6-0.4,5.1-0.7,7.7-1.1c3.5-0.6,6.8-1.6,10-3c1.8-0.8,3.5-1.8,4.5-3.5C40.8,23.9,40.8,20.7,37,19"/>
	<path class="st0" d="M22.8,22.3h4.9c0.1-0.9,0.1-1.7,0.2-2.5c-0.3-0.1-0.5-0.1-0.7-0.1c0.1-1.5,0.2-2.8,0.3-4.2
		c0-1.5-0.7-2.2-2.2-2.2c-0.7,0-1.3,0-2,0V9.8h-2.6c-0.1,0.5-0.1,3-0.2,3.5h-2c-0.1,0.9-0.1,1.7-0.2,2.6c0.5,0,0.9-0.1,1.3,0
		c0.3,0.1,0.6,0.4,0.6,0.6c0,1.1-0.1,2.1-0.1,3.2h-2.7c0,0.9-0.1,1.7-0.1,2.6h2.3c-0.5,1.5-1.2,2.7-2.5,3.7
		c-0.2,0.1-0.4,0.4-0.4,0.6c0,0.9,0,1.8,0,2.7C19.2,29,21.4,26.5,22.8,22.3 M23.1,16c1.5-0.2,1.7,0,1.6,1.4
		c-0.1,0.7-0.1,1.5-0.2,2.2c0,0,0,0.1-0.1,0.2h-1.6C23,18.5,23.1,17.2,23.1,16"/>
	<path class="st0" d="M12.7,15.1h-2.2c-0.3,5.2-0.3,8.2-0.6,13.4c1.8,0.1,2.2-0.3,2.3-1.9c0.3-4.2,0.2-6.3,0.5-10.6
		C12.8,15.8,12.7,15.5,12.7,15.1"/>
	<path class="st0" d="M37.3,17.8c3.1-1.6,6.1-3.2,9.3-4.8c-0.4-0.5-0.7-0.9-1-1.3c-2.8,2-5.6,4-8.4,6C37.3,17.7,37.3,17.7,37.3,17.8
		"/>
	<path class="st0" d="M38.4,18.2c3.2-1,6.3-2.1,9.6-3.1c-0.3-0.5-0.5-0.8-0.8-1.3c-3,1.4-6,2.8-8.9,4.2
		C38.4,18.1,38.4,18.2,38.4,18.2"/>
	<path class="st0" d="M17.2,18.3l0.2-2.9l-0.8,0c0,0,0,0-0.1,0c0.1-1.2,0.1-4.4,0.2-5.6h-2.9c-0.4,5.9-0.7,13.8-1.1,19.7
		c0.5,0,0.9,0,1.3,0c1.2,0,1.6-0.4,1.7-1.6c0.1-0.8,0.1-1.7,0.2-2.5c0.2-2.4,0.3-4.9,0.5-7.2L17.2,18.3z"/>
	<path class="st0" d="M21.9,27.1c0,1.5,1.3,2.8,2.8,2.8c1.5,0,2.8-1.2,2.9-2.8c0-1.5-1.2-2.8-2.7-2.9C23.3,24.2,21.9,25.5,21.9,27.1
		 M23.4,28.1c-0.3,0-0.6-0.2-0.6-0.6c0-0.3,0.2-0.6,0.6-0.6c0.3,0,0.6,0.2,0.6,0.6C24,27.8,23.8,28,23.4,28.1 M26.2,26.9
		c0.3,0,0.6,0.2,0.6,0.6c0,0.3-0.2,0.6-0.6,0.6c-0.3,0-0.6-0.2-0.6-0.6C25.6,27.2,25.9,27,26.2,26.9 M25.1,25.9
		c0,0.4-0.3,0.7-0.7,0.7c-0.4,0-0.7-0.3-0.7-0.7c0-0.4,0.3-0.7,0.7-0.7C24.8,25.2,25.1,25.5,25.1,25.9"/>
</g>
<text transform="matrix(1 -6.790000e-03 6.790000e-03 1 2.4734 28.8543)" class="st1 st2 st3">徽</text>
<text transform="matrix(1 -6.790000e-03 6.790000e-03 1 2.4752 21.5025)" class="st1 st2 st3">安</text>
<g>
	<defs>
		<rect id="SVGID_3_" x="2" y="6" width="46.1" height="28.3"/>
	</defs>
	<clipPath id="SVGID_4_">
		<use xlink:href="#SVGID_3_"  style="overflow:visible;"/>
	</clipPath>
	<path class="st4" d="M2.6,12.6c0,0,0,0.1,0,0.2c0,0.1,0,0.1,0,0.2c0,0.1,0,0.1,0,0.1c0,0,0,0.1,0.1,0.1c0,0,0,0,0.1,0.1
		c0,0,0,0,0.1,0c0,0,0,0,0.1-0.1c0,0,0-0.1,0-0.1c0,0,0-0.1,0-0.2c0-0.1,0-0.1,0-0.2c0-0.1,0-0.1,0-0.1c0,0,0-0.1-0.1-0.1
		c0,0,0,0-0.1-0.1c0,0,0,0-0.1,0c0,0,0,0-0.1,0.1C2.6,12.5,2.6,12.5,2.6,12.6"/>
</g>
<g>
	<defs>
		<path id="SVGID_5_" d="M2.7,12.4C2.7,12.4,2.6,12.4,2.7,12.4C2.6,12.5,2.6,12.5,2.7,12.4c-0.1,0.1-0.1,0.1-0.1,0.1c0,0,0,0,0,0.1
			c0,0,0,0.1,0,0.1c0,0.1,0,0.1,0,0.2c0,0.1,0,0.1,0,0.1c0,0,0,0.1,0.1,0.1c0,0,0,0,0.1,0.1c0,0,0,0,0.1,0c0,0,0,0,0.1-0.1
			c0,0,0-0.1,0-0.1c0,0,0-0.1,0-0.2c0-0.1,0-0.1,0-0.2c0-0.1,0-0.1,0-0.1c0,0,0-0.1-0.1-0.1C2.8,12.4,2.8,12.4,2.7,12.4
			C2.8,12.4,2.7,12.4,2.7,12.4C2.7,12.4,2.7,12.4,2.7,12.4"/>
	</defs>
	<clipPath id="SVGID_6_">
		<use xlink:href="#SVGID_5_"  style="overflow:visible;"/>
	</clipPath>
	<g class="st5">
		<g>
			<defs>
				<rect id="SVGID_7_" x="2.5" y="12.4" width="0.4" height="0.8"/>
			</defs>
			<clipPath id="SVGID_8_">
				<use xlink:href="#SVGID_7_"  style="overflow:visible;"/>
			</clipPath>
			<g class="st6">
				<defs>
					<rect id="SVGID_9_" x="2.5" y="12.4" width="0.4" height="0.8"/>
				</defs>
				<clipPath id="SVGID_10_">
					<use xlink:href="#SVGID_9_"  style="overflow:visible;"/>
				</clipPath>
				<g style="clip-path:url(#SVGID_10_);">
					
						<image style="overflow:visible;" width="3" height="3" xlink:href="2539F45C32FFDE0A.jpg"  transform="matrix(0.48 0 0 0.48 2.4 12)">
					</image>
				</g>
			</g>
		</g>
	</g>
</g>
<g>
	<defs>
		<rect id="SVGID_11_" x="2" y="6" width="46.1" height="28.3"/>
	</defs>
	<clipPath id="SVGID_12_">
		<use xlink:href="#SVGID_11_"  style="overflow:visible;"/>
	</clipPath>
	<path class="st7" d="M3.6,12.1c0,0,0,0.1,0,0.2c0,0.1,0,0.1,0,0.2c0,0.1,0,0.1,0,0.1c0,0,0,0.1,0.1,0.1c0,0,0,0,0.1,0.1
		c0,0,0.1,0,0.1,0c0,0,0,0,0.1-0.1c0,0,0-0.1,0-0.1c0,0,0-0.1,0-0.2c0-0.1,0-0.1,0-0.2c0-0.1,0-0.1,0-0.1c0,0,0-0.1-0.1-0.1
		c0,0,0-0.1-0.1-0.1c0,0,0,0-0.1,0c0,0,0,0-0.1,0.1C3.6,12,3.6,12,3.6,12.1"/>
</g>
<g>
	<defs>
		<path id="SVGID_13_" d="M3.7,11.9C3.7,11.9,3.7,11.9,3.7,11.9C3.6,11.9,3.6,12,3.6,12c0,0,0,0,0,0c0,0,0,0.1,0,0.1
			c0,0,0,0.1,0,0.2c0,0.1,0,0.1,0,0.2c0,0.1,0,0.1,0,0.1c0,0,0,0.1,0.1,0.1c0,0,0,0,0.1,0.1c0,0,0,0,0.1,0s0,0,0.1-0.1
			c0,0,0-0.1,0-0.1s0-0.1,0-0.2c0-0.1,0-0.1,0-0.2c0-0.1,0-0.1,0-0.1c0,0,0-0.1-0.1-0.1C3.8,11.9,3.8,11.9,3.7,11.9
			C3.8,11.9,3.8,11.9,3.7,11.9C3.7,11.9,3.7,11.9,3.7,11.9"/>
	</defs>
	<clipPath id="SVGID_14_">
		<use xlink:href="#SVGID_13_"  style="overflow:visible;"/>
	</clipPath>
	<g class="st8">
		<g>
			<defs>
				<rect id="SVGID_15_" x="3.6" y="11.9" width="0.4" height="0.8"/>
			</defs>
			<clipPath id="SVGID_16_">
				<use xlink:href="#SVGID_15_"  style="overflow:visible;"/>
			</clipPath>
			<g class="st9">
				<defs>
					<rect id="SVGID_17_" x="3.6" y="11.9" width="0.4" height="0.8"/>
				</defs>
				<clipPath id="SVGID_18_">
					<use xlink:href="#SVGID_17_"  style="overflow:visible;"/>
				</clipPath>
				<g style="clip-path:url(#SVGID_18_);">
					
						<image style="overflow:visible;" width="3" height="3" xlink:href="2539F45C32FFDE0E.jpg"  transform="matrix(0.48 0 0 0.48 3.36 11.52)">
					</image>
				</g>
			</g>
		</g>
	</g>
</g>
<g>
	<defs>
		<rect id="SVGID_19_" x="2" y="6" width="46.1" height="28.3"/>
	</defs>
	<clipPath id="SVGID_20_">
		<use xlink:href="#SVGID_19_"  style="overflow:visible;"/>
	</clipPath>
	<path class="st10" d="M12.8,8.8L9.4,6.2c-0.5-0.4-1.1-0.3-1.6,0l-3,2.4C4.6,8.9,4.5,9.1,4.4,9.4l-0.5,2.4C3.8,12.2,4,12.7,4.3,13
		l3.4,2.5c0.5,0.4,1.1,0.3,1.6,0l3-2.4c0.2-0.2,0.4-0.4,0.4-0.7l0.5-2.4C13.4,9.5,13.2,9.1,12.8,8.8 M4.4,11.5
		c-0.1,0-0.1-0.1-0.1-0.2l0.4-1.9c0.1-0.3,0.2-0.5,0.4-0.7l2.4-1.9c0.1-0.1,0.2-0.1,0.3,0C7.9,6.8,8,6.9,8,7L7.6,8.8
		C7.5,9,7.3,9.3,7.1,9.5l-2.5,2C4.6,11.6,4.5,11.6,4.4,11.5 M11.4,13.4l-2.4,2c-0.3,0.2-0.7,0.2-0.9,0l-3.1-2.3
		c-0.4-0.3-0.4-0.8,0-1.1l2.4-2c0.3-0.2,0.7-0.2,0.9,0l3.1,2.3C11.8,12.5,11.8,13.1,11.4,13.4 M13,9.7l-0.4,1.6
		c-0.1,0.5-0.7,0.7-1.2,0.4l-3-2.2C8.3,9.3,8.2,9,8.2,8.8l0.4-1.6c0.1-0.5,0.7-0.7,1.2-0.4l3,2.2C12.9,9.1,13,9.4,13,9.7"/>
	<path class="st10" d="M11.3,10.9c0.1,0,0.1,0.1,0.2,0.1c0.1,0,0.1,0,0.2,0c0,0,0.1,0,0.1,0c0,0,0.1-0.1,0.1-0.1c0,0,0-0.1,0-0.2
		c0-0.1,0-0.1-0.1-0.2c0-0.1-0.1-0.1-0.1-0.2c0-0.1-0.1-0.1-0.2-0.2c-0.1,0-0.1-0.1-0.2-0.1c-0.1,0-0.1,0-0.2,0c0,0-0.1,0-0.1,0
		c0,0-0.1,0.1-0.1,0.1c0,0,0,0.1,0,0.2c0,0.1,0,0.1,0.1,0.2c0,0.1,0.1,0.1,0.1,0.2C11.2,10.8,11.3,10.8,11.3,10.9"/>
	<path class="st10" d="M9.6,9.5c0.1,0,0.1,0.1,0.2,0.1c0.1,0,0.1,0,0.2,0c0,0,0.1,0,0.1,0c0,0,0.1-0.1,0.1-0.1c0,0,0-0.1,0-0.2
		c0-0.1,0-0.1-0.1-0.2C10,9.1,9.9,9.1,9.9,9c0-0.1-0.1-0.1-0.2-0.2c-0.1,0-0.1-0.1-0.2-0.1c-0.1,0-0.1,0-0.2,0c0,0-0.1,0-0.1,0
		c0,0-0.1,0.1-0.1,0.1c0,0,0,0.1,0,0.2c0,0.1,0,0.1,0.1,0.2c0,0.1,0.1,0.1,0.1,0.2C9.5,9.4,9.5,9.5,9.6,9.5"/>
	<path class="st10" d="M10.6,9.5c0.1,0,0.1,0.1,0.2,0.1c0.1,0,0.1,0,0.2,0c0,0,0.1,0,0.1,0c0,0,0.1-0.1,0.1-0.1c0,0,0-0.1,0-0.2
		c0-0.1,0-0.1-0.1-0.2C11,9.2,11,9.1,10.9,9c0-0.1-0.1-0.1-0.2-0.2c-0.1,0-0.1-0.1-0.2-0.1c-0.1,0-0.1,0-0.2,0c0,0-0.1,0-0.1,0
		c0,0-0.1,0.1-0.1,0.1c0,0,0,0.1,0,0.2c0,0.1,0,0.1,0.1,0.2c0,0.1,0.1,0.1,0.1,0.2C10.5,9.4,10.6,9.5,10.6,9.5"/>
	<path class="st10" d="M11.6,9.6c0.1,0,0.1,0.1,0.2,0.1c0.1,0,0.1,0,0.2,0c0,0,0.1,0,0.1,0c0,0,0.1-0.1,0.1-0.1c0,0,0-0.1,0-0.2
		c0-0.1,0-0.1-0.1-0.2c0-0.1-0.1-0.1-0.1-0.2c0-0.1-0.1-0.1-0.2-0.2c-0.1,0-0.1-0.1-0.2-0.1c-0.1,0-0.1,0-0.2,0c0,0-0.1,0-0.1,0
		c0,0-0.1,0.1-0.1,0.1c0,0,0,0.1,0,0.2c0,0.1,0,0.1,0.1,0.2c0,0.1,0.1,0.1,0.1,0.2C11.5,9.5,11.6,9.5,11.6,9.6"/>
	<path class="st10" d="M9.9,8.2c0.1,0,0.1,0.1,0.2,0.1c0.1,0,0.1,0,0.2,0c0,0,0.1,0,0.1,0c0,0,0.1-0.1,0.1-0.1c0,0,0-0.1,0-0.1
		c0-0.1,0-0.1-0.1-0.2c0-0.1-0.1-0.1-0.1-0.2s-0.1-0.1-0.2-0.2c-0.1,0-0.1-0.1-0.2-0.1c-0.1,0-0.1,0-0.2,0c0,0-0.1,0-0.1,0
		c0,0-0.1,0.1-0.1,0.1c0,0,0,0.1,0,0.2c0,0.1,0,0.1,0.1,0.2c0,0.1,0.1,0.1,0.1,0.2C9.8,8.1,9.8,8.2,9.9,8.2"/>
	<path class="st10" d="M5.9,9.4C6,9.4,6,9.3,6.1,9.3c0.1-0.1,0.1-0.1,0.1-0.2C6.3,9,6.3,9,6.3,8.9c0-0.1,0.1-0.1,0.1-0.1
		c0,0,0-0.1,0-0.1c0,0,0,0-0.1,0c0,0-0.1,0-0.1,0c0,0-0.1,0.1-0.1,0.1C6,8.8,6,8.9,5.9,8.9C5.9,9,5.9,9,5.8,9.1
		c0,0.1-0.1,0.1-0.1,0.2c0,0.1-0.1,0.1-0.1,0.2c0,0,0,0.1,0,0.1c0,0,0,0,0.1,0c0,0,0.1,0,0.1,0C5.8,9.5,5.9,9.5,5.9,9.4"/>
	<path class="st10" d="M6,13c-0.1,0-0.1-0.1-0.1-0.2c0-0.1-0.1-0.1-0.1-0.2c0-0.1,0-0.1,0-0.2c0-0.1,0.1-0.1,0.1-0.1
		c0.1,0,0.1-0.1,0.2-0.1c0.1,0,0.1,0,0.2,0c0.1,0,0.2,0,0.2,0c0.1,0,0.1,0.1,0.2,0.1c0.1,0,0.1,0.1,0.1,0.2C7,12.6,7,12.6,7,12.7
		s0,0.1,0,0.2C7,12.9,6.9,13,6.9,13c-0.1,0-0.1,0.1-0.2,0.1c-0.1,0-0.1,0-0.2,0c-0.1,0-0.2,0-0.2,0C6.2,13.1,6.1,13,6,13"/>
	<path class="st10" d="M7.8,14.3c-0.1,0-0.1-0.1-0.1-0.2c0-0.1-0.1-0.1-0.1-0.2s0-0.1,0-0.2c0-0.1,0.1-0.1,0.1-0.1
		c0.1,0,0.1-0.1,0.2-0.1c0.1,0,0.1,0,0.2,0c0.1,0,0.1,0,0.2,0c0.1,0,0.1,0.1,0.2,0.1c0.1,0,0.1,0.1,0.1,0.2c0,0.1,0.1,0.1,0.1,0.2
		c0,0.1,0,0.1,0,0.2c0,0.1-0.1,0.1-0.1,0.1c-0.1,0-0.1,0.1-0.2,0.1c-0.1,0-0.1,0-0.2,0c-0.1,0-0.1,0-0.2,0
		C7.9,14.4,7.8,14.4,7.8,14.3"/>
	<path class="st10" d="M7.6,11.7c-0.1,0-0.1-0.1-0.1-0.2c0-0.1-0.1-0.1-0.1-0.2c0-0.1,0-0.1,0-0.2c0-0.1,0.1-0.1,0.1-0.2
		C7.6,11,7.6,11,7.7,11c0.1,0,0.1,0,0.2,0c0.1,0,0.2,0,0.2,0c0.1,0,0.1,0.1,0.2,0.1c0.1,0,0.1,0.1,0.1,0.2c0,0.1,0.1,0.1,0.1,0.2
		c0,0.1,0,0.1,0,0.2c0,0.1-0.1,0.1-0.1,0.1c-0.1,0-0.1,0.1-0.2,0.1c-0.1,0-0.1,0-0.2,0c-0.1,0-0.2,0-0.2,0
		C7.7,11.8,7.6,11.8,7.6,11.7"/>
	<path class="st10" d="M9.3,13.1c-0.1,0-0.1-0.1-0.1-0.2c0-0.1-0.1-0.1-0.1-0.2c0-0.1,0-0.1,0-0.2c0-0.1,0.1-0.1,0.1-0.2
		c0.1,0,0.1-0.1,0.2-0.1c0.1,0,0.1,0,0.2,0c0.1,0,0.2,0,0.2,0c0.1,0,0.1,0.1,0.2,0.1c0.1,0,0.1,0.1,0.1,0.2c0,0.1,0.1,0.1,0.1,0.2
		c0,0.1,0,0.1,0,0.2c0,0.1-0.1,0.1-0.1,0.1c-0.1,0-0.1,0.1-0.2,0.1c-0.1,0-0.1,0-0.2,0c-0.1,0-0.1,0-0.2,0
		C9.5,13.2,9.4,13.1,9.3,13.1"/>
	<path class="st10" d="M7.1,14.8l-0.2-0.2c-0.1,0.1-0.2,0.1-0.3,0.1l-2.3,0.1c-0.1,0-0.1,0-0.2-0.1c0,0-0.1-0.1,0-0.2l0.4-1.9
		l-0.2-0.1l-0.1-0.9l0-0.3l-0.8-1c0,0,0-0.1,0-0.2c0-0.1,0.1-0.1,0.1-0.1l0.9-0.1l0-0.2L3.2,10c-0.2,0-0.4,0.2-0.4,0.4L2.1,13
		c0,0.1,0,0.3,0.1,0.4L3.6,15c0.1,0.1,0.3,0.2,0.4,0.2L6.8,15C6.9,15,7,14.9,7.1,14.8 M3.7,14.5C3.7,14.5,3.7,14.6,3.7,14.5
		c-0.1,0.1-0.2,0.1-0.2,0l-1.1-1.3c-0.1-0.1-0.1-0.3-0.1-0.4l0.5-2.1c0-0.1,0.1-0.1,0.1-0.1c0.1,0,0.1,0,0.2,0l1,1.2
		c0.1,0.1,0.2,0.3,0.1,0.5L3.7,14.5z"/>
</g>
</svg>
