<?xml version="1.0" encoding="utf-8"?>
<!-- Generator: Adobe Illustrator 21.1.0, SVG Export Plug-In . SVG Version: 6.00 Build 0)  -->
<svg version="1.1" id="圖層_1" xmlns="http://www.w3.org/2000/svg" xmlns:xlink="http://www.w3.org/1999/xlink" x="0px" y="0px"
	 width="50px" height="40px" viewBox="0 0 50 40" style="enable-background:new 0 0 50 40;" xml:space="preserve">
<style type="text/css">
	.st0{fill:#FFFFFF;}
	.st1{clip-path:url(#SVGID_2_);fill:#FFFFFF;}
</style>
<polygon class="st0" points="8.8,34.3 8.8,36.9 11.1,36.9 11.1,36.8 9.5,36.8 9.5,34.3 "/>
<g>
	<defs>
		<rect id="SVGID_1_" x="2.6" y="3.1" width="44.9" height="33.9"/>
	</defs>
	<clipPath id="SVGID_2_">
		<use xlink:href="#SVGID_1_"  style="overflow:visible;"/>
	</clipPath>
	<path class="st1" d="M13.8,36.9c-0.3,0-0.5-0.2-0.5-0.6v-1.6c0-0.4,0.2-0.6,0.5-0.6h0.1h0h1.5c0.3,0,0.5,0.2,0.5,0.6v1.6
		c0,0.4-0.2,0.6-0.5,0.6H13.8L13.8,36.9L13.8,36.9z M15.2,34.4h-1.1c-0.1,0-0.2,0.1-0.1,0.2v2c0,0.1,0,0.2,0.1,0.2h1.1
		c0.1,0,0.1,0,0.1-0.1v-2C15.3,34.5,15.3,34.4,15.2,34.4"/>
	<polygon class="st1" points="20.6,34.4 19.7,34.4 19.7,36.9 19,36.9 19,34.4 18.2,34.4 18.2,34.3 20.6,34.3 	"/>
	<polygon class="st1" points="25.1,34.4 24.2,34.4 24.2,36.9 23.5,36.9 23.5,34.4 22.6,34.4 22.6,34.3 25.1,34.3 	"/>
	<path class="st1" d="M27.3,36.5v-1.7c0-0.3,0.2-0.5,0.5-0.5h1.7v0.2h-1.3c-0.1,0-0.2,0-0.2,0.1v0.9h1.3v0.2h-1.3v1
		c0,0.1,0,0.2,0.1,0.2h1.4v0.2h-1.7C27.4,36.9,27.3,36.8,27.3,36.5"/>
	<path class="st1" d="M32.3,36.9h-0.6v-2.7h0.6v0.2c0.1-0.1,0.1-0.2,0.3-0.2h1.1c0.3,0,0.5,0.2,0.5,0.5v0.4c0,0.2-0.1,0.3-0.4,0.4
		l0.2,1c0,0.1,0.1,0.2,0.2,0.3c-0.6,0-0.9-0.1-0.9-0.4l-0.2-0.9h-0.6c-0.1,0-0.2-0.1-0.3-0.2V36.9z M32.5,35.5h0.8
		c0.1,0,0.2,0,0.2-0.2v-0.7c0-0.1-0.1-0.2-0.2-0.2h-0.8c-0.2,0-0.3,0.1-0.3,0.2v0.6C32.3,35.4,32.4,35.4,32.5,35.5"/>
	<polygon class="st1" points="37.5,36.9 37.5,35.8 36.5,34.3 37.2,34.3 37.9,35.5 38.6,34.3 39.2,34.3 38.2,35.8 38.2,36.9 	"/>
	<path class="st1" d="M11,8.7l0.6-0.5L12.5,9L12,9.4H6.1v2.3c0,0.9-0.1,1.7-0.4,2.3c-0.2,0.6-0.6,1.2-1.1,1.7l-0.5-0.4
		c0.4-1.1,0.5-2.4,0.5-3.8V8.1l1.4,0.2v0.4h2.1C8,8.5,7.8,8.3,7.5,8.1L8,7.5C8.7,7.7,9.2,8,9.6,8.3L9.2,8.7H11z"/>
	<path class="st1" d="M14.5,12.6l1.5,0.3c-0.6,1.1-1.4,1.9-2.3,2.6L13.2,15C13.7,14.3,14.2,13.5,14.5,12.6 M20,8.9l0.5-0.5l0.9,0.8
		L21,9.6h-4.7l-0.8,2h1.3V10l1.4,0.2v1.4h1.5l0.5-0.5l0.9,0.8l-0.4,0.4h-2.5v2.6c0,0.7-0.4,1-1.1,1h-0.9c0-0.5-0.3-0.8-1-0.8l0-0.7
		c0.4,0.1,0.7,0.1,1,0.1c0.4,0,0.6-0.1,0.6-0.3v-2h-1.5v0h-1.5c0.3-1,0.7-1.8,1-2.7h-1.4l-0.2-0.7h1.8c0.2-0.5,0.4-1,0.6-1.4
		l1.4,0.2l-0.5,1.2H20z M19.3,12.6c0.5,0.4,0.9,0.8,1.3,1.3c0.3,0.4,0.6,0.7,0.7,0.8l-1.4,0.9c-0.3-0.9-0.7-1.7-1.3-2.6L19.3,12.6z"
		/>
	<path class="st1" d="M27.8,6.6c-2.5,1.5-3.2,4.8-1.7,7.2c1.5,2.5,4.8,3.2,7.2,1.7c2.5-1.5,3.2-4.8,1.7-7.2
		C33.5,5.8,30.2,5.1,27.8,6.6 M33.1,15.2c-2.3,1.4-5.3,0.7-6.7-1.6C25,11.3,25.7,8.3,28,6.9c2.3-1.4,5.3-0.7,6.7,1.6
		C36.1,10.7,35.4,13.8,33.1,15.2"/>
	<path class="st1" d="M30.4,12.1l-0.6,0.4l-1.4-2.2c-0.1,0.3-0.2,0.6-0.5,0.9l-0.3-0.5c0.1-0.1,0.2-0.3,0.3-0.6
		c0.1-0.3,0.1-0.5,0.1-0.7L28.5,9L30.4,12.1z"/>
	<path class="st1" d="M32.6,10.8L32,11.1l-1.4-2.2c-0.1,0.3-0.3,0.6-0.5,0.9l-0.3-0.5C29.9,9.2,30,9,30.1,8.7
		c0.1-0.3,0.1-0.5,0.1-0.7l0.5-0.3L32.6,10.8z"/>
	<path class="st1" d="M8.3,30.7H2.6v-1.1h0.3c0.3,0,0.6-0.1,0.9-0.3c0.2-0.2,0.3-0.5,0.3-0.8v-5.2c0-0.7-0.4-1-1.1-1H2.6v-1.1
		c1.1-0.2,2.1-0.6,3.1-1.3h1.1v8.6c0,0.3,0.1,0.6,0.3,0.8c0.2,0.2,0.5,0.3,0.8,0.3h0.3V30.7z"/>
	<path class="st1" d="M18.3,30.7h-5.7v-1.1h0.3c0.3,0,0.6-0.1,0.9-0.3c0.2-0.2,0.3-0.5,0.3-0.8v-5.2c0-0.7-0.4-1-1.1-1h-0.4v-1.1
		c1.1-0.2,2.1-0.6,3.1-1.3h1.1v8.6c0,0.3,0.1,0.6,0.3,0.8c0.2,0.2,0.5,0.3,0.8,0.3h0.3V30.7z"/>
	<path class="st1" d="M44.4,13.5c-1.1-0.9-2.7-0.6-3.6,0.5c-0.9,1.1-0.6,2.7,0.5,3.6c1.1,0.9,2.7,0.6,3.6-0.5
		C45.7,16,45.5,14.4,44.4,13.5 M44.7,17c-0.8,1-2.3,1.3-3.3,0.5c-1-0.8-1.3-2.3-0.5-3.3c0.8-1,2.3-1.3,3.3-0.5
		C45.3,14.5,45.5,15.9,44.7,17"/>
	<path class="st1" d="M42.7,14.8l0.2-0.3l1,0.8l-0.2,0.2c-0.1,0-0.3,0.1-0.5,0.2c-0.2,0.1-0.4,0.2-0.6,0.3c-0.2,0.1-0.3,0.3-0.4,0.4
		L42,16.2c0.2-0.2,0.4-0.4,0.6-0.5c0.2-0.2,0.5-0.3,0.8-0.3L42.7,14.8z"/>
	<path class="st1" d="M25.4,18.3c0.2-0.6,0.3-1.1,0.4-1.7c0-0.3,0.2-0.5,0.4-0.6c0.2-0.1,0.5-0.2,0.7-0.1l0.8,0.2
		c-0.8-0.5-1.6-1.1-2.1-2c-1.7-2.7-0.9-6.3,1.8-8c2.7-1.7,6.3-0.9,8,1.8c1.7,2.7,0.9,6.3-1.8,8c-0.2,0.1-0.4,0.2-0.6,0.3
		c0.1,0.1,0.2,0.3,0.2,0.5v0.4l0.1-0.1c0.3-0.3,0.9-0.3,1.2,0l1.7,1.5c0.2,0.2,0.3,0.4,0.3,0.7c0,0.3-0.1,0.5-0.3,0.7l-0.6,0.6
		l0.5,0.4c0.3-0.1,0.5-0.3,0.8-0.4c0.7-0.4,1.3-1,1.9-1.6c-0.8-0.9-1.2-2.1-1.2-3.4c0-2.3,1.5-4.3,3.5-5c-0.2-1.1-0.6-2.1-1.2-3
		c-2.8-4.4-8.6-5.8-13-3c-4.3,2.7-5.7,8.1-3.3,12.5C24.3,17.4,24.9,17.9,25.4,18.3"/>
	<path class="st1" d="M46.4,19.7l-0.7,1.3c-0.4,0.7-0.9,1-1.7,1h-2.7L40.9,23c1.6,0.4,2.7,0.8,3.3,1.1c1.2,0.7,1.8,1.6,1.8,2.7
		c0,1.4-0.6,2.4-1.9,3.1c-1,0.6-2.3,0.9-3.8,0.9c-0.4,0-0.8-0.1-1.2-0.2c-0.5-0.2-0.8-0.4-0.8-0.7c0-0.2,0.1-0.5,0.4-0.8
		c0.2-0.3,0.5-0.4,0.7-0.4c0.3,0,0.6,0.1,1.2,0.3c0.5,0.2,0.9,0.3,1.2,0.3c0.4,0,0.8-0.1,1.2-0.4c0.4-0.3,0.7-0.6,0.7-1
		c0-0.8-0.7-1.5-2-2.1c-0.8-0.4-1.8-0.6-3-0.8L41,20h3.4c0.5,0,0.8-0.2,1.1-0.6L46.4,19.7z"/>
	<path class="st1" d="M40.3,19.4c0.2-0.2,0.4-0.3,0.7-0.3h3.4c0.1,0,0.2,0,0.3-0.2c0.2-0.4,0.7-0.6,1.1-0.4l0.4,0.2
		c0.8-0.8,1.2-1.9,1.2-3.1c0-2.5-2.1-4.6-4.6-4.6c-2.5,0-4.6,2.1-4.6,4.6C38.3,17.2,39.1,18.6,40.3,19.4 M40.6,13.8
		c0.9-1.2,2.7-1.5,3.9-0.5c1.2,0.9,1.5,2.7,0.5,3.9c-0.9,1.2-2.7,1.5-3.9,0.5C39.9,16.9,39.7,15.1,40.6,13.8"/>
	<path class="st1" d="M22,23.4l1.2-1.1l2.3,1.8l-0.7,0.7v3.5c0.2,1.1,1,1.6,2.4,1.6h9.6L36,32.3h-8.7c-1.7,0-3-0.8-3.9-2.4
		c-0.2,0.7-0.8,1.6-1.7,2.9L20,30.7c1.4-1.3,2.1-2.1,2.1-2.5v-3.5h-1.6l-0.3-1.3H22z M21.9,17.1c1.4,0.8,2.5,1.5,3.3,2.3l-2.1,2.2
		c-0.7-1.4-1.5-2.5-2.4-3.4L21.9,17.1z M26.7,16.7l2.5,0.8c-0.2,0.4-0.4,0.8-0.6,1.2h0.8v-2.3l2.8,0.3v1.9h0.6l1-0.9l1.7,1.5
		L34.8,20h-2.5v1.8h1.4l1-0.9l1.7,1.5l-0.8,0.8h-2.1v3.3c0,0.2,0.1,0.3,0.2,0.3H34c0.2,0,0.4-0.1,0.4-0.2l0.3-1.4l1,0.1
		c0,0.3,0,0.5,0,0.7c0,0.8,0.3,1.3,1,1.5c-0.3,1-1,1.5-1.9,1.5h-2.2c-1,0-1.6-0.6-1.6-1.7v-4.1h-1.1v0.9c0,2.3-1.3,4-4,5.1l-0.7-1
		c1.4-1.1,2.1-2.6,2.1-4.4v-0.6h-1.9l-0.3-1.4h4.4V20h-1.7c-0.5,0.6-0.9,1.1-1.4,1.6L25.3,21C26,19.6,26.5,18.2,26.7,16.7"/>
</g>
</svg>
