<?xml version="1.0" encoding="utf-8"?>
<!-- Generator: Adobe Illustrator 21.1.0, SVG Export Plug-In . SVG Version: 6.00 Build 0)  -->
<svg version="1.1" id="圖層_1" xmlns="http://www.w3.org/2000/svg" xmlns:xlink="http://www.w3.org/1999/xlink" x="0px" y="0px"
	 width="50px" height="40px" viewBox="0 0 50 40" style="enable-background:new 0 0 50 40;" xml:space="preserve">
<style type="text/css">
	.st0{clip-path:url(#SVGID_2_);fill:#FFFFFF;}
	.st1{clip-path:url(#SVGID_4_);}
	.st2{clip-path:url(#SVGID_6_);}
	.st3{clip-path:url(#SVGID_10_);fill:#FFFFFF;}
	.st4{clip-path:url(#SVGID_12_);}
	.st5{clip-path:url(#SVGID_14_);}
	.st6{clip-path:url(#SVGID_18_);fill:#FFFFFF;}
</style>
<g>
	<defs>
		<rect id="SVGID_1_" x="2.4" y="6.1" width="45.2" height="27.7"/>
	</defs>
	<clipPath id="SVGID_2_">
		<use xlink:href="#SVGID_1_"  style="overflow:visible;"/>
	</clipPath>
	<path class="st0" d="M36.8,18.9c-0.8-0.3-1.6-0.6-2.4-1c3.3-2.5,6.6-4.9,9.9-7.3C43.7,9.5,42.9,9,41.6,9c-3.2,0.1-6.4,0-9.7,0
		c-0.8,0-1.5,0.1-2.3,0.3c-1.6,0.4-2.6,1.8-2.7,3.6h9.5c-1.9,1.5-3.8,2.8-5.5,4.3c-0.7,0.6-1.1,1.4-1.8,2.2c0.6,0.3,1,0.4,1.3,0.6
		c0.6,0.4,1.2,0.9,1.5,1.5c1.1,1.9,0.9,3.8-0.8,5.3c-1.3,1.2-2.8,2.2-4.4,2.9c-3,1.4-6.2,2.5-9.3,3.7c-0.3,0.1-0.5,0.2-0.8,0.3
		l0.1,0.3c2.5-0.4,5-0.7,7.5-1.1c3.4-0.6,6.7-1.6,9.8-2.9c1.8-0.8,3.4-1.8,4.5-3.4C40.5,23.7,40.5,20.5,36.8,18.9"/>
	<path class="st0" d="M22.9,22.1h4.8c0.1-0.9,0.1-1.6,0.2-2.4c-0.3-0.1-0.5-0.1-0.7-0.1c0.1-1.4,0.2-2.8,0.3-4.1
		c0-1.4-0.7-2.1-2.1-2.1c-0.6,0-1.3,0-2,0V9.9h-2.6c-0.1,0.5-0.1,2.9-0.2,3.4h-2c-0.1,0.9-0.1,1.7-0.2,2.5c0.5,0,0.9-0.1,1.3,0
		c0.3,0.1,0.6,0.4,0.6,0.6c0,1-0.1,2.1-0.1,3.2h-2.6c0,0.9-0.1,1.7-0.1,2.5h2.3c-0.5,1.5-1.2,2.7-2.4,3.6c-0.2,0.1-0.4,0.4-0.4,0.6
		c0,0.9,0,1.8,0,2.7C19.3,28.7,21.5,26.2,22.9,22.1 M23.2,15.9c1.5-0.2,1.7,0,1.6,1.3c-0.1,0.7-0.1,1.5-0.2,2.2c0,0,0,0.1-0.1,0.2
		h-1.5C23,18.4,23.1,17.1,23.2,15.9"/>
	<path class="st0" d="M13,15.1h-2.1c-0.3,5.1-0.3,8.1-0.6,13.1c1.8,0.1,2.2-0.3,2.3-1.9c0.3-4.2,0.2-6.2,0.5-10.4
		C13,15.7,13,15.4,13,15.1"/>
	<path class="st0" d="M37.1,17.7c3-1.6,6-3.1,9.1-4.7c-0.4-0.5-0.7-0.9-1-1.3c-2.8,2-5.5,3.9-8.2,5.9C37,17.6,37,17.6,37.1,17.7"/>
	<path class="st0" d="M38.2,18.1c3.1-1,6.2-2,9.4-3.1c-0.3-0.5-0.5-0.8-0.8-1.2c-3,1.4-5.8,2.8-8.7,4.1C38.1,18,38.1,18.1,38.2,18.1
		"/>
	<path class="st0" d="M17.3,18.2l0.2-2.8l-0.7,0c0,0,0,0-0.1,0c0.1-1.1,0.1-4.3,0.2-5.5H14c-0.4,5.8-0.7,13.5-1.1,19.4
		c0.5,0,0.9,0,1.3,0c1.2,0,1.6-0.4,1.7-1.6c0.1-0.8,0.1-1.6,0.2-2.4c0.2-2.4,0.3-4.8,0.5-7L17.3,18.2z"/>
	<path class="st0" d="M22,26.8c0,1.5,1.2,2.8,2.7,2.8c1.5,0,2.8-1.2,2.8-2.7c0-1.5-1.2-2.8-2.7-2.8C23.3,24,22,25.3,22,26.8
		 M23.5,27.8c-0.3,0-0.6-0.2-0.6-0.5c0-0.3,0.2-0.6,0.5-0.6s0.6,0.2,0.6,0.5C24,27.5,23.8,27.7,23.5,27.8 M26.2,26.7
		c0.3,0,0.6,0.2,0.6,0.5c0,0.3-0.2,0.6-0.5,0.6c-0.3,0-0.6-0.2-0.6-0.5S25.9,26.7,26.2,26.7 M25.1,25.6c0,0.4-0.3,0.7-0.7,0.7
		c-0.4,0-0.7-0.3-0.7-0.7c0-0.4,0.3-0.7,0.7-0.7C24.8,24.9,25.1,25.2,25.1,25.6"/>
	<path class="st0" d="M3,23.7l1.2,0l0-0.6l1,0l0,0.6l1.8,0l0-0.6l1,0l0,0.6l1.2,0l0,0.4l-1.2,0l0,0.6l-1,0l0-0.6l-1.8,0l0,0.6l-1,0
		l0-0.6l-1.2,0L3,23.7z M3.1,28.2l0.3-1.8l1,0l-0.3,1.8L3.1,28.2z M3.8,25.5l1.2,0c0-0.2,0-0.4,0.1-0.6l1,0c0,0.2,0,0.4-0.1,0.6
		l1.4,0c0.2,0,0.4,0.2,0.4,0.4l0,2.8c0,0.2-0.2,0.4-0.4,0.4l-1.5,0l0-0.4l0.7,0c0.1,0,0.2-0.1,0.2-0.2l0-2.5c0-0.1-0.1-0.2-0.2-0.2
		l-0.7,0c-0.1,1.1-0.4,2.2-0.7,3.3l-1.1,0c0.4-1.1,0.7-2.2,0.8-3.3l-1.1,0L3.8,25.5z M8.2,28.2L8,26.4l1,0l0.2,1.8L8.2,28.2z"/>
	<path class="st0" d="M3.1,22c0.3-0.8,0.5-1.5,0.7-2.4l1,0c-0.1,0.9-0.3,1.8-0.7,2.4L3.1,22z M3.6,17.2l-0.4-1.4l1,0l0.4,1.4
		L3.6,17.2z M3.7,19.1l-0.4-1.5l1,0l0.4,1.5L3.7,19.1z M4.8,22l0-0.4l1.6,0l0-5l-1.5,0l0-0.4l4,0l0,0.4l-1.5,0l0,5l1.7,0l0,0.4
		L4.8,22z"/>
	<path class="st0" d="M3,12.6c0,0,0,0.1,0,0.1c0,0.1,0,0.1,0,0.2C3,12.9,3,13,3,13c0,0,0,0.1,0.1,0.1c0,0,0,0,0.1,0.1c0,0,0,0,0.1,0
		c0,0,0,0,0.1-0.1c0,0,0-0.1,0-0.1c0,0,0-0.1,0-0.2c0-0.1,0-0.1,0-0.2c0-0.1,0-0.1,0-0.1c0,0,0-0.1-0.1-0.1c0,0,0,0-0.1-0.1
		c0,0,0,0-0.1,0c0,0,0,0-0.1,0.1C3,12.5,3,12.5,3,12.6"/>
</g>
<g>
	<defs>
		<path id="SVGID_3_" d="M3.1,12.4C3.1,12.4,3.1,12.4,3.1,12.4C3.1,12.5,3.1,12.5,3.1,12.4C3,12.5,3,12.5,3,12.5c0,0,0,0,0,0.1
			c0,0,0,0.1,0,0.1c0,0.1,0,0.1,0,0.2C3,12.9,3,13,3,13c0,0,0,0.1,0.1,0.1c0,0,0,0,0.1,0.1c0,0,0,0,0.1,0c0,0,0,0,0.1-0.1
			c0,0,0,0,0,0c0,0,0,0,0,0c0,0,0,0,0-0.1c0,0,0-0.1,0-0.2c0-0.1,0-0.1,0-0.2c0-0.1,0-0.1,0-0.1c0,0,0-0.1-0.1-0.1
			C3.2,12.4,3.2,12.4,3.1,12.4C3.2,12.4,3.2,12.4,3.1,12.4C3.2,12.4,3.1,12.4,3.1,12.4"/>
	</defs>
	<clipPath id="SVGID_4_">
		<use xlink:href="#SVGID_3_"  style="overflow:visible;"/>
	</clipPath>
	<g class="st1">
		<g>
			<defs>
				<rect id="SVGID_5_" x="3" y="12.4" width="0.4" height="0.8"/>
			</defs>
			<clipPath id="SVGID_6_">
				<use xlink:href="#SVGID_5_"  style="overflow:visible;"/>
			</clipPath>
			<g class="st2">
				<defs>
					<rect id="SVGID_7_" x="3" y="12.4" width="0.4" height="0.8"/>
				</defs>
				<clipPath id="SVGID_8_">
					<use xlink:href="#SVGID_7_"  style="overflow:visible;"/>
				</clipPath>
				<g style="clip-path:url(#SVGID_8_);">
					
						<image style="overflow:visible;" width="1" height="3" xlink:href="4289689BA0E41614.jpg"  transform="matrix(0.48 0 0 0.48 2.88 12)">
					</image>
				</g>
			</g>
		</g>
	</g>
</g>
<g>
	<defs>
		<rect id="SVGID_9_" x="2.4" y="6.1" width="45.2" height="27.7"/>
	</defs>
	<clipPath id="SVGID_10_">
		<use xlink:href="#SVGID_9_"  style="overflow:visible;"/>
	</clipPath>
	<path class="st3" d="M4,12.1c0,0,0,0.1,0,0.1c0,0.1,0,0.1,0,0.2c0,0.1,0,0.1,0,0.1c0,0,0,0.1,0.1,0.1c0,0,0,0,0.1,0.1
		c0,0,0,0,0.1,0c0,0,0,0,0.1-0.1c0,0,0-0.1,0-0.1c0,0,0-0.1,0-0.2c0-0.1,0-0.1,0-0.2c0-0.1,0-0.1,0-0.1c0,0,0-0.1-0.1-0.1
		c0,0,0,0-0.1-0.1c0,0,0,0-0.1,0c0,0,0,0-0.1,0.1C4.1,12,4,12,4,12.1"/>
</g>
<g>
	<defs>
		<path id="SVGID_11_" d="M4.1,11.9C4.1,11.9,4.1,11.9,4.1,11.9C4.1,12,4,12,4,12.1c0,0,0,0.1,0,0.1c0,0.1,0,0.1,0,0.2
			c0,0.1,0,0.1,0,0.1c0,0,0,0.1,0.1,0.1c0,0,0,0,0.1,0.1c0,0,0,0,0.1,0c0,0,0,0,0.1-0.1c0,0,0-0.1,0-0.1c0,0,0-0.1,0-0.2
			c0-0.1,0-0.1,0-0.2c0-0.1,0-0.1,0-0.1c0,0,0-0.1-0.1-0.1C4.3,11.9,4.2,11.9,4.1,11.9C4.2,11.9,4.2,11.9,4.1,11.9
			C4.2,11.9,4.1,11.9,4.1,11.9"/>
	</defs>
	<clipPath id="SVGID_12_">
		<use xlink:href="#SVGID_11_"  style="overflow:visible;"/>
	</clipPath>
	<g class="st4">
		<g>
			<defs>
				<rect id="SVGID_13_" x="4" y="11.9" width="0.4" height="0.8"/>
			</defs>
			<clipPath id="SVGID_14_">
				<use xlink:href="#SVGID_13_"  style="overflow:visible;"/>
			</clipPath>
			<g class="st5">
				<defs>
					<rect id="SVGID_15_" x="4" y="11.9" width="0.4" height="0.8"/>
				</defs>
				<clipPath id="SVGID_16_">
					<use xlink:href="#SVGID_15_"  style="overflow:visible;"/>
				</clipPath>
				<g style="clip-path:url(#SVGID_16_);">
					
						<image style="overflow:visible;" width="3" height="3" xlink:href="4289689BA0E41615.jpg"  transform="matrix(0.48 0 0 0.48 3.84 11.52)">
					</image>
				</g>
			</g>
		</g>
	</g>
</g>
<g>
	<defs>
		<rect id="SVGID_17_" x="2.4" y="6.1" width="45.2" height="27.7"/>
	</defs>
	<clipPath id="SVGID_18_">
		<use xlink:href="#SVGID_17_"  style="overflow:visible;"/>
	</clipPath>
	<path class="st6" d="M13,8.9L9.7,6.4C9.2,6,8.6,6,8.1,6.4L5.2,8.8C5,8.9,4.9,9.2,4.8,9.4l-0.5,2.4c-0.1,0.4,0.1,0.9,0.5,1.2
		l3.3,2.5c0.5,0.3,1.1,0.3,1.6,0l2.9-2.4c0.2-0.2,0.4-0.4,0.4-0.7l0.5-2.4C13.6,9.6,13.4,9.1,13,8.9 M4.8,11.5
		c-0.1,0-0.1-0.1-0.1-0.2l0.4-1.9C5.2,9.2,5.3,9,5.6,8.8l2.3-1.9c0.1-0.1,0.2-0.1,0.3,0C8.3,6.9,8.3,7,8.3,7.1L7.9,8.8
		C7.8,9.1,7.7,9.4,7.5,9.5l-2.4,2C5,11.6,4.9,11.6,4.8,11.5 M11.7,13.3l-2.4,2c-0.3,0.2-0.6,0.2-0.9,0l-3-2.3C5,12.8,5,12.3,5.3,12
		l2.4-2C8,9.8,8.4,9.8,8.6,10l3,2.3C12,12.5,12,13.1,11.7,13.3 M13.2,9.7l-0.4,1.6c-0.1,0.5-0.7,0.7-1.1,0.4L8.8,9.5
		C8.6,9.4,8.5,9.1,8.6,8.9l0.3-1.6C9,6.8,9.6,6.6,10,6.9L13,9.1C13.2,9.2,13.3,9.5,13.2,9.7"/>
	<path class="st6" d="M11.6,10.9c0.1,0,0.1,0.1,0.2,0.1c0.1,0,0.1,0,0.2,0c0,0,0.1,0,0.1,0c0,0,0.1-0.1,0.1-0.1c0,0,0-0.1,0-0.1
		c0-0.1,0-0.1-0.1-0.2c0-0.1-0.1-0.1-0.1-0.2c0-0.1-0.1-0.1-0.2-0.2c-0.1,0-0.1-0.1-0.2-0.1c-0.1,0-0.1,0-0.2,0c0,0-0.1,0-0.1,0
		c0,0-0.1,0.1-0.1,0.1c0,0,0,0.1,0,0.1c0,0.1,0,0.1,0.1,0.2c0,0.1,0.1,0.1,0.1,0.2C11.5,10.8,11.5,10.9,11.6,10.9"/>
	<path class="st6" d="M9.9,9.6c0.1,0,0.1,0.1,0.2,0.1c0.1,0,0.1,0,0.2,0c0,0,0.1,0,0.1,0c0,0,0.1-0.1,0.1-0.1c0,0,0-0.1,0-0.1
		c0-0.1,0-0.1-0.1-0.2c0-0.1-0.1-0.1-0.1-0.2C10.1,9,10.1,9,10,8.9c-0.1,0-0.1-0.1-0.2-0.1c-0.1,0-0.1,0-0.2,0c0,0-0.1,0-0.1,0
		c0,0-0.1,0.1-0.1,0.1c0,0,0,0.1,0,0.1c0,0.1,0,0.1,0.1,0.2c0,0.1,0.1,0.1,0.1,0.2C9.8,9.5,9.8,9.5,9.9,9.6"/>
	<path class="st6" d="M10.9,9.6c0.1,0,0.1,0.1,0.2,0.1c0.1,0,0.1,0,0.2,0c0,0,0.1,0,0.1,0c0,0,0.1-0.1,0.1-0.1c0,0,0-0.1,0-0.2
		c0-0.1,0-0.1-0.1-0.2c0-0.1-0.1-0.1-0.1-0.2c0-0.1-0.1-0.1-0.2-0.2c-0.1,0-0.1-0.1-0.2-0.1c-0.1,0-0.1,0-0.2,0c0,0-0.1,0-0.1,0
		c0,0-0.1,0.1-0.1,0.1c0,0,0,0.1,0,0.1c0,0.1,0,0.1,0.1,0.2c0,0.1,0.1,0.1,0.1,0.2C10.8,9.5,10.8,9.6,10.9,9.6"/>
	<path class="st6" d="M11.9,9.6c0.1,0,0.1,0.1,0.2,0.1c0.1,0,0.1,0,0.2,0c0,0,0.1,0,0.1,0c0,0,0.1-0.1,0.1-0.1c0,0,0-0.1,0-0.1
		c0-0.1,0-0.1-0.1-0.2c0-0.1-0.1-0.1-0.1-0.2c0-0.1-0.1-0.1-0.2-0.2c-0.1,0-0.1-0.1-0.2-0.1c-0.1,0-0.1,0-0.2,0c0,0-0.1,0-0.1,0
		c0,0-0.1,0.1-0.1,0.1c0,0,0,0.1,0,0.2c0,0.1,0,0.1,0.1,0.2c0,0.1,0.1,0.1,0.1,0.2C11.8,9.5,11.9,9.6,11.9,9.6"/>
	<path class="st6" d="M10.2,8.3c0.1,0,0.1,0.1,0.2,0.1c0.1,0,0.1,0,0.2,0c0,0,0.1,0,0.1,0c0,0,0.1-0.1,0.1-0.1c0,0,0-0.1,0-0.1
		c0-0.1,0-0.1-0.1-0.2c0-0.1-0.1-0.1-0.1-0.2c0-0.1-0.1-0.1-0.2-0.2c-0.1,0-0.1-0.1-0.2-0.1c-0.1,0-0.1,0-0.2,0c0,0-0.1,0-0.1,0
		c0,0-0.1,0.1-0.1,0.1c0,0,0,0.1,0,0.2c0,0.1,0,0.1,0.1,0.2C10,8,10,8.1,10,8.1C10.1,8.2,10.1,8.3,10.2,8.3"/>
	<path class="st6" d="M6.3,9.5c0.1,0,0.1-0.1,0.2-0.1c0-0.1,0.1-0.1,0.1-0.2c0-0.1,0.1-0.1,0.1-0.2c0-0.1,0-0.1,0.1-0.1
		c0,0,0-0.1,0-0.1c0,0,0,0,0,0c0,0-0.1,0-0.1,0c0,0-0.1,0.1-0.1,0.1C6.4,8.9,6.4,8.9,6.3,9c0,0.1-0.1,0.1-0.1,0.2
		c0,0.1-0.1,0.1-0.1,0.2C6,9.4,6,9.4,6,9.5c0,0,0,0.1,0,0.1c0,0,0,0,0.1,0c0,0,0.1,0,0.1,0C6.2,9.6,6.2,9.5,6.3,9.5"/>
	<path class="st6" d="M6.4,13c-0.1,0-0.1-0.1-0.1-0.2c0-0.1-0.1-0.1-0.1-0.2c0-0.1,0-0.1,0-0.2c0-0.1,0.1-0.1,0.1-0.1
		c0.1,0,0.1-0.1,0.2-0.1c0.1,0,0.1,0,0.2,0c0.1,0,0.1,0,0.2,0c0.1,0,0.1,0.1,0.2,0.1c0.1,0,0.1,0.1,0.1,0.2c0,0.1,0.1,0.1,0.1,0.2
		c0,0.1,0,0.1,0,0.2c0,0.1-0.1,0.1-0.1,0.1c-0.1,0-0.1,0.1-0.2,0.1c-0.1,0-0.1,0-0.2,0c-0.1,0-0.1,0-0.2,0C6.5,13.1,6.5,13,6.4,13"
		/>
	<path class="st6" d="M8.1,14.3c-0.1,0-0.1-0.1-0.1-0.1C8,14.1,7.9,14,7.9,14c0-0.1,0-0.1,0-0.2c0-0.1,0.1-0.1,0.1-0.1
		c0.1,0,0.1-0.1,0.2-0.1c0.1,0,0.1,0,0.2,0c0.1,0,0.1,0,0.2,0c0.1,0,0.1,0.1,0.2,0.1c0.1,0,0.1,0.1,0.1,0.2S9.1,14,9.1,14
		c0,0.1,0,0.1,0,0.2c0,0.1-0.1,0.1-0.1,0.1c-0.1,0-0.1,0.1-0.2,0.1c-0.1,0-0.1,0-0.2,0s-0.1,0-0.2,0C8.3,14.4,8.2,14.3,8.1,14.3"/>
	<path class="st6" d="M7.9,11.7c-0.1,0-0.1-0.1-0.1-0.2c0-0.1-0.1-0.1-0.1-0.2c0-0.1,0-0.1,0-0.2c0-0.1,0.1-0.1,0.1-0.1
		C7.9,11.1,8,11,8,11c0.1,0,0.1,0,0.2,0c0.1,0,0.1,0,0.2,0c0.1,0,0.1,0.1,0.2,0.1c0.1,0,0.1,0.1,0.1,0.2c0,0.1,0.1,0.1,0.1,0.2
		c0,0.1,0,0.1,0,0.2c0,0.1-0.1,0.1-0.1,0.1c-0.1,0-0.1,0.1-0.2,0.1c-0.1,0-0.1,0-0.2,0c-0.1,0-0.1,0-0.2,0C8,11.8,8,11.8,7.9,11.7"
		/>
	<path class="st6" d="M9.6,13.1c-0.1,0-0.1-0.1-0.1-0.2c0-0.1-0.1-0.1-0.1-0.2c0-0.1,0-0.1,0-0.2c0-0.1,0.1-0.1,0.1-0.1
		c0.1,0,0.1-0.1,0.2-0.1c0.1,0,0.1,0,0.2,0c0.1,0,0.1,0,0.2,0c0.1,0,0.1,0.1,0.2,0.1c0.1,0,0.1,0.1,0.1,0.2c0,0.1,0,0.1,0.1,0.2
		c0,0.1,0,0.1,0,0.2c0,0.1-0.1,0.1-0.1,0.1c-0.1,0-0.1,0.1-0.2,0.1c-0.1,0-0.1,0-0.2,0c-0.1,0-0.1,0-0.2,0
		C9.8,13.2,9.7,13.1,9.6,13.1"/>
	<path class="st6" d="M7.5,14.8l-0.2-0.2c-0.1,0.1-0.2,0.1-0.3,0.1l-2.3,0.1c-0.1,0-0.1,0-0.2-0.1c0,0-0.1-0.1,0-0.2l0.4-1.8
		l-0.2-0.1l-0.1-0.9l0-0.3l-0.8-1c0,0,0-0.1,0-0.2c0-0.1,0.1-0.1,0.1-0.1l0.9,0l0-0.2l-1.2,0.1c-0.2,0-0.4,0.2-0.4,0.4L2.6,13
		c0,0.1,0,0.3,0.1,0.4L4,14.9c0.1,0.1,0.2,0.2,0.4,0.2l2.7-0.2C7.3,14.9,7.4,14.9,7.5,14.8 M4.1,14.5C4.1,14.5,4.1,14.5,4.1,14.5
		c-0.1,0.1-0.2,0.1-0.2,0l-1.1-1.2c-0.1-0.1-0.1-0.3-0.1-0.4l0.5-2.1c0-0.1,0.1-0.1,0.1-0.1c0.1,0,0.1,0,0.2,0l1,1.2
		c0.1,0.1,0.2,0.3,0.1,0.5L4.1,14.5z"/>
</g>
</svg>
