<?xml version="1.0" encoding="utf-8"?>
<!-- Generator: Adobe Illustrator 21.1.0, SVG Export Plug-In . SVG Version: 6.00 Build 0)  -->
<svg version="1.1" id="圖層_1" xmlns="http://www.w3.org/2000/svg" xmlns:xlink="http://www.w3.org/1999/xlink" x="0px" y="0px"
	 width="50px" height="40px" viewBox="0 0 50 40" style="enable-background:new 0 0 50 40;" xml:space="preserve">
<style type="text/css">
	.st0{clip-path:url(#SVGID_2_);fill:#FFFFFF;}
</style>
<g>
	<defs>
		<rect id="SVGID_1_" x="4.2" y="1.6" width="42.3" height="36.7"/>
	</defs>
	<clipPath id="SVGID_2_">
		<use xlink:href="#SVGID_1_"  style="overflow:visible;"/>
	</clipPath>
	<path class="st0" d="M23.9,17.9h1c0,0.4-0.1,0.7-0.3,0.9C24.5,18.9,24.3,19,24,19h-0.2v0.6h1.2v0.9h-1.2v5h-1v-3.8l-0.2,3
		c0,0.2-0.1,0.4-0.2,0.5c-0.1,0.1-0.3,0.2-0.5,0.2h-0.3v-0.7l0,0c0.1,0,0.2-0.3,0.2-0.5l0.2-3.2h0.8v-0.5h-1v-0.9h1V19h-0.9v-0.9
		h1.8C23.8,18.1,23.8,18,23.9,17.9 M23.8,21.1h0.8l0.2,3.2c0,0.2,0.1,0.2,0.2,0.2v0.9h-0.5c-0.3,0-0.5-0.2-0.5-0.7L23.8,21.1z
		 M25.6,18h1l-0.5,3.6c-0.1,0.8-0.4,1.3-0.9,1.3h-0.5v-1H25c0.1,0,0.2-0.2,0.3-0.7L25.6,18z M28.3,22h1.1l-1,3
		c-0.1,0.4-0.3,0.5-0.5,0.5h-2.8v-1h2.2c0.1,0,0.2-0.1,0.3-0.3L28.3,22z M26.7,17.8h1V23c0,0.3-0.1,0.5-0.3,0.6
		c-0.1,0.2-0.3,0.2-0.6,0.2h-0.8v-0.9h0.4c0.1,0,0.2-0.1,0.2-0.4V17.8z M27.9,18h1l0.3,2.7c0,0.2,0.1,0.3,0.2,0.3h0.1v0.9h-0.6
		c-0.4,0-0.6-0.2-0.7-0.7L27.9,18z"/>
	<path class="st0" d="M30.3,20.2h1.5v3.9c0,0.2,0.2,0.4,0.7,0.4h13.7v1H32.3c-0.3,0-0.6-0.1-0.8-0.3c-0.1,0.2-0.4,0.3-0.6,0.3h-0.6
		v-1h0.1c0.2,0,0.2-0.1,0.2-0.2v-3h-0.4V20.2z M30.8,17.9h1.2v1.7h-1.2V17.9z M33,22.4h1.1l-0.6,1.3c-0.1,0.3-0.3,0.4-0.6,0.4h-0.8
		v-0.9h0.4c0.1,0,0.2-0.1,0.2-0.2L33,22.4z M37.9,18.1v0.9h-2.4v0.4h2.1v1.8c0,0.5-0.3,0.8-0.8,0.8h-1.3v2.3h-1.1V22h-2v-2.5h2v-0.4
		h-2.2v-0.9h2.2v-0.4h1.1v0.4H37.9z M34.4,20.4h-0.9v0.7h0.9V20.4z M36.4,21.1c0.1,0,0.2-0.1,0.2-0.3v-0.4h-1v0.7H36.4z M35.9,22.4
		H37l0.2,0.6c0,0.1,0.1,0.2,0.2,0.2h0.5v0.9h-1.1c-0.2,0-0.3-0.1-0.5-0.4L35.9,22.4z"/>
	<path class="st0" d="M22.6,27h1.9v6.5c0,0.6-0.3,0.9-0.9,0.9h-2.1V27H22.6z M22.6,30h0.8v-2h-0.8V30z M22.6,33.4h0.6
		c0.2,0,0.2-0.1,0.2-0.2V31h-0.8V33.4z M29.1,27.5v1h-0.5v4.7c0,0.3-0.1,0.6-0.3,0.8c-0.2,0.2-0.4,0.3-0.7,0.3h-2v-1h1.5
		c0.2,0,0.2-0.2,0.2-0.5v-4.4h-2.7v-1h2.7v-0.9h1.2v0.9H29.1z M24.9,29.4h1.2l0.3,1.6c0,0.2,0.1,0.3,0.3,0.3h0.4v1.1h-1
		c-0.4,0-0.6-0.2-0.7-0.6L24.9,29.4z"/>
	<path class="st0" d="M31.3,27h1.9v6.5c0,0.6-0.3,0.9-0.9,0.9h-2.1V27H31.3z M31.3,30h0.8v-2h-0.8V30z M31.3,33.4h0.6
		c0.2,0,0.2-0.1,0.2-0.2V31h-0.8V33.4z M37.8,27.5v1h-0.5v4.7c0,0.3-0.1,0.6-0.3,0.8c-0.2,0.2-0.4,0.3-0.7,0.3h-2v-1h1.5
		c0.2,0,0.2-0.2,0.2-0.5v-4.4h-2.7v-1H36v-0.9h1.2v0.9H37.8z M33.6,29.4h1.2l0.3,1.6c0,0.2,0.1,0.3,0.3,0.3h0.4v1.1h-1
		c-0.4,0-0.6-0.2-0.7-0.6L33.6,29.4z"/>
	<path class="st0" d="M39.3,31.8h1.1l-0.4,2c-0.1,0.5-0.3,0.7-0.7,0.7h-0.6v-1h0.2c0.1,0,0.1-0.1,0.2-0.3L39.3,31.8z M42.9,26.7h1.2
		c0,0.5-0.1,0.8-0.3,1c-0.2,0.2-0.4,0.3-0.8,0.3h-4.4v-1h3.9C42.7,27,42.9,26.9,42.9,26.7 M43.5,30.4v1h-1.8v3.1h-1.1v-3.1h-1.9v-1
		h1.9v-0.5h1.1v0.5H43.5z M38.8,28.3h1v0.4c0,0.1,0.1,0.1,0.2,0.1h0.2v0.8h-0.7c-0.4,0-0.6-0.2-0.6-0.5V28.3z M40.5,28.3h1v0.4
		c0,0.1,0.1,0.1,0.2,0.1h0.2v0.8h-0.8c-0.4,0-0.6-0.2-0.6-0.5V28.3z M42,31.8h1.1l0.2,1.5c0,0.2,0.1,0.3,0.2,0.3h0.1v1H43
		c-0.3,0-0.5-0.2-0.6-0.5L42,31.8z M42.5,28.3h1v0.9c0,0.3-0.2,0.5-0.6,0.5h-0.8v-0.8h0.2c0.1,0,0.1,0,0.1-0.1V28.3z M46.3,26.8
		l-0.4,2c-0.1,0.4-0.3,0.6-0.7,0.6H44v-1h0.6c0.2,0,0.3-0.1,0.3-0.2l0.3-1.3H46.3z M46.5,29.6l-0.4,1.9c-0.1,0.4-0.3,0.5-0.7,0.5H44
		v-1h0.8c0.1,0,0.2-0.1,0.3-0.2l0.3-1.2H46.5z M46.5,32.2L46.2,34c-0.1,0.3-0.3,0.5-0.6,0.5H44v-1h0.9c0.1,0,0.2-0.1,0.3-0.2
		l0.3-1.1H46.5z"/>
	<path class="st0" d="M30.4,2.2c0.1,0.4-0.2,0.7-0.6,0.8C29.4,3,29,2.8,29,2.4c-0.1-0.4,0.2-0.7,0.6-0.8C29.9,1.5,30.3,1.8,30.4,2.2
		 M36.1,4.9c-0.1-0.1-0.2-0.2-0.3-0.2c-0.1,0-0.2,0-0.2,0c-0.2,0-0.3,0.2-0.4,0.3l-1.3,3.8l-0.7,0.1l1.2-3.5l-3.1-0.6l0.7,4.3
		l-0.6,0.1l-0.8-5.1c0-0.3-0.3-0.4-0.6-0.4c-0.3,0-0.5,0.3-0.4,0.6l0.8,5.1l-0.6,0.1L29,5.2l-2.9,1.6l2.2,2.9l-0.7,0.1l-2.4-3.3
		c-0.1-0.1-0.3-0.2-0.5-0.2c-0.1,0-0.2,0-0.2,0.1c-0.2,0.2-0.3,0.5-0.1,0.7l2.1,2.8c-0.2,0-0.3,0.2-0.2,0.4l0.2,1.5
		c0,0.2,0.2,0.3,0.4,0.3l8.4-1.3c0.2,0,0.3-0.2,0.3-0.4l-0.2-1.5c0-0.2-0.2-0.3-0.3-0.3l1.1-3.4C36.1,5.2,36.1,5,36.1,4.9"/>
	<path class="st0" d="M21.1,32.5c0-0.5-0.6-0.3-1.3,0.4l-2,2c-0.7,0.7-1.4,0.5-1.5-0.6l-0.5-6.2c-0.1-1-0.9-2.2-1.8-2.7l-5.5-2.9
		c-0.9-0.5-0.9-1.2,0.1-1.6l5.7-2.4c0.9-0.4,1.9-1.5,2-2.5l1.1-6.1c0.2-1,0.9-1.2,1.5-0.4l4.1,4.7c0.7,0.8,2,1.3,3.1,1.1l6.2-0.9
		c1-0.1,1.4,0.4,0.9,1.2c-0.5,0.8-0.8,1.4-0.8,1.4c0.1,0,0.5-0.1,0.9-0.1c0.3,0,1-0.7,1.6-1.6l1.2-2c0.5-0.9,0.1-1.5-0.9-1.3
		l-8.5,1.2c-1,0.1-2.4-0.4-3.1-1.1l-5.6-6.5C17.2,4.8,16.5,5,16.4,6l-1.5,8.5c-0.2,1-1.1,2.2-2,2.5l-8,3.3C4,20.8,4,21.5,4.9,22
		l7.6,4c0.9,0.5,1.7,1.7,1.8,2.7l0.7,8.6c0.1,1,0.8,1.3,1.5,0.6l3.3-3.2C20.5,34,21.1,33,21.1,32.5"/>
	<polygon class="st0" points="16.9,21.9 16.4,19 19.2,19.9 17.4,20.3 	"/>
	<rect x="19.3" y="19.3" transform="matrix(0.762 -0.6476 0.6476 0.762 -10.057 18.1026)" class="st0" width="0.5" height="6.8"/>
</g>
</svg>
