<svg xmlns="http://www.w3.org/2000/svg" viewBox="0 0 15.24 17"><defs><style>.cls-1{fill:#52acd3;}</style></defs><title>bell</title><g id="圖層_2" data-name="圖層 2"><g id="plus"><path class="cls-1" d="M15,13.9c-1.81-.82-1.88-4.32-1.88-4.41V7.14a5.46,5.46,0,0,0-3.35-5,2.12,2.12,0,0,0-4.23,0,5.47,5.47,0,0,0-3.34,5V9.49c0,.09-.07,3.59-1.88,4.41a.48.48,0,0,0-.27.54.47.47,0,0,0,.47.37H5.06a2.69,2.69,0,0,0,.71,1.39,2.54,2.54,0,0,0,3.7,0,2.69,2.69,0,0,0,.71-1.39h4.58a.47.47,0,0,0,.47-.37A.48.48,0,0,0,15,13.9Zm-2.38-1.68a5.43,5.43,0,0,0,.84,1.64H1.82a5.43,5.43,0,0,0,.84-1.64ZM7.62,1a1.15,1.15,0,0,1,1.11.83,5.66,5.66,0,0,0-2.22,0A1.15,1.15,0,0,1,7.62,1ZM3.12,9.49V7.14a4.5,4.5,0,0,1,9,0V9.5a9.86,9.86,0,0,0,.2,1.76H2.92A9.85,9.85,0,0,0,3.12,9.49ZM7.62,16A1.68,1.68,0,0,1,6,14.81H9.2A1.68,1.68,0,0,1,7.62,16Z"/><path class="cls-1" d="M7.62,3.31A3.75,3.75,0,0,0,3.88,7.05a.47.47,0,0,0,.48.48.48.48,0,0,0,.48-.48A2.79,2.79,0,0,1,7.62,4.27a.48.48,0,0,0,.48-.48A.49.49,0,0,0,7.62,3.31Z"/></g></g></svg>