<?xml version="1.0" encoding="utf-8"?>
<!-- Generator: Adobe Illustrator 21.1.0, SVG Export Plug-In . SVG Version: 6.00 Build 0)  -->
<svg version="1.1" id="圖層_1" xmlns="http://www.w3.org/2000/svg" xmlns:xlink="http://www.w3.org/1999/xlink" x="0px" y="0px"
	 width="213.6px" height="240.9px" viewBox="0 0 213.6 240.9" style="enable-background:new 0 0 213.6 240.9;" xml:space="preserve"
	>
<style type="text/css">
	.st0{fill:#D59559;}
</style>
<title>close</title>
<g id="圖層_2">
	<g id="Layer_1">
		<path class="st0" d="M135.8,120.5l72.5-84.2c7.9-9.2,6.9-23.1-2.3-31s-23.1-6.9-31,2.3l-68.2,79.2L38.6,7.6C30.9-1.7,17-3,7.7,4.7
			S-3,26.3,4.8,35.6c0.2,0.2,0.4,0.4,0.6,0.6l72.5,84.2L5.3,204.7c-8.1,9-7.3,22.9,1.7,31s22.9,7.3,31-1.7c0.2-0.2,0.4-0.4,0.6-0.6
			l68.2-79.2l68.2,79.2c8.1,9,22,9.8,31,1.7c8.8-7.9,9.8-21.3,2.3-30.3L135.8,120.5z"/>
	</g>
</g>
</svg>
