<?xml version="1.0" encoding="utf-8"?>
<!-- Generator: Adobe Illustrator 21.1.0, SVG Export Plug-In . SVG Version: 6.00 Build 0)  -->
<svg version="1.1" id="Capa_1" xmlns="http://www.w3.org/2000/svg" xmlns:xlink="http://www.w3.org/1999/xlink" x="0px" y="0px"
	 width="59.2px" height="59.2px" viewBox="0 0 59.2 59.2" style="enable-background:new 0 0 59.2 59.2;" xml:space="preserve">
<style type="text/css">
	.st0{fill:#D59559;}
</style>
<g>
	<path class="st0" d="M51.1,21.6c-5.8-5.8-13.4-8.9-21.6-8.9s-15.8,3.2-21.6,8.9L0,29.5l8.1,8.1c5.8,5.8,13.4,8.9,21.6,8.9
		s15.8-3.2,21.6-8.9l7.9-7.9L51.1,21.6z M49.8,36.2c-5.4,5.4-12.5,8.3-20.1,8.3s-14.8-3-20.1-8.3l-6.7-6.7L9.4,23
		c5.4-5.4,12.5-8.3,20.1-8.3s14.8,3,20.1,8.3l6.7,6.7L49.8,36.2z"/>
	<path class="st0" d="M29.6,16.6c-7.2,0-13,5.8-13,13s5.8,13,13,13s13-5.8,13-13S36.7,16.6,29.6,16.6z M29.6,24.6c-2.8,0-5,2.2-5,5
		c0,0.6-0.4,1-1,1s-1-0.4-1-1c0-3.9,3.1-7,7-7c0.6,0,1,0.4,1,1S30.1,24.6,29.6,24.6z"/>
</g>
</svg>
