<?xml version="1.0" encoding="utf-8"?>
<!-- Generator: Adobe Illustrator 21.1.0, SVG Export Plug-In . SVG Version: 6.00 Build 0)  -->
<svg version="1.1" id="Capa_1" xmlns="http://www.w3.org/2000/svg" xmlns:xlink="http://www.w3.org/1999/xlink" x="0px" y="0px"
	 width="59.2px" height="59.2px" viewBox="0 0 59.2 59.2" style="enable-background:new 0 0 59.2 59.2;" xml:space="preserve">
<style type="text/css">
	.st0{fill:#D59559;}
</style>
<g>
	<path class="st0" d="M51.1,21.8c-2.1-2.1-4.5-3.9-7-5.2l9.5-9.5c0.4-0.4,0.4-1,0-1.4s-1-0.4-1.4,0l-10,10
		c-3.9-1.8-8.2-2.8-12.7-2.8c-8.1,0-15.8,3.2-21.6,8.9l-7.9,8l8.1,8.1c2,2,4.3,3.7,6.7,5.1l-9.1,9.1c-0.4,0.4-0.4,1,0,1.4
		c0.2,0.2,0.5,0.3,0.7,0.3s0.5-0.1,0.7-0.3l9.6-9.6c4,1.9,8.4,2.9,13,2.9c8.1,0,15.8-3.2,21.6-8.9l7.9-7.9L51.1,21.8z M16.3,41.5
		c-2.5-1.3-4.7-3-6.8-5l-6.7-6.7l6.5-6.5c5.4-5.4,12.5-8.3,20.1-8.3c3.9,0,7.7,0.8,11.2,2.3L16.3,41.5z M49.8,36.5
		c-5.4,5.4-12.5,8.3-20.1,8.3c-4,0-7.9-0.8-11.5-2.4L42.6,18c2.6,1.3,5,3.1,7.1,5.2l6.7,6.7L49.8,36.5z"/>
	<path class="st0" d="M29.6,16.9c-7.2,0-13,5.8-13,13c0,2.5,0.7,4.9,2,6.9l17.9-17.9C34.5,17.6,32.1,16.9,29.6,16.9z"/>
	<path class="st0" d="M22.5,40.7c2,1.3,4.5,2.1,7.1,2.1c7.2,0,13-5.8,13-13c0-2.6-0.8-5.1-2.1-7.1L22.5,40.7z"/>
</g>
</svg>
