<?xml version="1.0" encoding="utf-8"?>
<!-- Generator: Adobe Illustrator 22.0.0, SVG Export Plug-In . SVG Version: 6.00 Build 0)  -->
<svg version="1.1" id="Capa_1" xmlns="http://www.w3.org/2000/svg" xmlns:xlink="http://www.w3.org/1999/xlink" x="0px" y="0px"
	 viewBox="0 0 45.9 45.9" style="enable-background:new 0 0 45.9 45.9;" xml:space="preserve">
<style type="text/css">
	.st0{fill:#51A9DD;}
</style>
<g>
	<path class="st0" d="M22.9,0C10.3,0,0,10.3,0,22.9s10.3,22.9,22.9,22.9c12.7,0,22.9-10.3,22.9-22.9C45.9,10.3,35.6,0,22.9,0z
		 M7.9,15.2c1.5-1.5,4-1.5,5.5,0c1.5-1.5,4-1.5,5.5,0c1.5,1.5,1.5,4,0,5.5c-0.1,0.1-3.7,3.7-5,5c-0.3,0.3-0.7,0.3-1,0
		c-1.3-1.3-4.9-4.9-5-5C6.4,19.2,6.4,16.8,7.9,15.2z M32.7,32.2c-2.7,2.7-6.2,4-9.7,4c-3.5,0-7-1.3-9.7-4c-0.6-0.6-0.6-1.5,0-2.1
		c0.6-0.6,1.5-0.6,2.1,0c4.2,4.2,11,4.2,15.2,0c0.6-0.6,1.5-0.6,2.1,0C33.3,30.7,33.3,31.7,32.7,32.2z M37.9,20.7
		c-0.1,0.1-3.7,3.7-5,5c-0.3,0.3-0.7,0.3-1,0c-1.3-1.3-4.9-4.9-5-5c-1.5-1.5-1.5-4,0-5.5c1.5-1.5,4-1.5,5.5,0c1.5-1.5,4-1.5,5.5,0
		C39.5,16.8,39.5,19.2,37.9,20.7z"/>
</g>
</svg>
