<?xml version="1.0" encoding="utf-8"?>
<!-- Generator: Adobe Illustrator 21.1.0, SVG Export Plug-In . SVG Version: 6.00 Build 0)  -->
<svg version="1.1" id="圖層_1" xmlns="http://www.w3.org/2000/svg" xmlns:xlink="http://www.w3.org/1999/xlink" x="0px" y="0px"
	 width="85.4px" height="85.4px" viewBox="0 0 85.4 85.4" style="enable-background:new 0 0 85.4 85.4;" xml:space="preserve">
<style type="text/css">
	.st0{fill:#FEA832;}
</style>
<title>icon_check</title>
<g id="圖層_2">
	<g id="footer">
		<polygon class="st0" points="24.8,44.5 20.5,48.9 34.4,62.9 65.5,31.8 61.2,27.4 34.4,54.2 		"/>
		<path class="st0" d="M42.7,85.4C19.1,85.4,0,66.3,0,42.7S19.1,0,42.7,0s42.7,19.1,42.7,42.7c0,0,0,0,0,0
			C85.4,66.3,66.3,85.4,42.7,85.4z M42.7,5.9C22.4,5.9,5.9,22.4,5.9,42.7s16.5,36.8,36.8,36.8s36.8-16.5,36.8-36.8
			C79.5,22.4,63,5.9,42.7,5.9z"/>
	</g>
</g>
</svg>
